<svg width="20" height="21" viewBox="0 0 20 21" fill="none" xmlns="http://www.w3.org/2000/svg">
<path d="M10.0432 0.477783C4.54288 0.477783 0.0864258 4.93424 0.0864258 10.4345C0.0864258 15.9348 4.54288 20.3913 10.0432 20.3913C15.5435 20.3913 19.9999 15.9348 19.9999 10.4345C19.9999 4.93424 15.5435 0.477783 10.0432 0.477783ZM13.7565 13.0442L12.9535 14.0479C12.9008 14.1138 12.8357 14.1686 12.7618 14.2093C12.6879 14.25 12.6067 14.2758 12.5228 14.2851C12.439 14.2944 12.3541 14.2871 12.2731 14.2636C12.1921 14.2402 12.1165 14.201 12.0506 14.1482L9.36066 12.1521C9.17271 12.0016 9.021 11.8108 8.91676 11.5938C8.81252 11.3767 8.75841 11.139 8.75844 10.8983V4.6532C8.75844 4.48283 8.82612 4.31944 8.94659 4.19897C9.06705 4.0785 9.23044 4.01083 9.40081 4.01083H10.6856C10.8559 4.01083 11.0193 4.0785 11.1398 4.19897C11.2602 4.31944 11.3279 4.48283 11.3279 4.6532V10.4345L13.6565 12.1408C13.7224 12.1936 13.7773 12.2588 13.818 12.3327C13.8587 12.4067 13.8844 12.4879 13.8937 12.5718C13.903 12.6557 13.8957 12.7406 13.8721 12.8216C13.8486 12.9027 13.8093 12.9783 13.7565 13.0442Z" fill="#C1C1C1"/>
</svg>
