<svg width="17" height="11" viewBox="0 0 17 11" fill="none" xmlns="http://www.w3.org/2000/svg">
<path d="M8.49992 0.1875C4.95825 0.1875 1.93367 2.39042 0.708252 5.5C1.93367 8.60958 4.95825 10.8125 8.49992 10.8125C12.0416 10.8125 15.0662 8.60958 16.2916 5.5C15.0662 2.39042 12.0416 0.1875 8.49992 0.1875ZM8.49992 9.04167C6.54492 9.04167 4.95825 7.455 4.95825 5.5C4.95825 3.545 6.54492 1.95833 8.49992 1.95833C10.4549 1.95833 12.0416 3.545 12.0416 5.5C12.0416 7.455 10.4549 9.04167 8.49992 9.04167ZM8.49992 3.375C7.32409 3.375 6.37492 4.32417 6.37492 5.5C6.37492 6.67583 7.32409 7.625 8.49992 7.625C9.67575 7.625 10.6249 6.67583 10.6249 5.5C10.6249 4.32417 9.67575 3.375 8.49992 3.375Z" fill="#777777"/>
</svg>
