<svg width="17" height="17" viewBox="0 0 17 17" fill="none" xmlns="http://www.w3.org/2000/svg">
<path d="M8.59299 0.968262C4.175 0.968262 0.595459 4.5478 0.595459 8.96579C0.595459 13.3838 4.175 16.9633 8.59299 16.9633C13.011 16.9633 16.5905 13.3838 16.5905 8.96579C16.5905 4.5478 13.011 0.968262 8.59299 0.968262ZM11.5756 11.0619L10.9307 11.8681C10.8883 11.921 10.836 11.9651 10.7766 11.9978C10.7173 12.0305 10.6521 12.0512 10.5847 12.0587C10.5174 12.0661 10.4492 12.0603 10.3841 12.0414C10.319 12.0226 10.2583 11.9911 10.2054 11.9487L8.04477 10.3454C7.89381 10.2245 7.77195 10.0712 7.68822 9.8969C7.60449 9.72258 7.56103 9.53165 7.56105 9.33826V4.32207C7.56105 4.18522 7.61541 4.05398 7.71218 3.95722C7.80894 3.86046 7.94018 3.8061 8.07702 3.8061H9.10896C9.2458 3.8061 9.37704 3.86046 9.47381 3.95722C9.57057 4.05398 9.62493 4.18522 9.62493 4.32207V8.96579L11.4953 10.3363C11.5483 10.3787 11.5923 10.4311 11.625 10.4905C11.6577 10.5498 11.6784 10.6151 11.6858 10.6825C11.6933 10.7499 11.6874 10.8181 11.6685 10.8832C11.6496 10.9483 11.618 11.009 11.5756 11.0619Z" fill="#005AA7"/>
</svg>
