<svg width="19" height="17" viewBox="0 0 19 17" fill="none" xmlns="http://www.w3.org/2000/svg">
<path d="M0 15.2676C0 16.1211 0.91183 16.8135 2.03571 16.8135H16.9643C18.0882 16.8135 19 16.1211 19 15.2676V6.50724H0V15.2676ZM13.5714 8.95498C13.5714 8.74241 13.8004 8.56849 14.0804 8.56849H15.7768C16.0567 8.56849 16.2857 8.74241 16.2857 8.95498V10.2433C16.2857 10.4558 16.0567 10.6297 15.7768 10.6297H14.0804C13.8004 10.6297 13.5714 10.4558 13.5714 10.2433V8.95498ZM13.5714 13.0775C13.5714 12.8649 13.8004 12.691 14.0804 12.691H15.7768C16.0567 12.691 16.2857 12.8649 16.2857 13.0775V14.3658C16.2857 14.5783 16.0567 14.7523 15.7768 14.7523H14.0804C13.8004 14.7523 13.5714 14.5783 13.5714 14.3658V13.0775ZM8.14286 8.95498C8.14286 8.74241 8.37187 8.56849 8.65179 8.56849H10.3482C10.6281 8.56849 10.8571 8.74241 10.8571 8.95498V10.2433C10.8571 10.4558 10.6281 10.6297 10.3482 10.6297H8.65179C8.37187 10.6297 8.14286 10.4558 8.14286 10.2433V8.95498ZM8.14286 13.0775C8.14286 12.8649 8.37187 12.691 8.65179 12.691H10.3482C10.6281 12.691 10.8571 12.8649 10.8571 13.0775V14.3658C10.8571 14.5783 10.6281 14.7523 10.3482 14.7523H8.65179C8.37187 14.7523 8.14286 14.5783 8.14286 14.3658V13.0775ZM2.71429 8.95498C2.71429 8.74241 2.9433 8.56849 3.22321 8.56849H4.91964C5.19955 8.56849 5.42857 8.74241 5.42857 8.95498V10.2433C5.42857 10.4558 5.19955 10.6297 4.91964 10.6297H3.22321C2.9433 10.6297 2.71429 10.4558 2.71429 10.2433V8.95498ZM2.71429 13.0775C2.71429 12.8649 2.9433 12.691 3.22321 12.691H4.91964C5.19955 12.691 5.42857 12.8649 5.42857 13.0775V14.3658C5.42857 14.5783 5.19955 14.7523 4.91964 14.7523H3.22321C2.9433 14.7523 2.71429 14.5783 2.71429 14.3658V13.0775ZM16.9643 2.38474H14.9286V0.838799C14.9286 0.555377 14.6232 0.323486 14.25 0.323486H12.8929C12.5196 0.323486 12.2143 0.555377 12.2143 0.838799V2.38474H6.78571V0.838799C6.78571 0.555377 6.48036 0.323486 6.10714 0.323486H4.75C4.37679 0.323486 4.07143 0.555377 4.07143 0.838799V2.38474H2.03571C0.91183 2.38474 0 3.07719 0 3.93068V5.47662H19V3.93068C19 3.07719 18.0882 2.38474 16.9643 2.38474Z" fill="white"/>
</svg>
