<svg width="16" height="17" viewBox="0 0 16 17" fill="none" xmlns="http://www.w3.org/2000/svg">
<path d="M8 0.137451C3.58065 0.137451 0 3.84084 0 8.4117C0 12.9826 3.58065 16.6859 8 16.6859C12.4194 16.6859 16 12.9826 16 8.4117C16 3.84084 12.4194 0.137451 8 0.137451ZM10.9835 10.5804L10.3384 11.4144C10.296 11.4692 10.2437 11.5148 10.1843 11.5486C10.125 11.5824 10.0597 11.6038 9.99235 11.6116C9.92498 11.6193 9.8568 11.6133 9.79169 11.5937C9.72659 11.5742 9.66583 11.5417 9.6129 11.4979L7.45161 9.83901C7.3006 9.71395 7.1787 9.55538 7.09495 9.37502C7.01119 9.19466 6.96772 8.99714 6.96774 8.79705V3.6073C6.96774 3.46572 7.02212 3.32994 7.11891 3.22983C7.21571 3.12972 7.34698 3.07347 7.48387 3.07347H8.51613C8.65302 3.07347 8.78429 3.12972 8.88109 3.22983C8.97788 3.32994 9.03226 3.46572 9.03226 3.6073V8.4117L10.9032 9.82966C10.9562 9.87348 11.0003 9.92766 11.033 9.98911C11.0657 10.0506 11.0863 10.1181 11.0938 10.1878C11.1013 10.2575 11.0954 10.3281 11.0764 10.3954C11.0575 10.4628 11.026 10.5256 10.9835 10.5804Z" fill="white"/>
</svg>
