<svg width="28" height="20" viewBox="0 0 28 20" fill="none" xmlns="http://www.w3.org/2000/svg">
<path d="M13.481 5.57758L4.88874 12.1151V19.1709C4.88874 19.3536 4.9673 19.5288 5.10714 19.658C5.24698 19.7872 5.43664 19.8598 5.63439 19.8598L10.8568 19.8473C11.0539 19.8464 11.2426 19.7734 11.3816 19.6443C11.5206 19.5152 11.5987 19.3405 11.5987 19.1584V15.0379C11.5987 14.8552 11.6772 14.68 11.8171 14.5508C11.9569 14.4216 12.1466 14.3491 12.3443 14.3491H15.327C15.5247 14.3491 15.7144 14.4216 15.8542 14.5508C15.994 14.68 16.0726 14.8552 16.0726 15.0379V19.1554C16.0723 19.2461 16.0914 19.3359 16.1287 19.4197C16.166 19.5035 16.2209 19.5797 16.2902 19.6439C16.3595 19.7081 16.4418 19.759 16.5324 19.7938C16.623 19.8285 16.7201 19.8464 16.8183 19.8464L22.0388 19.8598C22.2365 19.8598 22.4262 19.7872 22.566 19.658C22.7059 19.5288 22.7844 19.3536 22.7844 19.1709V12.1103L14.194 5.57758C14.093 5.50238 13.9672 5.46137 13.8375 5.46137C13.7078 5.46137 13.582 5.50238 13.481 5.57758V5.57758ZM27.0533 10.021L23.1572 7.05427V1.09109C23.1572 0.954073 23.0983 0.822667 22.9934 0.72578C22.8886 0.628893 22.7463 0.574463 22.598 0.574463H19.9882C19.8399 0.574463 19.6977 0.628893 19.5928 0.72578C19.4879 0.822667 19.429 0.954073 19.429 1.09109V4.21712L15.2566 1.04589C14.8562 0.741497 14.3537 0.575071 13.8352 0.575071C13.3166 0.575071 12.8142 0.741497 12.4138 1.04589L0.61708 10.021C0.560452 10.0642 0.5136 10.1174 0.479203 10.1773C0.444806 10.2373 0.423538 10.303 0.416613 10.3705C0.409689 10.4381 0.417243 10.5063 0.438846 10.5711C0.460449 10.636 0.495676 10.6963 0.542515 10.7486L1.7309 12.0832C1.77761 12.1357 1.83507 12.1791 1.89998 12.2111C1.96489 12.243 2.03598 12.2628 2.10918 12.2693C2.18238 12.2758 2.25625 12.2689 2.32657 12.2491C2.39688 12.2292 2.46226 12.1967 2.51896 12.1534L13.481 3.81243C13.582 3.73723 13.7078 3.69622 13.8375 3.69622C13.9672 3.69622 14.093 3.73723 14.194 3.81243L25.1565 12.1534C25.2131 12.1967 25.2784 12.2292 25.3486 12.2492C25.4188 12.2691 25.4926 12.2761 25.5658 12.2697C25.6389 12.2633 25.71 12.2437 25.7749 12.2119C25.8398 12.1801 25.8973 12.1368 25.9441 12.0845L27.1325 10.7499C27.1793 10.6973 27.2144 10.6367 27.2357 10.5715C27.2571 10.5064 27.2643 10.438 27.2569 10.3702C27.2496 10.3025 27.2278 10.2368 27.1928 10.1768C27.1579 10.1169 27.1105 10.064 27.0533 10.021V10.021Z" fill="white"/>
</svg>
