<svg width="39" height="39" viewBox="0 0 39 39" fill="none" xmlns="http://www.w3.org/2000/svg">
<path d="M19.5277 15.0313C18.6421 15.0316 17.7766 15.2945 17.0404 15.7867C16.3043 16.2789 15.7306 16.9784 15.392 17.7966C15.0533 18.6148 14.9649 19.5151 15.1379 20.3836C15.3108 21.2521 15.7374 22.0498 16.3637 22.6759C16.99 23.3019 17.7879 23.7282 18.6564 23.9008C19.525 24.0735 20.4252 23.9847 21.2433 23.6458C22.0614 23.3068 22.7606 22.7329 23.2526 21.9965C23.7445 21.2602 24.0071 20.3946 24.0071 19.509C24.0062 18.3214 23.5339 17.1828 22.694 16.3432C21.8541 15.5036 20.7153 15.0317 19.5277 15.0313ZM29.9967 11.5894C29.7688 11.0117 29.4246 10.4871 28.9854 10.0479C28.5463 9.60877 28.0216 9.26455 27.4439 9.0366C25.681 8.34067 21.4837 8.49682 19.5277 8.49682C17.5717 8.49682 13.3786 8.3348 11.6106 9.0366C11.0329 9.26455 10.5082 9.60877 10.0691 10.0479C9.62997 10.4871 9.28575 11.0117 9.05779 11.5894C8.36271 13.3523 8.51801 17.5539 8.51801 19.5082C8.51801 21.4625 8.36271 25.659 9.06115 27.4278C9.2891 28.0054 9.63333 28.5301 10.0725 28.9693C10.5116 29.4084 11.0363 29.7526 11.614 29.9806C13.3769 30.6765 17.5742 30.5204 19.531 30.5204C21.4879 30.5204 25.6793 30.6824 27.4473 29.9806C28.025 29.7526 28.5497 29.4084 28.9888 28.9693C29.4279 28.5301 29.7722 28.0054 30.0001 27.4278C30.7011 25.6649 30.5399 21.4633 30.5399 19.509C30.5399 17.5547 30.7011 13.359 30.0001 11.5903L29.9967 11.5894ZM19.5277 26.3927C18.1662 26.3927 16.8353 25.989 15.7033 25.2326C14.5713 24.4762 13.689 23.4011 13.168 22.1433C12.647 20.8855 12.5107 19.5014 12.7763 18.1661C13.0419 16.8308 13.6975 15.6042 14.6602 14.6415C15.6229 13.6788 16.8495 13.0232 18.1848 12.7576C19.5201 12.492 20.9041 12.6283 22.162 13.1493C23.4198 13.6703 24.4949 14.5526 25.2513 15.6847C26.0076 16.8167 26.4114 18.1476 26.4114 19.509C26.4125 20.4133 26.2352 21.3089 25.8896 22.1446C25.5441 22.9803 25.0371 23.7395 24.3976 24.379C23.7582 25.0184 22.9989 25.5254 22.1633 25.8709C21.3276 26.2165 20.432 26.3938 19.5277 26.3927ZM26.6951 13.9433C26.3773 13.9435 26.0666 13.8494 25.8022 13.6729C25.5379 13.4965 25.3318 13.2456 25.2101 12.952C25.0883 12.6584 25.0564 12.3354 25.1183 12.0236C25.1802 11.7119 25.3332 11.4255 25.5578 11.2007C25.7825 10.9759 26.0688 10.8228 26.3805 10.7607C26.6922 10.6987 27.0153 10.7305 27.309 10.852C27.6026 10.9736 27.8536 11.1796 28.0302 11.4438C28.2068 11.7081 28.301 12.0187 28.301 12.3366C28.3019 12.5476 28.2611 12.7568 28.181 12.952C28.1008 13.1473 27.983 13.3248 27.8341 13.4744C27.6852 13.624 27.5082 13.7427 27.3134 13.8237C27.1185 13.9048 26.9095 13.9466 26.6985 13.9467L26.6951 13.9433ZM34.3024 0.704834H4.75298C3.6843 0.704834 2.65939 1.12937 1.90371 1.88504C1.14804 2.64071 0.723511 3.66562 0.723511 4.7343L0.723511 34.2837C0.723511 35.3524 1.14804 36.3773 1.90371 37.133C2.65939 37.8887 3.6843 38.3132 4.75298 38.3132H34.3024C35.3711 38.3132 36.396 37.8887 37.1517 37.133C37.9073 36.3773 38.3319 35.3524 38.3319 34.2837V4.7343C38.3319 3.66562 37.9073 2.64071 37.1517 1.88504C36.396 1.12937 35.3711 0.704834 34.3024 0.704834ZM32.8652 25.0495C32.7569 27.2011 32.2658 29.1075 30.6952 30.674C29.1245 32.2405 27.2198 32.7416 25.0707 32.844C22.8537 32.9691 16.2067 32.9691 13.9897 32.844C11.8381 32.7357 9.9384 32.2438 8.36523 30.674C6.79206 29.1042 6.29761 27.1969 6.19519 25.0495C6.07011 22.8316 6.07011 16.1839 6.19519 13.9685C6.30348 11.8169 6.7887 9.91049 8.36523 8.34403C9.94176 6.77758 11.8465 6.28229 13.9897 6.17987C16.2067 6.05479 22.8537 6.05479 25.0707 6.17987C27.2223 6.28816 29.1279 6.7801 30.6952 8.34991C32.2625 9.91972 32.7628 11.827 32.8652 13.9786C32.9903 16.1881 32.9903 22.83 32.8652 25.0495Z" fill="white"/>
</svg>
