<svg width="14" height="20" viewBox="0 0 14 20" fill="none" xmlns="http://www.w3.org/2000/svg">
<path d="M6.2806 19.5362C0.983281 11.5934 0 10.7782 0 7.85911C0 3.86057 3.13399 0.619141 7 0.619141C10.866 0.619141 14 3.86057 14 7.85911C14 10.7782 13.0167 11.5934 7.7194 19.5362C7.37177 20.0556 6.6282 20.0556 6.2806 19.5362ZM7 10.8758C8.61084 10.8758 9.91667 9.52517 9.91667 7.85911C9.91667 6.19305 8.61084 4.84246 7 4.84246C5.38916 4.84246 4.08333 6.19305 4.08333 7.85911C4.08333 9.52517 5.38916 10.8758 7 10.8758Z" fill="white"/>
</svg>
