<svg width="38" height="38" viewBox="0 0 38 38" fill="none" xmlns="http://www.w3.org/2000/svg">
<path d="M33.9705 0.349609H4.42107C2.19563 0.349609 0.391602 2.15364 0.391602 4.37908V33.9285C0.391602 36.1539 2.19563 37.958 4.42107 37.958H33.9705C36.1959 37.958 38 36.1539 38 33.9285V4.37908C38 2.15364 36.1959 0.349609 33.9705 0.349609ZM15.344 19.6662C7.73102 14.141 7.80859 14.1271 5.76422 12.536V10.4233C5.76422 9.31056 6.66624 8.40854 7.77896 8.40854H30.6126C31.7253 8.40854 32.6273 9.31056 32.6273 10.4233V12.536C30.5815 14.1284 30.6601 14.1414 23.0475 19.6663C22.1661 20.3089 20.4123 21.859 19.1958 21.84C17.9783 21.8583 16.2268 20.3099 15.344 19.6662ZM32.6273 15.9449V27.8843C32.6273 28.997 31.7253 29.899 30.6126 29.899H7.77896C6.66624 29.899 5.76422 28.997 5.76422 27.8843V15.9449C6.93596 16.851 8.5621 18.0634 13.7646 21.8392C14.9535 22.7073 16.9525 24.5377 19.1955 24.5263C21.4526 24.5376 23.4799 22.676 24.6286 21.8379C29.8298 18.0632 31.4556 16.8509 32.6273 15.9449Z" fill="white"/>
</svg>
