<svg width="17" height="14" viewBox="0 0 17 14" fill="none" xmlns="http://www.w3.org/2000/svg">
<path d="M16.5994 4.56007C16.7283 4.45411 16.92 4.55323 16.92 4.72071V11.7105C16.92 12.6162 16.2095 13.3511 15.3337 13.3511H1.58625C0.710508 13.3511 0 12.6162 0 11.7105V4.72413C0 4.55323 0.188367 4.45753 0.320555 4.56348C1.0608 5.15821 2.0423 5.91358 5.41308 8.4463C6.11037 8.97267 7.28684 10.0801 8.46 10.0733C9.63977 10.0835 10.8394 8.95216 11.5102 8.4463C14.881 5.91358 15.8592 5.15479 16.5994 4.56007ZM8.46 8.97609C9.22669 8.98976 10.3305 7.97804 10.8856 7.56105C15.271 4.26954 15.6047 3.98243 16.616 3.16211C16.8076 3.00831 16.92 2.76905 16.92 2.51612V1.8667C16.92 0.960939 16.2095 0.226074 15.3337 0.226074H1.58625C0.710508 0.226074 0 0.960939 0 1.8667V2.51612C0 2.76905 0.112359 3.00489 0.304031 3.16211C1.31527 3.97901 1.64904 4.26954 6.03436 7.56105C6.58955 7.97804 7.69331 8.98976 8.46 8.97609Z" fill="white"/>
</svg>
