<svg width="14" height="24" viewBox="0 0 14 24" fill="none" xmlns="http://www.w3.org/2000/svg">
<path d="M11.3688 0.923584H2.00625C0.898633 0.923584 0 1.85302 0 2.99861V20.9822C0 22.1278 0.898633 23.0572 2.00625 23.0572H11.3688C12.4764 23.0572 13.375 22.1278 13.375 20.9822V2.99861C13.375 1.85302 12.4764 0.923584 11.3688 0.923584ZM6.6875 21.6738C5.9477 21.6738 5.35 21.0557 5.35 20.2905C5.35 19.5253 5.9477 18.9071 6.6875 18.9071C7.42731 18.9071 8.025 19.5253 8.025 20.2905C8.025 21.0557 7.42731 21.6738 6.6875 21.6738ZM11.3688 17.005C11.3688 17.2904 11.143 17.5238 10.8672 17.5238H2.50781C2.23195 17.5238 2.00625 17.2904 2.00625 17.005V3.51737C2.00625 3.23205 2.23195 2.99861 2.50781 2.99861H10.8672C11.143 2.99861 11.3688 3.23205 11.3688 3.51737V17.005Z" fill="white"/>
</svg>
