<svg width="28" height="21" viewBox="0 0 28 21" fill="none" xmlns="http://www.w3.org/2000/svg">
<path d="M6.13228 14.017H2.1922C1.46698 14.017 0.878845 14.5604 0.878845 15.2303V18.8702C0.878845 19.5401 1.46698 20.0835 2.1922 20.0835H6.13228C6.8575 20.0835 7.44564 19.5401 7.44564 18.8702V15.2303C7.44564 14.5604 6.8575 14.017 6.13228 14.017ZM5.14726 10.9838H13.0274V12.8038H14.9974V10.9838H22.8776V12.8038H24.8476V10.6202C24.8476 9.81756 24.1405 9.1639 23.2712 9.1639H14.9974V6.73733H16.6391C17.3644 6.73733 17.9525 6.194 17.9525 5.52404V1.88418C17.9525 1.21422 17.3644 0.670898 16.6391 0.670898H11.3857C10.6605 0.670898 10.0724 1.21422 10.0724 1.88418V5.52404C10.0724 6.194 10.6605 6.73733 11.3857 6.73733H13.0274V9.1639H4.75366C3.88438 9.1639 3.17722 9.81718 3.17722 10.6202V12.8038H5.14726V10.9838ZM15.9825 14.017H12.0424C11.3172 14.017 10.729 14.5604 10.729 15.2303V18.8702C10.729 19.5401 11.3172 20.0835 12.0424 20.0835H15.9825C16.7077 20.0835 17.2958 19.5401 17.2958 18.8702V15.2303C17.2958 14.5604 16.7077 14.017 15.9825 14.017ZM25.8326 14.017H21.8926C21.1674 14.017 20.5792 14.5604 20.5792 15.2303V18.8702C20.5792 19.5401 21.1674 20.0835 21.8926 20.0835H25.8326C26.5579 20.0835 27.146 19.5401 27.146 18.8702V15.2303C27.146 14.5604 26.5579 14.017 25.8326 14.017Z" fill="white"/>
</svg>
