<svg width="22" height="21" viewBox="0 0 22 21" fill="none" xmlns="http://www.w3.org/2000/svg">
<path d="M7.5446 8.88502H14.1309C14.4948 8.88502 14.7895 8.61274 14.7895 8.27657V7.66813C14.7895 7.33196 14.4948 7.05968 14.1309 7.05968H7.5446C7.18071 7.05968 6.88597 7.33196 6.88597 7.66813V8.27657C6.88597 8.61274 7.18071 8.88502 7.5446 8.88502ZM6.88597 11.9272C6.88597 12.2634 7.18071 12.5357 7.5446 12.5357H14.1309C14.4948 12.5357 14.7895 12.2634 14.7895 11.9272V11.3188C14.7895 10.9826 14.4948 10.7103 14.1309 10.7103H7.5446C7.18071 10.7103 6.88597 10.9826 6.88597 11.3188V11.9272ZM10.8377 16.5335C10.1618 16.5335 9.48591 16.3411 8.90879 15.9559L0.299683 10.2107V18.3159C0.299683 19.324 1.1843 20.1412 2.27557 20.1412H19.3999C20.4912 20.1412 21.3758 19.324 21.3758 18.3159V10.2107L12.7667 15.9559C12.1896 16.3407 11.5137 16.5335 10.8377 16.5335ZM20.6188 6.86764C20.2545 6.60373 19.9091 6.35541 19.3999 6.00023V4.32168C19.3999 3.31357 18.5153 2.49635 17.424 2.49635H14.2317C14.1066 2.41269 13.9901 2.33435 13.8596 2.24689C13.1677 1.78029 11.7928 0.657706 10.8377 0.671016C9.88274 0.657706 8.50826 1.78029 7.81588 2.24689C7.68539 2.33435 7.56889 2.41269 7.44375 2.49635H4.25146C3.16019 2.49635 2.27557 3.31357 2.27557 4.32168V6.00023C1.76637 6.35503 1.421 6.60373 1.05669 6.86764C0.820888 7.03836 0.630197 7.25638 0.499047 7.50522C0.367897 7.75406 0.299723 8.02719 0.299683 8.30395L0.299683 8.70895L4.25146 11.3462V4.32168H17.424V11.3462L21.3758 8.70895V8.30395C21.3758 7.74342 21.0967 7.21369 20.6188 6.86764Z" fill="white"/>
</svg>
