<svg width="38" height="39" viewBox="0 0 38 39" fill="none" xmlns="http://www.w3.org/2000/svg">
<path d="M33.5789 0.704834H4.02947C2.96079 0.704834 1.93588 1.12937 1.1802 1.88504C0.424532 2.64071 0 3.66562 0 4.7343L0 34.2837C0 35.3524 0.424532 36.3773 1.1802 37.133C1.93588 37.8887 2.96079 38.3132 4.02947 38.3132H33.5789C34.6476 38.3132 35.6725 37.8887 36.4282 37.133C37.1838 36.3773 37.6084 35.3524 37.6084 34.2837V4.7343C37.6084 3.66562 37.1838 2.64071 36.4282 1.88504C35.6725 1.12937 34.6476 0.704834 33.5789 0.704834ZM32.203 26.5077L30.9438 31.9643C30.8798 32.2417 30.7237 32.4892 30.501 32.6665C30.2783 32.8439 30.002 32.9404 29.7173 32.9406C16.2858 32.9406 5.37262 22.0518 5.37262 8.59587C5.38262 8.31386 5.48286 8.04249 5.65861 7.82171C5.83436 7.60093 6.07633 7.44238 6.34893 7.3694L11.8055 6.1102C11.8986 6.09051 11.9933 6.07955 12.0884 6.07746C12.3319 6.08975 12.5677 6.167 12.7712 6.30118C12.9748 6.43537 13.1387 6.6216 13.246 6.84054L15.7645 12.7168C15.8261 12.8753 15.8605 13.043 15.866 13.213C15.8455 13.5857 15.6798 13.9356 15.4043 14.1876L12.2236 16.79C14.1508 20.8748 17.4384 24.1624 21.5232 26.0896L24.1256 22.9089C24.3776 22.6334 24.7275 22.4677 25.1002 22.4472C25.2702 22.4526 25.4379 22.487 25.5964 22.5487L31.4727 25.0672C31.6917 25.1743 31.878 25.3382 32.0122 25.5418C32.1464 25.7454 32.2236 25.9812 32.2357 26.2248C32.2341 26.3199 32.2231 26.4147 32.203 26.5077Z" fill="white"/>
</svg>
