<svg width="16" height="18" viewBox="0 0 16 18" fill="none" xmlns="http://www.w3.org/2000/svg">
<path d="M15.5437 12.5888L12.0436 11.0373C11.8941 10.9714 11.728 10.9575 11.5701 10.9978C11.4123 11.038 11.2714 11.1301 11.1686 11.2603L9.61861 13.219C7.18598 12.0328 5.22828 10.008 4.08132 7.49194L5.9751 5.88877C6.10126 5.78265 6.19054 5.63691 6.22945 5.47362C6.26836 5.31032 6.25477 5.13836 6.19073 4.98376L4.69071 1.36372C4.62043 1.19707 4.49613 1.061 4.33925 0.978989C4.18236 0.896973 4.00273 0.874146 3.83132 0.914443L0.58126 1.69017C0.415998 1.72964 0.26855 1.82588 0.162983 1.96318C0.0574151 2.10049 -3.80697e-05 2.27075 1.8926e-08 2.44617C1.8926e-08 10.7367 6.49699 17.4435 14.5003 17.4435C14.6699 17.4436 14.8346 17.3842 14.9674 17.275C15.1002 17.1658 15.1933 17.0133 15.2315 16.8423L15.9815 13.4809C16.0202 13.3027 15.9977 13.1162 15.9178 12.9533C15.8379 12.7905 15.7056 12.6616 15.5437 12.5888Z" fill="white"/>
</svg>
