<svg width="19" height="81" viewBox="0 0 19 81" fill="none" xmlns="http://www.w3.org/2000/svg">
<path d="M13.4535 76.2107C13.4559 76.8773 13.4155 77.4502 13.3324 77.9293C13.2553 78.4084 13.1386 78.8118 12.9822 79.1397C12.8197 79.4675 12.6146 79.7319 12.3669 79.9328C12.1191 80.1276 11.8287 80.2771 11.4957 80.3814C11.1628 80.4856 10.7873 80.5566 10.3692 80.5945C9.94509 80.6263 9.47848 80.6432 8.9694 80.645L0.360362 80.676L0.35222 78.4124L8.96125 78.3814C9.4461 78.3796 9.83392 78.3631 10.1247 78.3317C10.4155 78.2943 10.6425 78.2056 10.8056 78.0657C10.9626 77.9196 11.0679 77.7041 11.1214 77.4191C11.1689 77.128 11.1917 76.7279 11.1899 76.2188L13.4535 76.2107ZM3.48673 67.783C4.00652 67.3872 4.53235 66.9853 5.06422 66.5774C5.29391 66.4068 5.53266 66.2272 5.78047 66.0384C6.02826 65.8436 6.2821 65.6487 6.54201 65.4539C6.79583 65.2529 7.04968 65.0581 7.30355 64.8693C7.55742 64.6805 7.79918 64.4978 8.02885 64.3212C8.53053 63.9437 9.07813 63.6962 9.67165 63.5789C9.88364 63.5418 10.0957 63.5229 10.3078 63.5221C10.6896 63.5207 11.0717 63.583 11.4539 63.7089C11.818 63.8288 12.152 64.0064 12.4559 64.2417C12.7597 64.4709 13.0213 64.7518 13.2407 65.0843C13.4601 65.4168 13.6312 65.7981 13.7539 66.2279C13.8767 66.6578 13.939 67.1303 13.9408 67.6454C13.9424 68.0818 13.8986 68.5335 13.8094 69.0005C13.7262 69.4674 13.5643 69.9438 13.3236 70.4295C13.2755 70.5388 13.2274 70.645 13.1793 70.7482C13.1372 70.8393 13.0951 70.9333 13.053 71.0305C13.0049 71.1276 12.9628 71.2096 12.9266 71.2764C13.1045 71.8576 13.2341 72.5026 13.3154 73.2114C13.4028 73.9141 13.448 74.6927 13.4511 75.5472L13.4548 76.5745L11.1912 76.5827L11.1875 75.5554C11.1869 75.3857 11.1894 75.2372 11.195 75.1099C11.1945 74.9766 11.194 74.8493 11.1936 74.7281C11.1932 74.6129 11.1897 74.4978 11.1832 74.3827C11.1768 74.2615 11.1642 74.1282 11.1454 73.9828C10.9642 74.141 10.789 74.2841 10.6197 74.412C10.4444 74.5338 10.263 74.6405 10.0754 74.7321C9.88177 74.8177 9.67899 74.8851 9.46704 74.9343C9.24901 74.9775 9.0097 74.9996 8.74909 75.0005C8.25212 75.0023 7.79421 74.91 7.37536 74.7236C6.95648 74.5312 6.59796 74.2689 6.29979 73.9366C6.00161 73.5983 5.76989 73.2052 5.60464 72.7573C5.43331 72.3033 5.3467 71.8158 5.34483 71.2946C5.34271 70.7067 5.45902 70.1851 5.69375 69.7297C5.92239 69.2682 6.21495 68.8823 6.57141 68.5719C6.92179 68.2555 7.30275 68.0178 7.7143 67.8587C8.12583 67.6936 8.51039 67.6104 8.86796 67.6091C9.15887 67.6081 9.42564 67.6374 9.66828 67.6972C9.9109 67.7508 10.1415 67.8288 10.36 67.931C10.5725 68.0333 10.776 68.1599 10.9705 68.3107C11.165 68.4615 11.3565 68.6305 11.5451 68.8177C11.605 68.6296 11.6619 68.4355 11.7157 68.2353C11.7634 68.0351 11.787 67.8411 11.7863 67.6532C11.7856 67.4653 11.7728 67.2684 11.7478 67.0624C11.7168 66.8565 11.6615 66.6627 11.5821 66.4812C11.4966 66.2936 11.3808 66.1304 11.2349 65.9915C11.0889 65.8466 10.8976 65.7382 10.661 65.6663C10.576 65.6424 10.4881 65.6306 10.3972 65.6309C10.2336 65.6315 10.0247 65.6807 9.77047 65.7786C9.51628 65.8765 9.19268 66.0564 8.79968 66.3185C8.40666 66.5744 7.97447 66.8942 7.50312 67.2777C7.02571 67.6612 6.50601 68.0813 5.94401 68.5378L4.77469 69.4875L3.48673 67.783ZM8.74137 72.8551C8.96561 72.8543 9.16549 72.8202 9.34101 72.7529C9.51044 72.6796 9.66764 72.573 9.81259 72.433C9.95752 72.2871 10.0993 72.1108 10.238 71.9042C10.3705 71.6916 10.5121 71.4457 10.6626 71.1663C10.571 70.9788 10.4673 70.7973 10.3515 70.622C10.2358 70.4467 10.1079 70.2956 9.96808 70.1688C9.82215 70.036 9.66116 69.9305 9.48512 69.8524C9.30908 69.7742 9.115 69.7355 8.90288 69.7363C8.64834 69.7372 8.4243 69.7926 8.23075 69.9024C8.0372 70.0121 7.87708 70.1461 7.75037 70.3041C7.62367 70.4621 7.53034 70.6322 7.47039 70.8142C7.41041 70.9902 7.38068 71.1478 7.38118 71.2872C7.38192 71.4933 7.419 71.6932 7.49243 71.8868C7.56583 72.0745 7.66643 72.2408 7.79423 72.3858C7.91596 72.5308 8.0588 72.6454 8.22274 72.7297C8.38668 72.8139 8.55956 72.8557 8.74137 72.8551ZM13.3975 58.1172C13.3983 58.3475 13.387 58.5748 13.3636 58.7992C13.3401 59.0235 13.3076 59.2509 13.266 59.4813C13.2244 59.7118 13.1738 59.9483 13.114 60.191C13.0482 60.4336 12.9764 60.6884 12.8986 60.9554L12.5752 62.0384L10.3911 61.3917C10.571 60.8638 10.7296 60.3177 10.867 59.7536C11.0043 59.1834 11.0933 58.6467 11.1339 58.1435C11.1455 57.9799 11.151 57.8223 11.1504 57.6707C11.1493 57.3677 11.1149 57.0648 11.0471 56.762C10.9794 56.4532 10.8119 56.2356 10.5448 56.1093C10.4962 56.0852 10.4386 56.0733 10.3719 56.0735C10.3295 56.0737 10.2629 56.0861 10.1721 56.1106C10.0812 56.1352 9.96631 56.1962 9.82726 56.2937L4.89404 59.7024L3.65081 57.7977L4.60313 57.1761C4.60919 57.1761 4.62734 57.1669 4.65758 57.1486C4.68779 57.1243 4.75128 57.0816 4.84803 57.0207C4.94476 56.9537 5.08382 56.8623 5.26523 56.7465C5.44055 56.6246 5.67331 56.4662 5.96352 56.2712C6.25373 56.0762 6.61348 55.8386 7.04278 55.5582C7.466 55.2719 7.97386 54.9306 8.56638 54.5346C9.03193 54.2238 9.51306 54.0312 10.0098 53.9566C10.137 53.938 10.2612 53.9285 10.3824 53.928C10.746 53.9267 11.0948 53.9982 11.4286 54.1425C11.6714 54.2446 11.8962 54.3832 12.1029 54.5582C12.3035 54.7272 12.483 54.9265 12.6414 55.1563C12.9399 55.5855 13.1448 56.103 13.256 56.7086C13.3488 57.2174 13.3959 57.6869 13.3975 58.1172ZM13.357 49.381L13.3651 51.6446L0.256102 51.6918L0.24796 49.4282L13.357 49.381ZM13.3115 36.7288L13.3141 37.4652C13.317 38.2712 12.9652 39.0422 12.2588 39.7781C12.4959 39.9772 12.6937 40.2159 12.8523 40.4941C13.0048 40.7663 13.127 41.0598 13.2191 41.3746C13.3111 41.6895 13.3759 42.0104 13.4134 42.3376C13.451 42.6587 13.4703 42.9677 13.4713 43.2647C13.4722 43.495 13.4578 43.7283 13.4284 43.9648C13.405 44.2013 13.3605 44.4711 13.2949 44.7744C13.2354 45.0716 13.1548 45.4143 13.0532 45.8025C12.9455 46.1908 12.8108 46.6549 12.6491 47.1949L10.474 46.5482C10.6182 46.178 10.7471 45.7957 10.8608 45.4013C10.9685 45.007 11.058 44.6218 11.1294 44.2458C11.1947 43.8698 11.2358 43.5091 11.2528 43.1635C11.2644 43.0241 11.27 42.8907 11.2695 42.7635C11.2688 42.5756 11.253 42.3726 11.2219 42.1546C11.1908 41.9365 11.1264 41.7337 11.0288 41.5462C10.925 41.3526 10.7882 41.2228 10.6183 41.1567C10.5454 41.1267 10.4787 41.1118 10.4181 41.112C10.3636 41.1122 10.297 41.1306 10.2183 41.1672C10.1396 41.1978 10.0459 41.2497 9.93705 41.3228C9.82216 41.3959 9.67401 41.4904 9.49261 41.6062L4.96788 44.8498L3.73375 42.9451L8.64023 39.682C8.90626 39.5053 9.18135 39.3195 9.4655 39.1245C9.74965 38.9295 10.0096 38.7347 10.2452 38.5399C10.4748 38.3451 10.6651 38.1565 10.8159 37.9742C10.9668 37.7918 11.0419 37.6249 11.0414 37.4734L11.0387 36.737L13.3115 36.7288ZM11.0349 33.1466C11.0345 33.0254 11.0675 32.9344 11.1339 32.8736C11.1943 32.8067 11.276 32.773 11.379 32.7727L12.9336 32.7671C13.0669 32.7666 13.161 32.7996 13.2157 32.8661C13.2705 32.9265 13.2981 33.0173 13.2985 33.1385L13.3122 36.9385C13.3127 37.0718 13.2858 37.1658 13.2314 37.2206C13.1771 37.2753 13.0832 37.3029 12.9499 37.3034L11.3953 37.309C11.2923 37.3094 11.2104 37.2824 11.1496 37.2281C11.0827 37.1738 11.0491 37.08 11.0486 36.9466L11.0349 33.1466ZM11.0214 29.3771C11.0209 29.2559 11.0539 29.1649 11.1204 29.1041C11.1807 29.0372 11.2624 29.0035 11.3655 29.0032L12.92 28.9976C13.0533 28.9971 13.1474 29.0301 13.2022 29.0966C13.2569 29.157 13.2845 29.2478 13.285 29.369L13.2986 33.169C13.2991 33.3023 13.2722 33.3963 13.2178 33.4511C13.1635 33.5058 13.0697 33.5334 12.9363 33.5339L11.3818 33.5395C11.2788 33.5399 11.1968 33.5129 11.136 33.4586C11.0692 33.4043 11.0355 33.3104 11.035 33.1771L11.0214 29.3771ZM11.0078 25.6076C11.0074 25.4864 11.0404 25.3954 11.1068 25.3345C11.1672 25.2677 11.2489 25.234 11.3519 25.2337L12.9064 25.2281C13.0398 25.2276 13.1338 25.2606 13.1886 25.3271C13.2434 25.3875 13.271 25.4783 13.2714 25.5995L13.2851 29.3995C13.2856 29.5328 13.2586 29.6268 13.2043 29.6816C13.1499 29.7363 13.0561 29.7639 12.9228 29.7644L11.3682 29.77C11.2652 29.7704 11.1833 29.7434 11.1225 29.6891C11.0556 29.6348 11.0219 29.5409 11.0215 29.4076L11.0078 25.6076ZM5.61151 19.0666C5.65389 19.0543 5.7538 19.0297 5.91124 18.9928C6.06867 18.9498 6.26244 18.9036 6.49257 18.8543C6.71663 18.805 6.96797 18.7556 7.24659 18.7061C7.52518 18.6506 7.80682 18.6011 8.09151 18.5576C8.37012 18.5081 8.64272 18.4708 8.90929 18.4456C9.17585 18.4143 9.40913 18.3984 9.60913 18.3976C10.2334 18.3954 10.7762 18.4965 11.2375 18.7009C11.6928 18.9053 12.0695 19.1736 12.3677 19.5059C12.6658 19.8382 12.8884 20.2131 13.0354 20.6308C13.1823 21.0424 13.2565 21.4573 13.258 21.8754L13.2721 25.7936L11.0085 25.8017L10.9942 21.8199C10.9939 21.7472 10.9845 21.6442 10.9658 21.511C10.941 21.3716 10.883 21.2355 10.7916 21.1025C10.7002 20.9634 10.5634 20.8427 10.3812 20.7403C10.1929 20.638 9.93822 20.5874 9.61701 20.5885C9.48368 20.589 9.32311 20.6017 9.13532 20.6266C8.94145 20.6455 8.73549 20.6735 8.51744 20.7107C8.29939 20.7478 8.07833 20.791 7.85427 20.8403C7.62412 20.8836 7.40912 20.9268 7.20927 20.9699C7.00337 21.0131 6.81867 21.0562 6.65519 21.0992C6.48565 21.1422 6.35546 21.176 6.26464 21.2006L5.61151 19.0666ZM18.197 20.0758L16.6571 21.6087L15.088 20.1052L16.646 18.536L18.197 20.0758ZM18.2198 23.8849L16.6799 25.4177L15.1109 23.9233L16.6689 22.3541L18.2198 23.8849ZM15.8524 15.2626C15.8507 14.7777 15.831 14.3475 15.7932 13.9719C15.7616 13.5902 15.7119 13.254 15.6442 12.9633C15.5825 12.6666 15.4997 12.4093 15.3959 12.1915C15.2982 11.9676 15.1793 11.7741 15.0393 11.6109C14.8323 11.3571 14.5922 11.1671 14.3191 11.0408C14.0459 10.9084 13.6789 10.831 13.2182 10.8084L13.2233 12.2084C13.2243 12.5114 13.2012 12.8206 13.1539 13.1359C13.1065 13.4512 13.0258 13.7546 12.9117 14.0459C12.7915 14.3372 12.638 14.6135 12.451 14.8748C12.2641 15.13 12.0346 15.3551 11.7625 15.55C11.4844 15.7389 11.1577 15.8916 10.7824 16.0081C10.407 16.1185 9.97689 16.1746 9.49205 16.1764C9.07387 16.1779 8.70404 16.1428 8.38257 16.0713C8.05504 15.9997 7.76683 15.9099 7.51796 15.8017C7.26906 15.6874 7.05345 15.5609 6.87113 15.4222C6.68275 15.2834 6.51864 15.1507 6.37879 15.0239C6.01385 14.6616 5.73358 14.2505 5.53798 13.7906C5.33633 13.3307 5.23454 12.8341 5.23262 12.3008C5.23025 11.6402 5.34337 11.0761 5.57199 10.6086C5.79453 10.1351 6.10527 9.74912 6.5042 9.45072C6.9031 9.14625 7.37806 8.92333 7.92907 8.78195C8.47402 8.6406 9.06771 8.56876 9.71013 8.56645L12.9374 8.55484C13.8404 8.55159 14.5985 8.68523 15.2116 8.95576C15.8307 9.22626 16.3625 9.6395 16.8069 10.1955C17.0261 10.4735 17.2151 10.7758 17.3738 11.1025C17.5387 11.4292 17.6763 11.7954 17.7869 12.2011C17.8974 12.6067 17.9779 13.061 18.0282 13.5638C18.0845 14.0606 18.1138 14.6241 18.1161 15.2544L15.8524 15.2626ZM7.49624 12.2926C7.4981 12.8078 7.66017 13.2163 7.98247 13.5182C8.30477 13.82 8.80532 13.9697 9.4841 13.9673C9.75076 13.9663 9.97785 13.914 10.1654 13.8103C10.3528 13.7005 10.5069 13.5636 10.6275 13.3995C10.7421 13.2294 10.8262 13.0413 10.88 12.835C10.9338 12.6287 10.9604 12.4226 10.9596 12.2165L10.9546 10.8165L9.71824 10.821C9.37279 10.8222 9.07895 10.8506 8.83672 10.906C8.58843 10.9614 8.38263 11.0349 8.21933 11.1264C8.056 11.2118 7.92605 11.3123 7.8295 11.4278C7.73292 11.5372 7.66059 11.6466 7.6125 11.7558C7.56438 11.859 7.53444 11.9591 7.52267 12.0562C7.50483 12.1532 7.49603 12.232 7.49624 12.2926ZM12.6278 0.832043C13.4643 0.865398 14.2163 1.01724 14.884 1.28757C15.5577 1.55787 16.1287 1.93158 16.5971 2.40868C17.0716 2.88577 17.4373 3.46324 17.6943 4.14111C17.9512 4.81898 18.0813 5.58518 18.0843 6.43972L18.0884 7.56699L15.8248 7.57513L15.8207 6.44787C15.8186 5.86605 15.7562 5.36324 15.6335 4.93944C15.5107 4.51564 15.3156 4.16785 15.0479 3.89608C14.7803 3.62432 14.431 3.42254 14.0003 3.29076C13.5755 3.15895 13.0571 3.09415 12.445 3.09635L6.90869 3.11627L6.90054 0.852645L12.6278 0.832043Z" fill="white"/>
</svg>
