<svg width="22" height="21" viewBox="0 0 22 21" fill="none" xmlns="http://www.w3.org/2000/svg">
<path d="M6.94949 17.3578C6.94949 18.895 5.60062 20.1411 3.9367 20.1411C2.27277 20.1411 0.92395 18.895 0.92395 17.3578C0.92395 15.8207 2.27282 14.5746 3.93674 14.5746C5.60067 14.5746 6.94949 15.8207 6.94949 17.3578ZM15.2134 19.4113C14.8204 12.6924 8.99476 7.30389 1.71388 6.94043C1.28412 6.91896 0.92395 7.23796 0.92395 7.63553V9.72462C0.92395 10.0903 1.22927 10.397 1.62431 10.4208C6.88542 10.7373 11.1026 14.6234 11.4459 19.494C11.4717 19.859 11.8037 20.141 12.1995 20.141H14.4609C14.8913 20.1411 15.2366 19.8083 15.2134 19.4113ZM21.9995 19.4238C21.6046 9.26198 12.7541 1.03794 1.70033 0.67135C1.27552 0.657269 0.92395 0.974311 0.92395 1.36697V3.45601C0.92395 3.83086 1.2455 4.13595 1.65093 4.15133C10.6449 4.49202 17.8638 11.1621 18.2326 19.4695C18.2492 19.844 18.5794 20.1411 18.9852 20.1411H21.2466C21.6716 20.1411 22.0148 19.8163 21.9995 19.4238Z" fill="white"/>
</svg>
