<svg width="21" height="22" viewBox="0 0 21 22" fill="none" xmlns="http://www.w3.org/2000/svg">
<path d="M10.02 10.6169C13.1826 10.6169 15.7457 8.249 15.7457 5.32741C15.7457 2.40582 13.1826 0.0379639 10.02 0.0379639C6.85745 0.0379639 4.29429 2.40582 4.29429 5.32741C4.29429 8.249 6.85745 10.6169 10.02 10.6169ZM14.028 11.9392H13.281C12.2879 12.3607 11.1831 12.6004 10.02 12.6004C8.85698 12.6004 7.75657 12.3607 6.75904 11.9392H6.01201C2.69288 11.9392 0 14.4269 0 17.4931V19.2122C0 20.3073 0.961743 21.1957 2.14715 21.1957H17.8929C19.0783 21.1957 20.04 20.3073 20.04 19.2122V17.4931C20.04 14.4269 17.3472 11.9392 14.028 11.9392Z" fill="white"/>
</svg>
