<svg width="39" height="39" viewBox="0 0 39 39" fill="none" xmlns="http://www.w3.org/2000/svg">
<path d="M19.5384 8.61679C13.4355 8.61679 8.47419 13.5781 8.46579 19.681C8.46579 21.7713 9.05342 23.8112 10.1615 25.5657L10.4218 25.9855L9.30527 30.0653L13.4942 28.9656L13.8972 29.2091C15.5929 30.2164 17.5405 30.7537 19.53 30.7537H19.5384C25.633 30.7537 30.7286 25.7924 30.7286 19.6894C30.7286 16.7345 29.4526 13.9558 27.3623 11.8656C25.2636 9.76687 22.4934 8.61679 19.5384 8.61679ZM26.0443 24.4325C25.7673 25.2132 24.441 25.9183 23.803 26.0107C22.7452 26.1702 21.9225 26.0862 19.8155 25.1796C16.4828 23.7357 14.3001 20.3778 14.1322 20.1595C13.9643 19.9413 12.7723 18.3547 12.7723 16.7177C12.7723 15.0807 13.6285 14.2748 13.9392 13.939C14.2414 13.6033 14.6023 13.5193 14.829 13.5193C15.0473 13.5193 15.2739 13.5193 15.467 13.5277C15.6685 13.5361 15.9455 13.4522 16.2141 14.0985C16.4911 14.7617 17.1543 16.3987 17.2383 16.5666C17.3222 16.7345 17.381 16.9276 17.2635 17.1458C16.6255 18.4218 15.9455 18.3715 16.2897 18.9591C17.5741 21.1669 18.8585 21.9308 20.8144 22.913C21.1502 23.0809 21.3433 23.0557 21.5364 22.8291C21.7295 22.6108 22.3675 21.8553 22.5857 21.5279C22.804 21.1921 23.0306 21.2509 23.3328 21.36C23.6351 21.4691 25.272 22.275 25.6078 22.4429C25.9436 22.6108 26.1619 22.6947 26.2458 22.8291C26.3214 22.9886 26.3214 23.6601 26.0443 24.4325ZM34.3131 0.994385H4.76372C2.53912 0.994385 0.734253 2.79925 0.734253 5.02385V34.5733C0.734253 36.7979 2.53912 38.6027 4.76372 38.6027H34.3131C36.5377 38.6027 38.3426 36.7979 38.3426 34.5733V5.02385C38.3426 2.79925 36.5377 0.994385 34.3131 0.994385ZM19.53 32.9951C17.297 32.9951 15.106 32.4326 13.1668 31.3749L6.10688 33.2301L7.99569 26.3297C6.82882 24.3149 6.21601 22.0232 6.21601 19.6726C6.2244 12.3357 12.1931 6.36701 19.53 6.36701C23.0894 6.36701 26.4305 7.75214 28.9489 10.2706C31.4589 12.789 32.97 16.1301 32.97 19.6894C32.97 27.0264 26.867 32.9951 19.53 32.9951Z" fill="white"/>
</svg>
