<svg width="223" height="24" viewBox="0 0 223 24" fill="none" xmlns="http://www.w3.org/2000/svg">
<path d="M7.04435 11.2334C7.40798 12.2904 7.82738 13.2673 8.30253 14.1643C8.78253 15.0564 9.2892 15.8249 9.82253 16.4697L8.41889 17.6334C8.12798 17.2794 7.8395 16.8673 7.55344 16.397C7.27223 15.9267 6.99344 15.4055 6.71707 14.8334C6.44071 14.2564 6.1692 13.6334 5.90253 12.9643C5.63586 12.2952 5.37162 11.5849 5.1098 10.8334C4.90616 11.4394 4.68071 12.0625 4.43344 12.7025C4.18616 13.3425 3.9195 13.9655 3.63344 14.5716C3.35223 15.1728 3.05889 15.7376 2.75344 16.2661C2.44798 16.7897 2.13526 17.2407 1.81526 17.6188L0.397074 16.4697C0.654044 16.1691 0.908589 15.8201 1.16071 15.4225C1.41283 15.0249 1.65768 14.6007 1.89526 14.1497C2.13283 13.694 2.35829 13.2188 2.57162 12.7243C2.7898 12.2297 2.99101 11.7328 3.17526 11.2334C3.31101 10.8116 3.44192 10.3873 3.56798 9.96066C3.69404 9.53399 3.80313 9.12187 3.89526 8.72429C3.98738 8.32672 4.0601 7.95338 4.11344 7.60429C4.17162 7.25035 4.20071 6.9352 4.20071 6.65884H6.00435C6.00435 6.9546 6.02859 7.2746 6.07707 7.61884C6.13041 7.96308 6.20071 8.32914 6.28798 8.71702C6.3801 9.1049 6.4892 9.50975 6.61526 9.93157C6.74616 10.3534 6.8892 10.7873 7.04435 11.2334ZM12.3898 15.0588C12.7437 15.0588 13.0177 15.1607 13.2116 15.3643C13.4056 15.5631 13.5025 15.8128 13.5025 16.1134C13.5025 16.4091 13.4056 16.6564 13.2116 16.8552C13.0177 17.0491 12.7437 17.1461 12.3898 17.1461C12.0504 17.1461 11.7813 17.0491 11.5825 16.8552C11.3886 16.6613 11.2916 16.414 11.2916 16.1134C11.2916 15.8128 11.3862 15.5631 11.5753 15.3643C11.7692 15.1607 12.0407 15.0588 12.3898 15.0588ZM12.3898 9.15338C12.7437 9.15338 13.0177 9.2552 13.2116 9.45884C13.4056 9.65763 13.5025 9.90732 13.5025 10.2079C13.5025 10.5037 13.4056 10.751 13.2116 10.9497C13.0177 11.1437 12.7437 11.2407 12.3898 11.2407C12.0504 11.2407 11.7813 11.1437 11.5825 10.9497C11.3886 10.7558 11.2916 10.5085 11.2916 10.2079C11.2916 9.90732 11.3862 9.65763 11.5753 9.45884C11.7692 9.2552 12.0407 9.15338 12.3898 9.15338ZM21.7005 10.3316C21.8363 10.3316 21.9696 10.3316 22.1005 10.3316C22.2314 10.3267 22.3624 10.3194 22.4933 10.3097C22.6242 10.3 22.7599 10.2879 22.9005 10.2734C23.046 10.254 23.2011 10.2297 23.366 10.2007L23.7733 11.837C23.5211 11.9097 23.2787 11.9728 23.046 12.0261C22.8133 12.0746 22.5733 12.1158 22.326 12.1497C22.0787 12.1788 21.8145 12.2031 21.5333 12.2225C21.2569 12.237 20.9442 12.2443 20.5951 12.2443C20.0908 12.2443 19.5769 12.2055 19.0533 12.1279C18.5345 12.0504 18.0399 11.9097 17.5696 11.7061C17.5987 12.0988 17.623 12.4576 17.6424 12.7825C17.6666 13.1073 17.6836 13.4152 17.6933 13.7061C17.703 13.997 17.7102 14.2807 17.7151 14.557C17.7199 14.8334 17.7224 15.1194 17.7224 15.4152C17.7224 15.6188 17.7199 15.8273 17.7151 16.0407C17.7151 16.2491 17.7151 16.477 17.7151 16.7243V17.1752H15.9114V16.717C15.9114 16.0043 15.9066 15.3376 15.8969 14.717C15.8921 14.0964 15.8751 13.5097 15.846 12.957C15.8218 12.4043 15.7854 11.8758 15.7369 11.3716C15.6884 10.8673 15.623 10.3728 15.5405 9.88793C15.4581 9.40308 15.3563 8.92066 15.2351 8.44066C15.1139 7.96066 14.9684 7.46854 14.7987 6.96429L16.5442 6.41156C16.6218 6.66369 16.6921 6.91338 16.7551 7.16066C16.823 7.40793 16.8884 7.66005 16.9514 7.91702C16.9902 8.05763 17.0242 8.20308 17.0533 8.35338C17.0872 8.49884 17.1236 8.64429 17.1624 8.78975C17.2496 9.13399 17.3854 9.4152 17.5696 9.63338C17.7587 9.84672 17.9624 10.0043 18.1805 10.1061C18.1514 10.0334 18.1199 9.95581 18.086 9.87338C18.0521 9.79096 18.0205 9.69884 17.9914 9.59702C17.9672 9.49035 17.9454 9.37399 17.926 9.24793C17.9114 9.12187 17.9042 8.98126 17.9042 8.82611C17.9042 8.3849 17.989 7.99217 18.1587 7.64793C18.3333 7.29884 18.5587 7.0055 18.8351 6.76793C19.1163 6.5255 19.4314 6.34369 19.7805 6.22247C20.1345 6.09641 20.4884 6.03338 20.8424 6.03338C21.1236 6.03338 21.383 6.06732 21.6205 6.1352C21.863 6.19823 22.0884 6.28066 22.2969 6.38247C22.5054 6.48429 22.7018 6.59823 22.886 6.72429C23.0751 6.8455 23.2593 6.96429 23.4387 7.08066L22.5805 8.6152C22.4108 8.49399 22.2508 8.38732 22.1005 8.2952C21.9502 8.19823 21.8048 8.11823 21.6642 8.0552C21.5236 7.99217 21.3854 7.94369 21.2496 7.90975C21.1187 7.87096 20.983 7.84914 20.8424 7.84429H20.7987C20.6727 7.84429 20.5369 7.86611 20.3914 7.90975C20.246 7.95338 20.1102 8.02126 19.9842 8.11338C19.8581 8.2055 19.7514 8.31944 19.6642 8.4552C19.5818 8.58611 19.5405 8.73641 19.5405 8.90611C19.5405 9.18247 19.606 9.41278 19.7369 9.59702C19.8678 9.78126 20.0351 9.92914 20.2387 10.0407C20.4472 10.1473 20.6799 10.2225 20.9369 10.2661C21.1939 10.3097 21.4484 10.3316 21.7005 10.3316ZM28.5908 5.90247C28.6199 5.92672 28.7168 6.00672 28.8817 6.14247C29.0514 6.27338 29.2647 6.45278 29.5217 6.68066C29.7786 6.90369 30.0647 7.17035 30.3799 7.48066C30.695 7.79096 31.015 8.1352 31.3399 8.51338C31.6696 8.88672 31.9871 9.29157 32.2926 9.72793C32.6029 10.1594 32.8793 10.6128 33.1217 11.0879C33.3641 11.5582 33.558 12.0455 33.7035 12.5497C33.8489 13.054 33.9217 13.5655 33.9217 14.0843C33.9217 14.4188 33.8902 14.7194 33.8271 14.9861C33.7641 15.2479 33.6817 15.4807 33.5799 15.6843C33.4829 15.8831 33.3714 16.0552 33.2453 16.2007C33.1241 16.3413 33.0053 16.4601 32.8889 16.557C32.6417 16.7607 32.3653 16.9134 32.0599 17.0152C31.7593 17.117 31.4489 17.1679 31.1289 17.1679C30.8235 17.1679 30.5302 17.1243 30.2489 17.037C29.9677 16.9497 29.7035 16.8067 29.4562 16.6079C29.2235 16.7922 28.9617 16.9352 28.6708 17.037C28.3847 17.134 28.0986 17.1825 27.8126 17.1825C27.5799 17.1825 27.3471 17.1534 27.1144 17.0952C26.8817 17.0419 26.6586 16.9594 26.4453 16.8479C26.2368 16.7364 26.0429 16.5982 25.8635 16.4334C25.6841 16.2685 25.5289 16.077 25.398 15.8588C25.2817 15.6649 25.1896 15.4734 25.1217 15.2843C25.0586 15.0904 25.0102 14.9134 24.9762 14.7534C24.9471 14.5885 24.9277 14.4455 24.918 14.3243C24.9083 14.2031 24.9035 14.1134 24.9035 14.0552C24.9035 13.5994 24.9544 13.1558 25.0562 12.7243C25.1629 12.2928 25.3011 11.8782 25.4708 11.4807C25.6405 11.0782 25.8344 10.6976 26.0526 10.3388C26.2756 9.9752 26.5011 9.63823 26.7289 9.32793C26.9617 9.01278 27.1896 8.72672 27.4126 8.46975C27.6405 8.21278 27.8441 7.98975 28.0235 7.80066L27.4853 7.35702L28.5908 5.90247ZM31.7399 15.1534C31.8708 15.0419 31.9799 14.8988 32.0671 14.7243C32.1593 14.5449 32.2053 14.3316 32.2053 14.0843C32.2053 13.7788 32.1617 13.471 32.0744 13.1607C31.992 12.8455 31.878 12.5352 31.7326 12.2297C31.592 11.9194 31.4247 11.6164 31.2308 11.3207C31.0368 11.0201 30.8308 10.7291 30.6126 10.4479C30.3993 10.1667 30.1786 9.89763 29.9508 9.64066C29.7277 9.37884 29.5096 9.13399 29.2962 8.90611C29.1411 9.08066 28.9665 9.28187 28.7726 9.50975C28.5786 9.73278 28.3823 9.98005 28.1835 10.2516C27.9847 10.5182 27.7908 10.8043 27.6017 11.1097C27.4174 11.4152 27.2526 11.7304 27.1071 12.0552C26.9617 12.3752 26.8429 12.7049 26.7508 13.0443C26.6635 13.3837 26.6199 13.7207 26.6199 14.0552C26.6199 14.2249 26.6465 14.3897 26.6999 14.5497C26.758 14.7049 26.8356 14.8455 26.9326 14.9716C27.0296 15.0976 27.1459 15.1994 27.2817 15.277C27.4174 15.3497 27.5629 15.3861 27.718 15.3861C27.8199 15.3861 27.9314 15.3716 28.0526 15.3425C28.1738 15.3134 28.2853 15.2552 28.3871 15.1679C28.4841 15.0807 28.552 14.9716 28.5908 14.8407C28.6344 14.7097 28.6562 14.5716 28.6562 14.4261C28.6611 14.2758 28.6538 14.1279 28.6344 13.9825C28.615 13.8322 28.5932 13.6964 28.5689 13.5752L30.3289 13.2407C30.3289 13.2455 30.3314 13.2601 30.3362 13.2843C30.3411 13.3085 30.3459 13.3522 30.3508 13.4152C30.3605 13.4782 30.3677 13.5631 30.3726 13.6697C30.3823 13.7764 30.392 13.917 30.4017 14.0916V14.2079C30.4017 14.2904 30.3968 14.3873 30.3871 14.4988C30.3823 14.6055 30.3677 14.7219 30.3435 14.8479C30.4162 15.0322 30.5253 15.1631 30.6708 15.2407C30.8211 15.3182 30.9762 15.357 31.1362 15.357C31.2429 15.357 31.3471 15.34 31.4489 15.3061C31.5556 15.2722 31.6526 15.2213 31.7399 15.1534ZM39.0999 12.9861H34.998V11.4588H39.0999V12.9861ZM46.4014 17.1607C46.4014 17.0782 46.4014 16.9813 46.4014 16.8697C46.4014 16.7582 46.4014 16.6419 46.4014 16.5207C46.4014 16.3994 46.4014 16.2807 46.4014 16.1643C46.4063 16.0479 46.4111 15.9413 46.416 15.8443V15.8516C46.4208 15.6188 46.4233 15.3788 46.4233 15.1316C46.4281 14.8794 46.4305 14.6152 46.4305 14.3388C46.4305 13.8055 46.4233 13.2528 46.4087 12.6807C46.399 12.1085 46.3651 11.5146 46.3069 10.8988C46.2487 10.2782 46.159 9.63823 46.0378 8.97884C45.9166 8.3146 45.7445 7.62611 45.5214 6.91338L47.216 6.36066C47.4633 7.15096 47.6548 7.90975 47.7905 8.63702C47.9311 9.35944 48.033 10.0528 48.096 10.717C48.1639 11.3764 48.2051 12.0091 48.2196 12.6152C48.2342 13.2213 48.2414 13.8031 48.2414 14.3607C48.2414 14.637 48.239 14.9037 48.2342 15.1607C48.2342 15.4128 48.2318 15.6552 48.2269 15.8879C48.2221 15.9849 48.2172 16.0916 48.2124 16.2079C48.2124 16.3194 48.2124 16.4334 48.2124 16.5497C48.2124 16.6661 48.2124 16.7776 48.2124 16.8843C48.2124 16.991 48.2124 17.0831 48.2124 17.1607H46.4014ZM56.4818 10.3316C56.6175 10.3316 56.7509 10.3316 56.8818 10.3316C57.0127 10.3267 57.1436 10.3194 57.2745 10.3097C57.4054 10.3 57.5412 10.2879 57.6818 10.2734C57.8272 10.254 57.9824 10.2297 58.1472 10.2007L58.5545 11.837C58.3024 11.9097 58.06 11.9728 57.8272 12.0261C57.5945 12.0746 57.3545 12.1158 57.1072 12.1497C56.86 12.1788 56.5957 12.2031 56.3145 12.2225C56.0382 12.237 55.7254 12.2443 55.3763 12.2443C54.8721 12.2443 54.3582 12.2055 53.8345 12.1279C53.3157 12.0504 52.8212 11.9097 52.3509 11.7061C52.38 12.0988 52.4042 12.4576 52.4236 12.7825C52.4479 13.1073 52.4648 13.4152 52.4745 13.7061C52.4842 13.997 52.4915 14.2807 52.4963 14.557C52.5012 14.8334 52.5036 15.1194 52.5036 15.4152C52.5036 15.6188 52.5012 15.8273 52.4963 16.0407C52.4963 16.2491 52.4963 16.477 52.4963 16.7243V17.1752H50.6927V16.717C50.6927 16.0043 50.6879 15.3376 50.6782 14.717C50.6733 14.0964 50.6563 13.5097 50.6272 12.957C50.603 12.4043 50.5666 11.8758 50.5182 11.3716C50.4697 10.8673 50.4042 10.3728 50.3218 9.88793C50.2394 9.40308 50.1375 8.92066 50.0163 8.44066C49.8951 7.96066 49.7497 7.46854 49.58 6.96429L51.3254 6.41156C51.403 6.66369 51.4733 6.91338 51.5363 7.16066C51.6042 7.40793 51.6697 7.66005 51.7327 7.91702C51.7715 8.05763 51.8054 8.20308 51.8345 8.35338C51.8685 8.49884 51.9048 8.64429 51.9436 8.78975C52.0309 9.13399 52.1666 9.4152 52.3509 9.63338C52.54 9.84672 52.7436 10.0043 52.9618 10.1061C52.9327 10.0334 52.9012 9.95581 52.8672 9.87338C52.8333 9.79096 52.8018 9.69884 52.7727 9.59702C52.7485 9.49035 52.7266 9.37399 52.7072 9.24793C52.6927 9.12187 52.6854 8.98126 52.6854 8.82611C52.6854 8.3849 52.7703 7.99217 52.94 7.64793C53.1145 7.29884 53.34 7.0055 53.6163 6.76793C53.8975 6.5255 54.2127 6.34369 54.5618 6.22247C54.9157 6.09641 55.2697 6.03338 55.6236 6.03338C55.9048 6.03338 56.1642 6.06732 56.4018 6.1352C56.6442 6.19823 56.8697 6.28066 57.0782 6.38247C57.2866 6.48429 57.483 6.59823 57.6672 6.72429C57.8563 6.8455 58.0406 6.96429 58.22 7.08066L57.3618 8.6152C57.1921 8.49399 57.0321 8.38732 56.8818 8.2952C56.7315 8.19823 56.586 8.11823 56.4454 8.0552C56.3048 7.99217 56.1666 7.94369 56.0309 7.90975C55.9 7.87096 55.7642 7.84914 55.6236 7.84429H55.58C55.4539 7.84429 55.3182 7.86611 55.1727 7.90975C55.0272 7.95338 54.8915 8.02126 54.7654 8.11338C54.6394 8.2055 54.5327 8.31944 54.4454 8.4552C54.363 8.58611 54.3218 8.73641 54.3218 8.90611C54.3218 9.18247 54.3872 9.41278 54.5182 9.59702C54.6491 9.78126 54.8163 9.92914 55.02 10.0407C55.2285 10.1473 55.4612 10.2225 55.7182 10.2661C55.9751 10.3097 56.2297 10.3316 56.4818 10.3316ZM63.1829 15.8879C62.7757 15.8879 62.3926 15.8104 62.0338 15.6552C61.675 15.4952 61.3623 15.2819 61.0957 15.0152C60.829 14.7437 60.6181 14.4285 60.4629 14.0697C60.3078 13.7061 60.2302 13.3207 60.2302 12.9134C60.2302 12.5061 60.3078 12.1231 60.4629 11.7643C60.6181 11.4055 60.829 11.0928 61.0957 10.8261C61.3623 10.5594 61.675 10.3485 62.0338 10.1934C62.3926 10.0382 62.7757 9.96066 63.1829 9.96066C63.5902 9.96066 63.9732 10.0382 64.332 10.1934C64.6957 10.3485 65.0108 10.5594 65.2775 10.8261C65.549 11.0928 65.7623 11.4055 65.9175 11.7643C66.0775 12.1231 66.1575 12.5061 66.1575 12.9134C66.1575 13.3207 66.0775 13.7061 65.9175 14.0697C65.7623 14.4285 65.549 14.7437 65.2775 15.0152C65.0108 15.2819 64.6957 15.4952 64.332 15.6552C63.9732 15.8104 63.5902 15.8879 63.1829 15.8879ZM63.1829 11.7207C63.0181 11.7207 62.8629 11.7522 62.7175 11.8152C62.5769 11.8782 62.4532 11.9631 62.3466 12.0697C62.2399 12.1764 62.155 12.3025 62.092 12.4479C62.029 12.5934 61.9975 12.7485 61.9975 12.9134C61.9975 13.0782 62.029 13.2358 62.092 13.3861C62.155 13.5316 62.2399 13.66 62.3466 13.7716C62.4532 13.8782 62.5769 13.9631 62.7175 14.0261C62.8629 14.0891 63.0181 14.1207 63.1829 14.1207C63.3478 14.1207 63.5029 14.0891 63.6484 14.0261C63.7987 13.9631 63.9272 13.8782 64.0338 13.7716C64.1454 13.66 64.2326 13.5316 64.2957 13.3861C64.3635 13.2358 64.3975 13.0782 64.3975 12.9134C64.3975 12.7485 64.3635 12.5934 64.2957 12.4479C64.2326 12.3025 64.1454 12.1764 64.0338 12.0697C63.9272 11.9631 63.7987 11.8782 63.6484 11.8152C63.5029 11.7522 63.3478 11.7207 63.1829 11.7207ZM68.7452 17.1607C68.7452 17.0782 68.7452 16.9813 68.7452 16.8697C68.7452 16.7582 68.7452 16.6419 68.7452 16.5207C68.7452 16.3994 68.7452 16.2807 68.7452 16.1643C68.75 16.0479 68.7549 15.9413 68.7597 15.8443V15.8516C68.7646 15.6188 68.767 15.3788 68.767 15.1316C68.7719 14.8794 68.7743 14.6152 68.7743 14.3388C68.7743 13.8055 68.767 13.2528 68.7525 12.6807C68.7428 12.1085 68.7088 11.5146 68.6507 10.8988C68.5925 10.2782 68.5028 9.63823 68.3816 8.97884C68.2604 8.3146 68.0882 7.62611 67.8652 6.91338L69.5597 6.36066C69.807 7.15096 69.9985 7.90975 70.1343 8.63702C70.2749 9.35944 70.3767 10.0528 70.4397 10.717C70.5076 11.3764 70.5488 12.0091 70.5634 12.6152C70.5779 13.2213 70.5852 13.8031 70.5852 14.3607C70.5852 14.637 70.5828 14.9037 70.5779 15.1607C70.5779 15.4128 70.5755 15.6552 70.5707 15.8879C70.5658 15.9849 70.561 16.0916 70.5561 16.2079C70.5561 16.3194 70.5561 16.4334 70.5561 16.5497C70.5561 16.6661 70.5561 16.7776 70.5561 16.8843C70.5561 16.991 70.5561 17.0831 70.5561 17.1607H68.7452ZM81.7862 21.0807C81.3983 21.0807 81.025 21.0346 80.6662 20.9425C80.3074 20.8504 79.968 20.7194 79.648 20.5497C79.3329 20.3801 79.0396 20.1716 78.768 19.9243C78.5014 19.677 78.2686 19.3982 78.0699 19.0879C77.8371 18.7097 77.6577 18.2879 77.5317 17.8225C77.4056 17.3619 77.3426 16.8794 77.3426 16.3752C77.3426 16.0552 77.362 15.7449 77.4008 15.4443C77.4396 15.1437 77.5002 14.8358 77.5826 14.5207C77.6699 14.2055 77.7814 13.8758 77.9171 13.5316C78.0577 13.1873 78.2274 12.8091 78.4262 12.397L80.0626 13.1752C79.888 13.5291 79.7426 13.8467 79.6262 14.1279C79.5099 14.4091 79.4153 14.6758 79.3426 14.9279C79.2699 15.1752 79.2165 15.4152 79.1826 15.6479C79.1535 15.8758 79.1389 16.1158 79.1389 16.3679C79.1389 16.6976 79.1802 17.0128 79.2626 17.3134C79.345 17.6188 79.4589 17.8928 79.6044 18.1352C79.8371 18.4794 80.1426 18.7534 80.5208 18.957C80.9038 19.1655 81.3256 19.2697 81.7862 19.2697H83.2626C83.7765 19.2697 84.1935 19.2164 84.5135 19.1097C84.8383 19.0031 85.0905 18.8504 85.2699 18.6516C85.4493 18.4576 85.5705 18.2225 85.6335 17.9461C85.7014 17.6697 85.7353 17.3643 85.7353 17.0297V12.1352H87.5462V17.0297C87.5462 18.3825 87.1874 19.3958 86.4699 20.0697C85.7571 20.7437 84.688 21.0807 83.2626 21.0807H81.7862ZM81.6408 11.5679L82.9499 10.2443L84.288 11.5825L82.9644 12.9061L81.6408 11.5679ZM93.2159 17.1679C92.6826 17.1679 92.2244 17.134 91.8414 17.0661C91.4584 17.0031 91.1359 16.9085 90.8741 16.7825C90.6123 16.6516 90.4014 16.4867 90.2414 16.2879C90.0862 16.0891 89.9675 15.8564 89.885 15.5897C89.8026 15.3231 89.7468 15.0225 89.7178 14.6879C89.6935 14.3485 89.6814 13.9752 89.6814 13.5679V6.68066H91.4923V13.5679C91.4923 13.9558 91.5044 14.2661 91.5287 14.4988C91.5578 14.7316 91.6281 14.9134 91.7396 15.0443C91.8559 15.1704 92.0281 15.2552 92.2559 15.2988C92.4887 15.3376 92.8087 15.357 93.2159 15.357V17.1679ZM97.1285 11.0588C97.1382 11.0928 97.1576 11.1728 97.1867 11.2988C97.2206 11.4249 97.257 11.58 97.2958 11.7643C97.3346 11.9437 97.3733 12.1449 97.4121 12.3679C97.4558 12.591 97.4946 12.8164 97.5285 13.0443C97.5673 13.2673 97.5964 13.4855 97.6158 13.6988C97.64 13.9122 97.6521 14.0988 97.6521 14.2588C97.6521 14.7582 97.5697 15.1922 97.4049 15.5607C97.24 15.9243 97.0243 16.2249 96.7576 16.4625C96.4909 16.7001 96.1903 16.877 95.8558 16.9934C95.5261 17.1097 95.1939 17.1679 94.8594 17.1679H92.9249V15.357H94.9103C94.9685 15.357 95.0509 15.3497 95.1576 15.3352C95.2691 15.3158 95.3782 15.2697 95.4849 15.197C95.5964 15.1243 95.6933 15.0152 95.7758 14.8697C95.8582 14.7194 95.8994 14.5158 95.8994 14.2588C95.8994 14.1522 95.8897 14.0237 95.8703 13.8734C95.8558 13.7182 95.8339 13.5534 95.8049 13.3788C95.7758 13.2043 95.7418 13.0273 95.703 12.8479C95.6691 12.6637 95.6352 12.4916 95.6012 12.3316C95.5673 12.1667 95.5333 12.0188 95.4994 11.8879C95.4655 11.7522 95.4388 11.6479 95.4194 11.5752L97.1285 11.0588ZM93.9503 19.6988L95.2594 18.3752L96.5976 19.7134L95.2739 21.037L93.9503 19.6988ZM102.649 17.1679H100.838V7.74975H102.649V17.1679ZM104.751 6.70247H101.187C100.901 6.70247 100.659 6.71217 100.46 6.73157C100.266 6.74611 100.099 6.78975 99.958 6.86247C99.8222 6.93035 99.7083 7.03217 99.6162 7.16793C99.5289 7.29884 99.4489 7.48066 99.3762 7.71338L98.0234 7.31338C98.1495 6.87702 98.3216 6.52066 98.5398 6.24429C98.758 5.96793 99.0198 5.75217 99.3253 5.59702C99.5871 5.47096 99.8707 5.38853 100.176 5.34975C100.482 5.30611 100.819 5.28429 101.187 5.28429H104.751V6.70247ZM117.173 6.40429C117.188 6.44793 117.219 6.55217 117.268 6.71702C117.316 6.88187 117.365 7.08066 117.413 7.31338C117.462 7.54126 117.505 7.78854 117.544 8.0552C117.583 8.31702 117.602 8.56914 117.602 8.81157C117.602 9.31096 117.52 9.7449 117.355 10.1134C117.19 10.4819 116.977 10.7873 116.715 11.0297C116.453 11.2673 116.155 11.4443 115.82 11.5607C115.491 11.677 115.158 11.7352 114.824 11.7352C114.494 11.7352 114.191 11.6964 113.915 11.6188C113.643 11.5364 113.389 11.4273 113.151 11.2916C113.195 11.7134 113.229 12.1328 113.253 12.5497C113.277 12.9667 113.294 13.4079 113.304 13.8734C113.314 14.334 113.318 14.8334 113.318 15.3716C113.323 15.9097 113.323 16.511 113.318 17.1752H111.529V15.4152C111.529 14.8431 111.52 14.2394 111.5 13.6043C111.486 12.9643 111.442 12.2928 111.369 11.5897C111.297 10.8867 111.185 10.1497 111.035 9.37884C110.885 8.60793 110.676 7.80308 110.409 6.96429L112.133 6.41156L112.431 7.29884C112.455 7.37156 112.494 7.48793 112.548 7.64793C112.606 7.80308 112.681 7.98005 112.773 8.17884C112.865 8.37278 112.974 8.57399 113.1 8.78247C113.231 8.98611 113.382 9.1752 113.551 9.34975C113.721 9.51944 113.91 9.66005 114.118 9.77156C114.332 9.87823 114.567 9.93157 114.824 9.93157C114.882 9.93157 114.965 9.92187 115.071 9.90247C115.183 9.88308 115.292 9.83702 115.398 9.76429C115.51 9.68672 115.607 9.57278 115.689 9.42247C115.772 9.27217 115.813 9.06853 115.813 8.81157C115.813 8.66126 115.801 8.49884 115.777 8.32429C115.752 8.1449 115.721 7.97278 115.682 7.80793C115.648 7.63823 115.609 7.48066 115.566 7.3352C115.527 7.1849 115.491 7.05884 115.457 6.95702L117.173 6.40429ZM122.325 5.90247C122.354 5.92672 122.451 6.00672 122.616 6.14247C122.786 6.27338 122.999 6.45278 123.256 6.68066C123.513 6.90369 123.799 7.17035 124.114 7.48066C124.429 7.79096 124.749 8.1352 125.074 8.51338C125.404 8.88672 125.722 9.29157 126.027 9.72793C126.337 10.1594 126.614 10.6128 126.856 11.0879C127.098 11.5582 127.292 12.0455 127.438 12.5497C127.583 13.054 127.656 13.5655 127.656 14.0843C127.656 14.4188 127.625 14.7194 127.562 14.9861C127.498 15.2479 127.416 15.4807 127.314 15.6843C127.217 15.8831 127.106 16.0552 126.98 16.2007C126.858 16.3413 126.74 16.4601 126.623 16.557C126.376 16.7607 126.1 16.9134 125.794 17.0152C125.494 17.117 125.183 17.1679 124.863 17.1679C124.558 17.1679 124.265 17.1243 123.983 17.037C123.702 16.9497 123.438 16.8067 123.191 16.6079C122.958 16.7922 122.696 16.9352 122.405 17.037C122.119 17.134 121.833 17.1825 121.547 17.1825C121.314 17.1825 121.082 17.1534 120.849 17.0952C120.616 17.0419 120.393 16.9594 120.18 16.8479C119.971 16.7364 119.777 16.5982 119.598 16.4334C119.418 16.2685 119.263 16.077 119.132 15.8588C119.016 15.6649 118.924 15.4734 118.856 15.2843C118.793 15.0904 118.745 14.9134 118.711 14.7534C118.682 14.5885 118.662 14.4455 118.652 14.3243C118.643 14.2031 118.638 14.1134 118.638 14.0552C118.638 13.5994 118.689 13.1558 118.791 12.7243C118.897 12.2928 119.035 11.8782 119.205 11.4807C119.375 11.0782 119.569 10.6976 119.787 10.3388C120.01 9.9752 120.235 9.63823 120.463 9.32793C120.696 9.01278 120.924 8.72672 121.147 8.46975C121.375 8.21278 121.578 7.98975 121.758 7.80066L121.22 7.35702L122.325 5.90247ZM125.474 15.1534C125.605 15.0419 125.714 14.8988 125.802 14.7243C125.894 14.5449 125.94 14.3316 125.94 14.0843C125.94 13.7788 125.896 13.471 125.809 13.1607C125.726 12.8455 125.612 12.5352 125.467 12.2297C125.326 11.9194 125.159 11.6164 124.965 11.3207C124.771 11.0201 124.565 10.7291 124.347 10.4479C124.134 10.1667 123.913 9.89763 123.685 9.64066C123.462 9.37884 123.244 9.13399 123.031 8.90611C122.875 9.08066 122.701 9.28187 122.507 9.50975C122.313 9.73278 122.117 9.98005 121.918 10.2516C121.719 10.5182 121.525 10.8043 121.336 11.1097C121.152 11.4152 120.987 11.7304 120.842 12.0552C120.696 12.3752 120.577 12.7049 120.485 13.0443C120.398 13.3837 120.354 13.7207 120.354 14.0552C120.354 14.2249 120.381 14.3897 120.434 14.5497C120.492 14.7049 120.57 14.8455 120.667 14.9716C120.764 15.0976 120.88 15.1994 121.016 15.277C121.152 15.3497 121.297 15.3861 121.452 15.3861C121.554 15.3861 121.666 15.3716 121.787 15.3425C121.908 15.3134 122.02 15.2552 122.122 15.1679C122.218 15.0807 122.286 14.9716 122.325 14.8407C122.369 14.7097 122.391 14.5716 122.391 14.4261C122.395 14.2758 122.388 14.1279 122.369 13.9825C122.349 13.8322 122.328 13.6964 122.303 13.5752L124.063 13.2407C124.063 13.2455 124.066 13.2601 124.071 13.2843C124.075 13.3085 124.08 13.3522 124.085 13.4152C124.095 13.4782 124.102 13.5631 124.107 13.6697C124.117 13.7764 124.126 13.917 124.136 14.0916V14.2079C124.136 14.2904 124.131 14.3873 124.122 14.4988C124.117 14.6055 124.102 14.7219 124.078 14.8479C124.151 15.0322 124.26 15.1631 124.405 15.2407C124.555 15.3182 124.711 15.357 124.871 15.357C124.977 15.357 125.082 15.34 125.183 15.3061C125.29 15.2722 125.387 15.2213 125.474 15.1534ZM142.537 17.1679H142.333C141.955 17.1679 141.591 17.1316 141.242 17.0588C140.893 16.991 140.571 16.8867 140.275 16.7461C139.979 16.6007 139.715 16.4164 139.482 16.1934C139.254 15.9704 139.068 15.7061 138.922 15.4007C138.806 15.5801 138.656 15.7401 138.471 15.8807C138.292 16.0164 138.096 16.1304 137.882 16.2225C137.669 16.3146 137.448 16.3849 137.22 16.4334C136.992 16.477 136.774 16.4988 136.566 16.4988C136.178 16.4988 135.809 16.431 135.46 16.2952C135.116 16.1594 134.813 15.9679 134.551 15.7207C134.289 15.4685 134.081 15.1631 133.926 14.8043C133.776 14.4455 133.7 14.0407 133.7 13.5897C133.7 13.0661 133.8 12.6055 133.999 12.2079C134.197 11.8104 134.462 11.4637 134.791 11.1679C135.121 10.8673 135.499 10.6128 135.926 10.4043C136.357 10.191 136.803 10.0067 137.264 9.85156L137.089 9.15338L138.864 8.73884L140.188 13.8879C140.265 14.2031 140.391 14.4576 140.566 14.6516C140.74 14.8407 140.929 14.9885 141.133 15.0952C141.342 15.197 141.552 15.2673 141.766 15.3061C141.984 15.34 142.173 15.357 142.333 15.357H142.537V17.1679ZM138.057 13.5534C138.081 13.4516 138.093 13.3473 138.093 13.2407C138.093 13.2067 138.088 13.1485 138.079 13.0661C138.074 12.9788 138.054 12.8576 138.02 12.7025C137.986 12.5473 137.94 12.3801 137.882 12.2007C137.829 12.0213 137.771 11.8201 137.708 11.597C136.932 11.8443 136.343 12.1255 135.94 12.4407C135.543 12.751 135.344 13.1364 135.344 13.597C135.344 13.7764 135.383 13.9364 135.46 14.077C135.543 14.2176 135.647 14.334 135.773 14.4261C135.904 14.5182 136.049 14.5837 136.209 14.6225C136.311 14.6516 136.413 14.6661 136.515 14.6661C136.568 14.6661 136.624 14.6613 136.682 14.6516C137.046 14.5982 137.349 14.4916 137.591 14.3316C137.834 14.1667 137.989 13.9073 138.057 13.5534ZM148.224 15.357V17.1679H147.766C147.354 17.1679 146.978 17.1122 146.638 17.0007C146.299 16.8891 146.013 16.7243 145.78 16.5061C145.509 16.734 145.186 16.9013 144.813 17.0079C144.444 17.1146 144.023 17.1679 143.548 17.1679H142.26V15.357H143.548C143.843 15.357 144.078 15.3304 144.253 15.277C144.432 15.2188 144.566 15.1485 144.653 15.0661C144.745 14.9837 144.803 14.8916 144.828 14.7897C144.857 14.6879 144.871 14.5885 144.871 14.4916V12.1352H146.675V14.4407C146.675 14.6588 146.723 14.831 146.82 14.957C146.917 15.0782 147.026 15.1704 147.148 15.2334C147.274 15.2916 147.397 15.3279 147.518 15.3425C147.64 15.3522 147.722 15.357 147.766 15.357H148.224ZM143.809 19.7788L145.118 18.4552L146.457 19.7934L145.133 21.117L143.809 19.7788ZM153.911 15.357V17.1679H153.453C153.041 17.1679 152.665 17.1122 152.326 17.0007C151.987 16.8891 151.7 16.7243 151.468 16.5061C151.196 16.734 150.874 16.9013 150.5 17.0079C150.132 17.1146 149.71 17.1679 149.235 17.1679H147.948V15.357H149.235C149.531 15.357 149.766 15.3304 149.94 15.277C150.12 15.2188 150.253 15.1485 150.34 15.0661C150.433 14.9837 150.491 14.8916 150.515 14.7897C150.544 14.6879 150.559 14.5885 150.559 14.4916V12.1352H152.362V14.4407C152.362 14.6588 152.411 14.831 152.508 14.957C152.605 15.0782 152.714 15.1704 152.835 15.2334C152.961 15.2916 153.085 15.3279 153.206 15.3425C153.327 15.3522 153.41 15.357 153.453 15.357H153.911ZM149.722 8.78975L151.031 7.46611L152.37 8.80429L151.046 10.1279L149.722 8.78975ZM159.264 17.1534C158.377 17.1534 157.674 16.9231 157.155 16.4625C156.889 16.7097 156.593 16.8891 156.268 17.0007C155.943 17.1122 155.609 17.1679 155.264 17.1679H153.628V15.357H155.264C155.323 15.357 155.405 15.3473 155.512 15.3279C155.623 15.3085 155.732 15.2625 155.839 15.1897C155.95 15.1122 156.047 15.0007 156.13 14.8552C156.212 14.7049 156.253 14.4988 156.253 14.237V12.1425H158.064V14.2079C158.064 14.6055 158.156 14.8964 158.341 15.0807C158.53 15.26 158.838 15.3497 159.264 15.3497C159.323 15.3497 159.405 15.34 159.512 15.3207C159.623 15.2964 159.732 15.2455 159.839 15.1679C159.95 15.0904 160.047 14.9764 160.13 14.8261C160.212 14.671 160.253 14.4649 160.253 14.2079V12.1425H162.057V14.2079C162.057 14.6055 162.152 14.8988 162.341 15.0879C162.535 15.2722 162.847 15.3643 163.279 15.3643C163.342 15.3643 163.427 15.3522 163.533 15.3279C163.645 15.2988 163.754 15.2455 163.861 15.1679C163.967 15.0855 164.059 14.9691 164.137 14.8188C164.215 14.6685 164.253 14.4649 164.253 14.2079C164.253 14.1013 164.244 13.9728 164.224 13.8225C164.21 13.6722 164.188 13.5146 164.159 13.3497C164.135 13.18 164.106 13.0104 164.072 12.8407C164.038 12.6661 164.004 12.5013 163.97 12.3461C163.936 12.191 163.902 12.0504 163.868 11.9243C163.839 11.7982 163.815 11.6988 163.795 11.6261L165.504 11.0661C165.514 11.1 165.533 11.1776 165.563 11.2988C165.592 11.42 165.626 11.5704 165.664 11.7497C165.708 11.9291 165.752 12.1279 165.795 12.3461C165.839 12.5643 165.878 12.7849 165.912 13.0079C165.95 13.2261 165.982 13.4419 166.006 13.6552C166.03 13.8637 166.043 14.0479 166.043 14.2079C166.043 14.7025 165.96 15.1364 165.795 15.5097C165.635 15.8782 165.424 16.1861 165.163 16.4334C164.901 16.6758 164.605 16.8576 164.275 16.9788C163.946 17.1001 163.613 17.1631 163.279 17.1679C162.377 17.1679 161.664 16.9304 161.141 16.4552C160.874 16.7025 160.578 16.8819 160.253 16.9934C159.933 17.1001 159.604 17.1534 159.264 17.1534ZM160.908 8.92793L159.672 10.1788L158.435 8.94247L159.672 7.69157L160.908 8.92793ZM164.028 8.89884L162.806 10.1352L161.533 8.91338L162.784 7.66247L164.028 8.89884ZM162.421 6.84793L161.257 8.01157L160.108 6.86247L161.272 5.69884L162.421 6.84793ZM170.802 16.7243C170.773 17.3934 170.649 17.9946 170.431 18.5279C170.213 19.0661 169.912 19.5219 169.529 19.8952C169.146 20.2734 168.683 20.5643 168.14 20.7679C167.597 20.9716 166.984 21.0734 166.3 21.0734H165.398V19.2625H166.3C166.766 19.2625 167.168 19.214 167.508 19.117C167.847 19.02 168.126 18.8649 168.344 18.6516C168.562 18.4382 168.724 18.1594 168.831 17.8152C168.938 17.4758 168.991 17.0613 168.991 16.5716V12.1425H170.802V16.7243ZM176.169 17.1679C175.636 17.1679 175.178 17.134 174.795 17.0661C174.411 17.0031 174.089 16.9085 173.827 16.7825C173.565 16.6516 173.355 16.4867 173.195 16.2879C173.039 16.0891 172.921 15.8564 172.838 15.5897C172.756 15.3231 172.7 15.0225 172.671 14.6879C172.647 14.3485 172.635 13.9752 172.635 13.5679V6.68066H174.445V13.5679C174.445 13.9558 174.458 14.2661 174.482 14.4988C174.511 14.7316 174.581 14.9134 174.693 15.0443C174.809 15.1704 174.981 15.2552 175.209 15.2988C175.442 15.3376 175.762 15.357 176.169 15.357V17.1679ZM180.591 10.8334C181.042 10.8334 181.446 10.894 181.805 11.0152C182.164 11.1316 182.467 11.3061 182.714 11.5388C182.962 11.7716 183.151 12.0601 183.282 12.4043C183.417 12.7437 183.485 13.1388 183.485 13.5897V13.6334C183.485 13.8613 183.444 14.1085 183.362 14.3752C183.284 14.6419 183.131 14.911 182.903 15.1825C182.68 15.454 182.368 15.7134 181.965 15.9607C181.568 16.2079 181.054 16.4261 180.423 16.6152H180.431C180.246 16.6782 180.048 16.7316 179.834 16.7752C179.621 16.8188 179.42 16.8576 179.231 16.8916C179.303 17.1194 179.434 17.357 179.623 17.6043C179.813 17.8564 180.031 18.0964 180.278 18.3243C180.525 18.5522 180.787 18.7558 181.063 18.9352C181.34 19.1194 181.606 19.2576 181.863 19.3497C181.674 19.0394 181.563 18.7243 181.529 18.4043C181.514 18.3025 181.507 18.2007 181.507 18.0988C181.507 17.8855 181.541 17.6504 181.609 17.3934C181.677 17.1413 181.803 16.8843 181.987 16.6225C182.176 16.3607 182.397 16.1328 182.649 15.9388C182.906 15.7449 183.192 15.5946 183.507 15.4879C183.779 15.4007 184.06 15.357 184.351 15.357H185.471V17.1679H184.416C184.188 17.1776 183.992 17.2261 183.827 17.3134C183.662 17.4007 183.526 17.5122 183.42 17.6479C183.313 17.7837 183.24 17.9388 183.202 18.1134C183.177 18.2201 183.165 18.3291 183.165 18.4407C183.165 18.5085 183.173 18.6055 183.187 18.7316C183.206 18.8625 183.262 19.0176 183.354 19.197C183.451 19.3813 183.585 19.551 183.754 19.7061L183.158 21.1752C182.489 21.1752 181.846 21.0758 181.231 20.877C180.615 20.6831 180.055 20.4067 179.551 20.0479C179.051 19.694 178.622 19.2673 178.263 18.7679C177.909 18.2685 177.66 17.7182 177.514 17.117C177.238 17.1364 176.964 17.1485 176.693 17.1534C176.421 17.1631 176.162 17.1679 175.914 17.1679V15.357C176.118 15.357 176.343 15.3546 176.591 15.3497C176.838 15.3449 177.122 15.3304 177.442 15.3061C177.456 15.0297 177.476 14.7776 177.5 14.5497C177.529 14.3219 177.56 14.1085 177.594 13.9097C177.633 13.711 177.677 13.5243 177.725 13.3497C177.774 13.1752 177.829 13.0031 177.893 12.8334C178.053 12.4407 178.242 12.1158 178.46 11.8588C178.678 11.597 178.908 11.391 179.151 11.2407C179.393 11.0904 179.638 10.9861 179.885 10.9279C180.137 10.8649 180.373 10.8334 180.591 10.8334ZM180.591 12.637C180.445 12.637 180.29 12.6661 180.125 12.7243C179.96 12.7825 179.805 12.8988 179.66 13.0734C179.519 13.2479 179.403 13.4952 179.311 13.8152C179.219 14.1304 179.173 14.5473 179.173 15.0661C179.478 15.0322 179.791 14.9788 180.111 14.9061C180.436 14.8285 180.729 14.7291 180.991 14.6079C181.253 14.4867 181.466 14.3413 181.631 14.1716C181.796 14.0019 181.878 13.8055 181.878 13.5825C181.878 13.3982 181.842 13.2455 181.769 13.1243C181.696 13.0031 181.599 12.9061 181.478 12.8334C181.362 12.7607 181.226 12.7097 181.071 12.6807C180.916 12.6516 180.756 12.637 180.591 12.637ZM194.125 14.2734C194.096 14.2928 193.97 14.3776 193.747 14.5279C193.524 14.6782 193.228 14.8625 192.859 15.0807C192.491 15.294 192.059 15.5219 191.565 15.7643C191.07 16.0067 190.537 16.2322 189.965 16.4407C189.393 16.6491 188.794 16.8237 188.168 16.9643C187.543 17.1001 186.915 17.1679 186.285 17.1679H184.081V15.357H186.285C186.76 15.357 187.267 15.3085 187.805 15.2116C188.343 15.1146 188.874 14.991 189.397 14.8407C189.921 14.6855 190.418 14.5134 190.888 14.3243C191.364 14.1352 191.776 13.9485 192.125 13.7643C191.902 13.6964 191.659 13.6237 191.397 13.5461C191.141 13.4637 190.876 13.3837 190.605 13.3061C190.333 13.2237 190.064 13.1461 189.797 13.0734C189.531 12.9958 189.281 12.9279 189.048 12.8697C188.816 12.8116 188.607 12.7655 188.423 12.7316C188.239 12.6976 188.093 12.6807 187.987 12.6807C187.875 12.6807 187.776 12.6952 187.688 12.7243C187.606 12.7485 187.531 12.7922 187.463 12.8552C187.395 12.9134 187.332 12.991 187.274 13.0879C187.216 13.1849 187.155 13.3013 187.092 13.437L185.427 12.9352C185.519 12.6443 185.63 12.3728 185.761 12.1207C185.897 11.8637 186.059 11.6407 186.248 11.4516C186.442 11.2625 186.665 11.1146 186.917 11.0079C187.17 10.8964 187.458 10.8407 187.783 10.8407C187.909 10.8407 188.088 10.8673 188.321 10.9207C188.554 10.974 188.818 11.0443 189.114 11.1316C189.41 11.2188 189.725 11.3182 190.059 11.4297C190.399 11.5413 190.738 11.6576 191.077 11.7788C191.417 11.9001 191.747 12.0188 192.067 12.1352C192.387 12.2516 192.675 12.3582 192.932 12.4552C193.189 12.5473 193.405 12.6249 193.579 12.6879C193.754 12.751 193.865 12.7897 193.914 12.8043L194.125 14.2734ZM186.474 19.6334L187.71 18.397L188.947 19.6479L187.71 20.8843L186.474 19.6334ZM189.507 19.6479L190.757 18.4116L191.994 19.6625L190.757 20.8988L189.507 19.6479ZM188.059 21.6843L189.208 20.5352L190.372 21.6988L189.223 22.8479L188.059 21.6843Z" fill="white"/>
<path d="M204 19.2676C204 20.1211 204.912 20.8135 206.036 20.8135H220.964C222.088 20.8135 223 20.1211 223 19.2676V10.5072H204V19.2676ZM217.571 12.955C217.571 12.7424 217.8 12.5685 218.08 12.5685H219.777C220.057 12.5685 220.286 12.7424 220.286 12.955V14.2433C220.286 14.4558 220.057 14.6297 219.777 14.6297H218.08C217.8 14.6297 217.571 14.4558 217.571 14.2433V12.955ZM217.571 17.0775C217.571 16.8649 217.8 16.691 218.08 16.691H219.777C220.057 16.691 220.286 16.8649 220.286 17.0775V18.3658C220.286 18.5783 220.057 18.7523 219.777 18.7523H218.08C217.8 18.7523 217.571 18.5783 217.571 18.3658V17.0775ZM212.143 12.955C212.143 12.7424 212.372 12.5685 212.652 12.5685H214.348C214.628 12.5685 214.857 12.7424 214.857 12.955V14.2433C214.857 14.4558 214.628 14.6297 214.348 14.6297H212.652C212.372 14.6297 212.143 14.4558 212.143 14.2433V12.955ZM212.143 17.0775C212.143 16.8649 212.372 16.691 212.652 16.691H214.348C214.628 16.691 214.857 16.8649 214.857 17.0775V18.3658C214.857 18.5783 214.628 18.7523 214.348 18.7523H212.652C212.372 18.7523 212.143 18.5783 212.143 18.3658V17.0775ZM206.714 12.955C206.714 12.7424 206.943 12.5685 207.223 12.5685H208.92C209.2 12.5685 209.429 12.7424 209.429 12.955V14.2433C209.429 14.4558 209.2 14.6297 208.92 14.6297H207.223C206.943 14.6297 206.714 14.4558 206.714 14.2433V12.955ZM206.714 17.0775C206.714 16.8649 206.943 16.691 207.223 16.691H208.92C209.2 16.691 209.429 16.8649 209.429 17.0775V18.3658C209.429 18.5783 209.2 18.7523 208.92 18.7523H207.223C206.943 18.7523 206.714 18.5783 206.714 18.3658V17.0775ZM220.964 6.38474H218.929V4.8388C218.929 4.55538 218.623 4.32349 218.25 4.32349H216.893C216.52 4.32349 216.214 4.55538 216.214 4.8388V6.38474H210.786V4.8388C210.786 4.55538 210.48 4.32349 210.107 4.32349H208.75C208.377 4.32349 208.071 4.55538 208.071 4.8388V6.38474H206.036C204.912 6.38474 204 7.07719 204 7.93068V9.47662H223V7.93068C223 7.07719 222.088 6.38474 220.964 6.38474Z" fill="white"/>
</svg>
