<svg width="16" height="19" viewBox="0 0 16 19" fill="none" xmlns="http://www.w3.org/2000/svg">
<path d="M8 0.518311C3.58065 0.518311 0 4.44549 0 9.29256C0 14.1396 3.58065 18.0668 8 18.0668C12.4194 18.0668 16 14.1396 16 9.29256C16 4.44549 12.4194 0.518311 8 0.518311ZM10.9835 11.5923L10.3384 12.4768C10.296 12.5348 10.2437 12.5832 10.1843 12.619C10.125 12.6549 10.0597 12.6776 9.99235 12.6858C9.92498 12.694 9.8568 12.6876 9.79169 12.6669C9.72659 12.6462 9.66583 12.6117 9.6129 12.5652L7.45161 10.8061C7.3006 10.6735 7.1787 10.5054 7.09495 10.3141C7.01119 10.1228 6.96772 9.91337 6.96774 9.7012V4.19783C6.96774 4.0477 7.02212 3.90371 7.11891 3.79755C7.21571 3.69139 7.34698 3.63175 7.48387 3.63175H8.51613C8.65302 3.63175 8.78429 3.69139 8.88109 3.79755C8.97788 3.90371 9.03226 4.0477 9.03226 4.19783V9.29256L10.9032 10.7962C10.9562 10.8427 11.0003 10.9001 11.033 10.9653C11.0657 11.0305 11.0863 11.102 11.0938 11.176C11.1013 11.2499 11.0954 11.3247 11.0764 11.3962C11.0575 11.4676 11.026 11.5342 10.9835 11.5923Z" fill="#005AA7"/>
</svg>
