<svg width="17" height="15" viewBox="0 0 17 15" fill="none" xmlns="http://www.w3.org/2000/svg">
<path d="M16.5994 5.27113C16.7283 5.1571 16.92 5.26378 16.92 5.44402V12.9663C16.92 13.9411 16.2095 14.732 15.3337 14.732H1.58625C0.710508 14.732 0 13.9411 0 12.9663V5.4477C0 5.26378 0.188367 5.16078 0.320555 5.27481C1.0608 5.91485 2.0423 6.72778 5.41308 9.45347C6.11037 10.0199 7.28684 11.2117 8.46 11.2044C9.63977 11.2154 10.8394 9.99787 11.5102 9.45347C14.881 6.72778 15.8592 5.91117 16.5994 5.27113ZM8.46 10.0236C9.22669 10.0383 10.3305 8.94953 10.8856 8.50076C15.271 4.95847 15.6047 4.64949 16.616 3.76667C16.8076 3.60114 16.92 3.34366 16.92 3.07146V2.37256C16.92 1.39779 16.2095 0.606934 15.3337 0.606934H1.58625C0.710508 0.606934 0 1.39779 0 2.37256V3.07146C0 3.34366 0.112359 3.59747 0.304031 3.76667C1.31527 4.64581 1.64904 4.95847 6.03436 8.50076C6.58955 8.94953 7.69331 10.0383 8.46 10.0236Z" fill="#005AA7"/>
</svg>
