<svg width="14" height="20" viewBox="0 0 14 20" fill="none" xmlns="http://www.w3.org/2000/svg">
<path d="M6.2806 18.9171C0.983281 10.9742 0 10.1591 0 7.23997C0 3.24143 3.13399 0 7 0C10.866 0 14 3.24143 14 7.23997C14 10.1591 13.0167 10.9742 7.7194 18.9171C7.37177 19.4364 6.6282 19.4364 6.2806 18.9171ZM7 10.2566C8.61084 10.2566 9.91667 8.90603 9.91667 7.23997C9.91667 5.57391 8.61084 4.22331 7 4.22331C5.38916 4.22331 4.08333 5.57391 4.08333 7.23997C4.08333 8.90603 5.38916 10.2566 7 10.2566Z" fill="#005AA7"/>
</svg>
