<svg width="14" height="24" viewBox="0 0 14 24" fill="none" xmlns="http://www.w3.org/2000/svg">
<path d="M11.3688 0.304443H2.00625C0.898633 0.304443 0 1.27587 0 2.47322V21.2693C0 22.4666 0.898633 23.4381 2.00625 23.4381H11.3688C12.4764 23.4381 13.375 22.4666 13.375 21.2693V2.47322C13.375 1.27587 12.4764 0.304443 11.3688 0.304443ZM6.6875 21.9922C5.9477 21.9922 5.35 21.3461 5.35 20.5464C5.35 19.7466 5.9477 19.1005 6.6875 19.1005C7.42731 19.1005 8.025 19.7466 8.025 20.5464C8.025 21.3461 7.42731 21.9922 6.6875 21.9922ZM11.3688 17.1125C11.3688 17.4107 11.143 17.6547 10.8672 17.6547H2.50781C2.23195 17.6547 2.00625 17.4107 2.00625 17.1125V3.01541C2.00625 2.71721 2.23195 2.47322 2.50781 2.47322H10.8672C11.143 2.47322 11.3688 2.71721 11.3688 3.01541V17.1125Z" fill="#005AA7"/>
</svg>
