<svg width="16" height="18" viewBox="0 0 16 18" fill="none" xmlns="http://www.w3.org/2000/svg">
<path d="M15.5437 12.6763L12.0436 11.0311C11.8941 10.9612 11.728 10.9464 11.5701 10.9891C11.4123 11.0318 11.2714 11.1295 11.1686 11.2676L9.61861 13.3446C7.18598 12.0867 5.22828 9.93949 4.08132 7.27144L5.9751 5.5714C6.10126 5.45887 6.19054 5.30432 6.22945 5.13115C6.26836 4.95799 6.25477 4.77563 6.19073 4.6117L4.69071 0.772898C4.62043 0.596179 4.49613 0.451894 4.33925 0.364923C4.18236 0.277951 4.00273 0.253744 3.83132 0.296476L0.58126 1.11908C0.415998 1.16093 0.26855 1.26299 0.162983 1.40859C0.0574151 1.55419 -3.80697e-05 1.73474 1.8926e-08 1.92077C1.8926e-08 10.7123 6.49699 17.8244 14.5003 17.8244C14.6699 17.8245 14.8346 17.7615 14.9674 17.6457C15.1002 17.5299 15.1933 17.3682 15.2315 17.1869L15.9815 13.6223C16.0202 13.4333 15.9977 13.2355 15.9178 13.0629C15.8379 12.8902 15.7056 12.7535 15.5437 12.6763Z" fill="#005AA7"/>
</svg>
