<svg width="17" height="17" viewBox="0 0 17 17" fill="none" xmlns="http://www.w3.org/2000/svg">
<path d="M8.59299 0.381226C4.175 0.381226 0.595459 3.96077 0.595459 8.37876C0.595459 12.7967 4.175 16.3763 8.59299 16.3763C13.011 16.3763 16.5905 12.7967 16.5905 8.37876C16.5905 3.96077 13.011 0.381226 8.59299 0.381226ZM11.5756 10.4749L10.9307 11.2811C10.8883 11.334 10.836 11.3781 10.7766 11.4108C10.7173 11.4434 10.6521 11.4641 10.5847 11.4716C10.5174 11.4791 10.4492 11.4732 10.3841 11.4544C10.319 11.4355 10.2583 11.404 10.2054 11.3617L8.04477 9.75833C7.89381 9.63746 7.77195 9.48419 7.68822 9.30987C7.60449 9.13554 7.56103 8.94462 7.56105 8.75122V3.73503C7.56105 3.59819 7.61541 3.46695 7.71218 3.37018C7.80894 3.27342 7.94018 3.21906 8.07702 3.21906H9.10896C9.2458 3.21906 9.37704 3.27342 9.47381 3.37018C9.57057 3.46695 9.62493 3.59819 9.62493 3.73503V8.37876L11.4953 9.7493C11.5483 9.79165 11.5923 9.84402 11.625 9.90342C11.6577 9.96281 11.6784 10.0281 11.6858 10.0955C11.6933 10.1628 11.6874 10.231 11.6685 10.2961C11.6496 10.3612 11.618 10.422 11.5756 10.4749Z" fill="#005AA7"/>
</svg>
