<svg width="111" height="13" viewBox="0 0 111 13" fill="none" xmlns="http://www.w3.org/2000/svg">
<path d="M1.27792 9.37367C1.27792 9.31185 1.27792 9.23912 1.27792 9.15548C1.27792 9.07185 1.27792 8.98457 1.27792 8.89367C1.27792 8.80276 1.27792 8.71367 1.27792 8.62639C1.28156 8.53912 1.2852 8.45912 1.28883 8.38639V8.39185C1.29247 8.2173 1.29429 8.0373 1.29429 7.85185C1.29792 7.66276 1.29974 7.46457 1.29974 7.2573C1.29974 6.8573 1.29429 6.44276 1.28338 6.01367C1.27611 5.58457 1.25065 5.13912 1.20701 4.6773C1.16338 4.21185 1.09611 3.73185 1.0052 3.2373C0.914287 2.73912 0.785197 2.22276 0.617924 1.68821L1.88883 1.27367C2.07429 1.86639 2.21792 2.43548 2.31974 2.98094C2.4252 3.52276 2.50156 4.04276 2.54883 4.54094C2.59974 5.03548 2.63065 5.51003 2.64156 5.96457C2.65247 6.41912 2.65792 6.85548 2.65792 7.27367C2.65792 7.48094 2.65611 7.68094 2.65247 7.87367C2.65247 8.06276 2.65065 8.24457 2.64701 8.41912C2.64338 8.49185 2.63974 8.57185 2.63611 8.65912C2.63611 8.74276 2.63611 8.82821 2.63611 8.91548C2.63611 9.00276 2.63611 9.08639 2.63611 9.16639C2.63611 9.24639 2.63611 9.31548 2.63611 9.37367H1.27792ZM10.6273 1.30639C10.6564 1.43367 10.6873 1.57367 10.72 1.72639C10.7564 1.87912 10.7873 2.04094 10.8127 2.21185C10.8418 2.37912 10.8655 2.55367 10.8836 2.73548C10.9018 2.91367 10.9109 3.09367 10.9109 3.27548C10.9109 3.54457 10.8782 3.80094 10.8127 4.04457C10.7473 4.28821 10.6436 4.50276 10.5018 4.68821C10.3636 4.87367 10.1855 5.02094 9.96727 5.13003C9.74909 5.23912 9.48727 5.29367 9.18182 5.29367C9.07272 5.29367 8.95454 5.28276 8.82727 5.26094C8.70363 5.23912 8.57818 5.20276 8.45091 5.15185C8.32363 5.0973 8.19636 5.02639 8.06909 4.93912C7.94545 4.84821 7.82727 4.73367 7.71454 4.59548C7.54363 4.80639 7.35818 4.96276 7.15818 5.06458C6.96182 5.16639 6.77091 5.23912 6.58545 5.28276H6.59091C6.53636 5.2973 6.47636 5.30821 6.41091 5.31548C6.34545 5.31912 6.28 5.32094 6.21454 5.32094C6.13454 5.32094 6.05091 5.31548 5.96363 5.30457C5.87636 5.29003 5.79454 5.27003 5.71818 5.24457C5.76545 5.80457 5.79273 6.33367 5.8 6.83185C5.81091 7.32639 5.81636 7.7773 5.81636 8.18457V9.37367H4.46363V8.29367C4.46363 7.86457 4.45818 7.38276 4.44727 6.84821C4.44 6.31367 4.40909 5.7573 4.35454 5.17912C4.30363 4.5973 4.22363 4.01185 4.11454 3.42276C4.00909 2.83003 3.85818 2.26276 3.66182 1.72094L4.94363 1.29548C4.98 1.41912 5.01454 1.53185 5.04727 1.63367C5.08 1.73548 5.11091 1.83912 5.14 1.94457C5.16909 2.05003 5.19818 2.16094 5.22727 2.2773C5.26 2.39367 5.29454 2.52821 5.33091 2.68094C5.36727 2.81912 5.41636 2.96457 5.47818 3.1173C5.54 3.26639 5.61091 3.40276 5.69091 3.52639C5.77454 3.65003 5.86727 3.75185 5.96909 3.83185C6.07454 3.91185 6.18909 3.95185 6.31272 3.95185C6.39636 3.9373 6.47454 3.90276 6.54727 3.84821C6.62 3.79367 6.68363 3.71003 6.73818 3.5973C6.79272 3.48457 6.83454 3.34094 6.86363 3.16639C6.89636 2.99185 6.91272 2.7773 6.91272 2.52276C6.91272 2.44276 6.91272 2.37185 6.91272 2.31003C6.91272 2.24457 6.91091 2.17912 6.90727 2.11367C6.90727 2.04457 6.90363 1.96821 6.89636 1.88457C6.88909 1.80094 6.88 1.6973 6.86909 1.57367L8.21091 1.45367C8.25454 1.8973 8.29818 2.2773 8.34182 2.59367C8.38545 2.90639 8.43818 3.16276 8.5 3.36276C8.56182 3.55912 8.64 3.70276 8.73454 3.79367C8.83273 3.88458 8.95636 3.93003 9.10545 3.93003C9.22545 3.93003 9.33091 3.87548 9.42182 3.76639C9.51272 3.6573 9.55818 3.50458 9.55818 3.30821C9.55818 3.16276 9.54909 3.01185 9.53091 2.85548C9.51272 2.69912 9.49091 2.54821 9.46545 2.40276C9.44 2.2573 9.41272 2.12276 9.38363 1.99912C9.35454 1.87548 9.32727 1.77367 9.30182 1.69367L10.6273 1.30639ZM15.0879 9.70094C15.0116 9.49367 14.9443 9.24276 14.8861 8.94821C14.8316 8.65003 14.7843 8.32821 14.7443 7.98276C14.7079 7.63367 14.677 7.26821 14.6516 6.88639C14.6261 6.50457 14.6079 6.12639 14.597 5.75185H13.817C13.5443 5.75185 13.2734 5.71912 13.0043 5.65367C12.7352 5.58457 12.4916 5.47003 12.2734 5.31003C12.0588 5.15003 11.8843 4.93912 11.7498 4.6773C11.6152 4.41185 11.5479 4.08276 11.5479 3.69003C11.5479 3.30821 11.6025 2.97003 11.7116 2.67548C11.8207 2.3773 11.9734 2.12639 12.1698 1.92276C12.3698 1.71548 12.6061 1.55912 12.8788 1.45367C13.1516 1.34457 13.4516 1.29003 13.7788 1.29003C14.1388 1.29003 14.4534 1.35548 14.7225 1.48639C14.9916 1.61367 15.2152 1.79185 15.3934 2.02094C15.5716 2.24639 15.7043 2.51367 15.7916 2.82276C15.8825 3.13185 15.9279 3.46821 15.9279 3.83185C15.9279 4.52276 15.937 5.16094 15.9552 5.74639C15.977 6.32821 16.0061 6.84821 16.0425 7.30639C16.0788 7.76457 16.1225 8.1573 16.1734 8.48457C16.2243 8.80821 16.2825 9.05548 16.3479 9.22639L15.0879 9.70094ZM14.5752 4.41003C14.5716 4.30457 14.5698 4.20276 14.5698 4.10457C14.5698 4.00639 14.5698 3.91548 14.5698 3.83185C14.5698 3.55912 14.537 3.34276 14.4716 3.18276C14.4098 3.01912 14.3352 2.89548 14.2479 2.81185C14.1607 2.72457 14.0716 2.67003 13.9807 2.64821C13.8934 2.62276 13.8261 2.61003 13.7788 2.61003C13.6407 2.61003 13.5134 2.63185 13.397 2.67548C13.2807 2.71912 13.1788 2.78639 13.0916 2.8773C13.0079 2.96458 12.9425 3.0773 12.8952 3.21548C12.8479 3.35003 12.8243 3.50821 12.8243 3.69003C12.8243 3.83185 12.8588 3.95003 12.9279 4.04457C12.997 4.13548 13.0825 4.20821 13.1843 4.26276C13.2861 4.3173 13.3934 4.35548 13.5061 4.3773C13.6225 4.39912 13.7261 4.41003 13.817 4.41003H14.5752ZM20.4434 9.70094C20.367 9.49367 20.2998 9.24276 20.2416 8.94821C20.187 8.65003 20.1398 8.32821 20.0998 7.98276C20.0634 7.63367 20.0325 7.26821 20.007 6.88639C19.9816 6.50457 19.9634 6.12639 19.9525 5.75185H19.1725C18.8998 5.75185 18.6289 5.71912 18.3598 5.65367C18.0907 5.58457 17.847 5.47003 17.6289 5.31003C17.4143 5.15003 17.2398 4.93912 17.1052 4.6773C16.9707 4.41185 16.9034 4.08276 16.9034 3.69003C16.9034 3.30821 16.958 2.97003 17.067 2.67548C17.1761 2.3773 17.3289 2.12639 17.5252 1.92276C17.7252 1.71548 17.9616 1.55912 18.2343 1.45367C18.507 1.34457 18.807 1.29003 19.1343 1.29003C19.4943 1.29003 19.8089 1.35548 20.078 1.48639C20.347 1.61367 20.5707 1.79185 20.7489 2.02094C20.927 2.24639 21.0598 2.51367 21.147 2.82276C21.238 3.13185 21.2834 3.46821 21.2834 3.83185C21.2834 4.52276 21.2925 5.16094 21.3107 5.74639C21.3325 6.32821 21.3616 6.84821 21.398 7.30639C21.4343 7.76457 21.478 8.1573 21.5289 8.48457C21.5798 8.80821 21.638 9.05548 21.7034 9.22639L20.4434 9.70094ZM19.9307 4.41003C19.927 4.30457 19.9252 4.20276 19.9252 4.10457C19.9252 4.00639 19.9252 3.91548 19.9252 3.83185C19.9252 3.55912 19.8925 3.34276 19.827 3.18276C19.7652 3.01912 19.6907 2.89548 19.6034 2.81185C19.5161 2.72457 19.427 2.67003 19.3361 2.64821C19.2489 2.62276 19.1816 2.61003 19.1343 2.61003C18.9961 2.61003 18.8689 2.63185 18.7525 2.67548C18.6361 2.71912 18.5343 2.78639 18.447 2.8773C18.3634 2.96458 18.298 3.0773 18.2507 3.21548C18.2034 3.35003 18.1798 3.50821 18.1798 3.69003C18.1798 3.83185 18.2143 3.95003 18.2834 4.04457C18.3525 4.13548 18.438 4.20821 18.5398 4.26276C18.6416 4.3173 18.7489 4.35548 18.8616 4.3773C18.978 4.39912 19.0816 4.41003 19.1725 4.41003H19.9307ZM32.4921 9.37912H32.0503C31.5667 9.37912 31.1048 9.16639 30.6648 8.74094C30.5448 8.88276 30.4012 9.00094 30.2339 9.09548C30.0703 9.18639 29.8939 9.25912 29.7048 9.31367C29.5158 9.36821 29.323 9.40639 29.1267 9.42821C28.9339 9.45003 28.7485 9.46094 28.5703 9.46094C28.4321 9.46094 28.2921 9.45185 28.1503 9.43367C28.0085 9.41912 27.8467 9.39185 27.6648 9.35185C27.4867 9.31548 27.2812 9.26639 27.0485 9.20457C26.8158 9.13912 26.5376 9.0573 26.2139 8.95912L26.6067 7.65548C26.8285 7.74276 27.0576 7.82094 27.2939 7.89003C27.5303 7.95548 27.7612 8.01003 27.9867 8.05367C28.2121 8.09367 28.4285 8.11912 28.6358 8.13003C28.7194 8.1373 28.7994 8.14094 28.8758 8.14094C28.9885 8.14094 29.1103 8.13185 29.2412 8.11367C29.3721 8.09548 29.4939 8.0573 29.6067 7.99912C29.723 7.9373 29.8012 7.85548 29.8412 7.75367C29.8594 7.71003 29.8685 7.67003 29.8685 7.63367C29.8685 7.60094 29.8576 7.56094 29.8358 7.51367C29.8176 7.46639 29.7867 7.41003 29.743 7.34458C29.6994 7.27548 29.643 7.18639 29.5739 7.0773L27.6376 4.35548L28.783 3.61912L30.7303 6.57003C30.8358 6.73003 30.9467 6.89548 31.063 7.06639C31.1794 7.2373 31.2958 7.39367 31.4121 7.53548C31.5285 7.67367 31.6412 7.78821 31.7503 7.87912C31.8594 7.97003 31.9594 8.01548 32.0503 8.01548H32.4921V9.37912ZM36.7463 8.02094V9.37912H36.4027C36.0936 9.37912 35.8118 9.3373 35.5572 9.25367C35.3027 9.17003 35.0881 9.04639 34.9136 8.88276C34.71 9.05367 34.4681 9.17912 34.1881 9.25912C33.9118 9.33912 33.5954 9.37912 33.239 9.37912H32.2736V8.02094H33.239C33.4609 8.02094 33.6372 8.00094 33.7681 7.96094C33.9027 7.9173 34.0027 7.86457 34.0681 7.80276C34.1372 7.74094 34.1809 7.67185 34.199 7.59548C34.2209 7.51912 34.2318 7.44457 34.2318 7.37185V5.60457H35.5845V7.33367C35.5845 7.4973 35.6209 7.62639 35.6936 7.72094C35.7663 7.81185 35.8481 7.88094 35.939 7.92821C36.0336 7.97185 36.1263 7.99912 36.2172 8.01003C36.3081 8.0173 36.37 8.02094 36.4027 8.02094H36.7463ZM33.6045 3.09548L34.5863 2.10276L35.59 3.10639L34.5972 4.09912L33.6045 3.09548ZM39.6647 4.56821C40.0029 4.56821 40.3047 4.63003 40.5701 4.75367C40.8392 4.8773 41.0665 5.04094 41.2519 5.24457C41.4374 5.44457 41.5792 5.67367 41.6774 5.93185C41.7756 6.19003 41.8247 6.45548 41.8247 6.72821C41.8247 6.88094 41.8156 7.01548 41.7974 7.13185C41.7792 7.24457 41.7501 7.35003 41.7101 7.44821C41.6738 7.54276 41.6283 7.63548 41.5738 7.72639C41.5192 7.81367 41.4556 7.90821 41.3829 8.01003C41.4483 8.01367 41.5192 8.0173 41.5956 8.02094C41.6756 8.02094 41.7538 8.02094 41.8301 8.02094C41.9101 8.02094 41.9865 8.02094 42.0592 8.02094C42.1319 8.02094 42.1956 8.02094 42.2501 8.02094H42.6429V9.37912H42.2501C42.0174 9.37912 41.7792 9.37185 41.5356 9.3573C41.2956 9.34276 41.0592 9.32276 40.8265 9.2973C40.5974 9.26821 40.3792 9.23548 40.1719 9.19912C39.9647 9.15912 39.7792 9.11548 39.6156 9.06821C39.2847 9.16276 38.9138 9.23912 38.5029 9.2973C38.0919 9.35185 37.6229 9.37912 37.0956 9.37912H36.5229V8.02094H37.0956C37.1938 8.02094 37.2719 8.02276 37.3301 8.02639C37.3883 8.02639 37.441 8.02639 37.4883 8.02639C37.5356 8.02639 37.5847 8.02639 37.6356 8.02639C37.6865 8.02276 37.7501 8.0173 37.8265 8.01003C37.6738 7.80639 37.5574 7.60457 37.4774 7.40457C37.3974 7.20457 37.3574 6.97912 37.3574 6.72821C37.3574 6.44094 37.4174 6.16639 37.5374 5.90457C37.6574 5.64276 37.821 5.41367 38.0283 5.2173C38.2392 5.0173 38.4847 4.85912 38.7647 4.74276C39.0447 4.62639 39.3447 4.56821 39.6647 4.56821ZM38.6447 6.73912C38.6447 6.9973 38.7356 7.2173 38.9174 7.39912C39.0992 7.58094 39.3356 7.72821 39.6265 7.84094C39.7647 7.78639 39.8919 7.72457 40.0083 7.65548C40.1247 7.58639 40.2247 7.50821 40.3083 7.42094C40.3956 7.33003 40.4629 7.22821 40.5101 7.11548C40.561 6.99912 40.5865 6.87003 40.5865 6.72821C40.5865 6.64094 40.5647 6.55003 40.521 6.45548C40.4774 6.36094 40.4156 6.27548 40.3356 6.19912C40.2556 6.11912 40.1592 6.05367 40.0465 6.00276C39.9338 5.95185 39.8065 5.92639 39.6647 5.92639C39.5047 5.92639 39.361 5.95003 39.2338 5.9973C39.1065 6.04094 38.9992 6.10094 38.9119 6.1773C38.8247 6.25003 38.7574 6.33548 38.7101 6.43367C38.6665 6.53185 38.6447 6.63367 38.6447 6.73912ZM38.6283 2.26094L39.6101 1.26821L40.6138 2.27185L39.621 3.26458L38.6283 2.26094ZM46.6438 9.36821C45.9784 9.36821 45.4511 9.19548 45.062 8.85003C44.862 9.03548 44.6402 9.17003 44.3966 9.25367C44.1529 9.3373 43.902 9.37912 43.6438 9.37912H42.4166V8.02094H43.6438C43.6875 8.02094 43.7493 8.01367 43.8293 7.99912C43.9129 7.98457 43.9948 7.95003 44.0748 7.89548C44.1584 7.8373 44.2311 7.75367 44.2929 7.64457C44.3548 7.53185 44.3857 7.3773 44.3857 7.18094V5.61003H45.7438V7.15912C45.7438 7.4573 45.8129 7.67548 45.9511 7.81367C46.0929 7.94821 46.3238 8.01548 46.6438 8.01548C46.6875 8.01548 46.7493 8.00821 46.8293 7.99367C46.9129 7.97548 46.9948 7.9373 47.0748 7.87912C47.1584 7.82094 47.2311 7.73548 47.2929 7.62276C47.3548 7.50639 47.3857 7.35185 47.3857 7.15912V5.61003H48.7384V7.15912C48.7384 7.4573 48.8093 7.6773 48.9511 7.81912C49.0966 7.9573 49.3311 8.02639 49.6548 8.02639C49.702 8.02639 49.7657 8.0173 49.8457 7.99912C49.9293 7.9773 50.0111 7.9373 50.0911 7.87912C50.1711 7.8173 50.2402 7.73003 50.2984 7.6173C50.3566 7.50457 50.3857 7.35185 50.3857 7.15912C50.3857 7.07912 50.3784 6.98276 50.3638 6.87003C50.3529 6.7573 50.3366 6.63912 50.3148 6.51548C50.2966 6.38821 50.2748 6.26094 50.2493 6.13367C50.2238 6.00276 50.1984 5.87912 50.1729 5.76276C50.1475 5.64639 50.122 5.54094 50.0966 5.44639C50.0748 5.35185 50.0566 5.2773 50.042 5.22276L51.3238 4.80276C51.3311 4.82821 51.3457 4.88639 51.3675 4.9773C51.3893 5.06821 51.4148 5.18094 51.4438 5.31548C51.4766 5.45003 51.5093 5.59912 51.542 5.76276C51.5748 5.92639 51.6038 6.09185 51.6293 6.25912C51.6584 6.42276 51.682 6.58457 51.7002 6.74457C51.7184 6.90094 51.7275 7.03912 51.7275 7.15912C51.7275 7.53003 51.6657 7.85548 51.542 8.13548C51.422 8.41185 51.2638 8.64276 51.0675 8.82821C50.8711 9.01003 50.6493 9.14639 50.402 9.2373C50.1548 9.32821 49.9057 9.37548 49.6548 9.37912C48.9784 9.37912 48.4438 9.20094 48.0511 8.84457C47.8511 9.03003 47.6293 9.16457 47.3857 9.24821C47.1457 9.32821 46.8984 9.36821 46.6438 9.36821ZM54.6429 9.37912H53.2848V1.51367H54.6429V9.37912ZM60.6803 9.37367C60.6803 9.31185 60.6803 9.23912 60.6803 9.15548C60.6803 9.07185 60.6803 8.98457 60.6803 8.89367C60.6803 8.80276 60.6803 8.71367 60.6803 8.62639C60.6839 8.53912 60.6875 8.45912 60.6912 8.38639V8.39185C60.6948 8.2173 60.6966 8.0373 60.6966 7.85185C60.7003 7.66276 60.7021 7.46457 60.7021 7.2573C60.7021 6.8573 60.6966 6.44276 60.6857 6.01367C60.6784 5.58457 60.653 5.13912 60.6094 4.6773C60.5657 4.21185 60.4984 3.73185 60.4075 3.2373C60.3166 2.73912 60.1875 2.22276 60.0203 1.68821L61.2912 1.27367C61.4766 1.86639 61.6203 2.43548 61.7221 2.98094C61.8275 3.52276 61.9039 4.04276 61.9512 4.54094C62.0021 5.03548 62.033 5.51003 62.0439 5.96457C62.0548 6.41912 62.0603 6.85548 62.0603 7.27367C62.0603 7.48094 62.0584 7.68094 62.0548 7.87367C62.0548 8.06276 62.053 8.24457 62.0494 8.41912C62.0457 8.49185 62.0421 8.57185 62.0384 8.65912C62.0384 8.74276 62.0384 8.82821 62.0384 8.91548C62.0384 9.00276 62.0384 9.08639 62.0384 9.16639C62.0384 9.24639 62.0384 9.31548 62.0384 9.37367H60.6803ZM68.2405 4.25185C68.3423 4.25185 68.4423 4.25185 68.5405 4.25185C68.6387 4.24821 68.7369 4.24276 68.8351 4.23548C68.9333 4.22821 69.0351 4.21912 69.1405 4.20821C69.2496 4.19367 69.366 4.17548 69.4896 4.15367L69.7951 5.38094C69.606 5.43548 69.4242 5.48276 69.2496 5.52276C69.0751 5.55912 68.8951 5.59003 68.7096 5.61548C68.5242 5.6373 68.326 5.65548 68.1151 5.67003C67.9078 5.68094 67.6733 5.68639 67.4114 5.68639C67.0333 5.68639 66.6478 5.6573 66.2551 5.59912C65.866 5.54094 65.4951 5.43548 65.1423 5.28276C65.1642 5.5773 65.1823 5.84639 65.1969 6.09003C65.2151 6.33367 65.2278 6.56457 65.2351 6.78276C65.2423 7.00094 65.2478 7.21367 65.2514 7.42094C65.2551 7.62821 65.2569 7.84276 65.2569 8.06457C65.2569 8.2173 65.2551 8.37367 65.2514 8.53367C65.2514 8.69003 65.2514 8.86094 65.2514 9.04639V9.38457H63.8987V9.04094C63.8987 8.50639 63.8951 8.00639 63.8878 7.54094C63.8842 7.07548 63.8714 6.63548 63.8496 6.22094C63.8314 5.80639 63.8042 5.41003 63.7678 5.03185C63.7314 4.65367 63.6823 4.28276 63.6205 3.91912C63.5587 3.55548 63.4823 3.19367 63.3914 2.83367C63.3005 2.47367 63.1914 2.10458 63.0642 1.72639L64.3733 1.31185C64.4314 1.50094 64.4842 1.68821 64.5314 1.87367C64.5823 2.05912 64.6314 2.24821 64.6787 2.44094C64.7078 2.54639 64.7333 2.65548 64.7551 2.76821C64.7805 2.8773 64.8078 2.98639 64.8369 3.09548C64.9023 3.35367 65.0042 3.56457 65.1423 3.72821C65.2842 3.88821 65.4369 4.00639 65.6005 4.08276C65.5787 4.02821 65.5551 3.97003 65.5296 3.90821C65.5042 3.84639 65.4805 3.7773 65.4587 3.70094C65.4405 3.62094 65.4242 3.53367 65.4096 3.43912C65.3987 3.34457 65.3933 3.23912 65.3933 3.12276C65.3933 2.79185 65.4569 2.4973 65.5842 2.23912C65.7151 1.9773 65.8842 1.7573 66.0914 1.57912C66.3023 1.3973 66.5387 1.26094 66.8005 1.17003C67.066 1.07548 67.3314 1.02821 67.5969 1.02821C67.8078 1.02821 68.0023 1.05367 68.1805 1.10457C68.3623 1.15185 68.5314 1.21367 68.6878 1.29003C68.8442 1.36639 68.9914 1.45185 69.1296 1.54639C69.2714 1.6373 69.4096 1.72639 69.5442 1.81367L68.9005 2.96457C68.7733 2.87367 68.6533 2.79367 68.5405 2.72457C68.4278 2.65185 68.3187 2.59185 68.2133 2.54457C68.1078 2.4973 68.0042 2.46094 67.9023 2.43548C67.8042 2.40639 67.7023 2.39003 67.5969 2.38639H67.5642C67.4696 2.38639 67.3678 2.40276 67.2587 2.43548C67.1496 2.46821 67.0478 2.51912 66.9533 2.58821C66.8587 2.6573 66.7787 2.74276 66.7133 2.84457C66.6514 2.94276 66.6205 3.05548 66.6205 3.18276C66.6205 3.39003 66.6696 3.56276 66.7678 3.70094C66.866 3.83912 66.9914 3.95003 67.1442 4.03367C67.3005 4.11367 67.4751 4.17003 67.6678 4.20276C67.8605 4.23548 68.0514 4.25185 68.2405 4.25185ZM81.0669 9.37912H80.9142C80.6305 9.37912 80.3578 9.35185 80.096 9.2973C79.8342 9.24639 79.5923 9.16821 79.3705 9.06276C79.1487 8.95367 78.9505 8.81548 78.776 8.64821C78.6051 8.48094 78.4651 8.28276 78.356 8.05367C78.2687 8.18821 78.156 8.30821 78.0178 8.41367C77.8833 8.51548 77.736 8.60094 77.576 8.67003C77.416 8.73912 77.2505 8.79185 77.0796 8.82821C76.9087 8.86094 76.7451 8.8773 76.5887 8.8773C76.2978 8.8773 76.0214 8.82639 75.7596 8.72457C75.5014 8.62276 75.2742 8.47912 75.0778 8.29367C74.8814 8.10457 74.7251 7.87548 74.6087 7.60639C74.496 7.3373 74.4396 7.03367 74.4396 6.69548C74.4396 6.30276 74.5142 5.9573 74.6633 5.65912C74.8123 5.36094 75.0105 5.10094 75.2578 4.87912C75.5051 4.65367 75.7887 4.46276 76.1087 4.30639C76.4323 4.14639 76.7669 4.00821 77.1123 3.89185L76.9814 3.36821L78.3123 3.0573L79.3051 6.91912C79.3633 7.15548 79.4578 7.34639 79.5887 7.49185C79.7196 7.63367 79.8614 7.74457 80.0142 7.82457C80.1705 7.90094 80.3287 7.95367 80.4887 7.98276C80.6523 8.00821 80.7942 8.02094 80.9142 8.02094H81.0669V9.37912ZM77.7069 6.66821C77.7251 6.59185 77.7342 6.51367 77.7342 6.43367C77.7342 6.40821 77.7305 6.36457 77.7233 6.30276C77.7196 6.2373 77.7051 6.14639 77.6796 6.03003C77.6542 5.91367 77.6196 5.78821 77.576 5.65367C77.536 5.51912 77.4923 5.36821 77.4451 5.20094C76.8633 5.38639 76.4214 5.5973 76.1196 5.83367C75.8214 6.06639 75.6723 6.35548 75.6723 6.70094C75.6723 6.83548 75.7014 6.95548 75.7596 7.06094C75.8214 7.16639 75.8996 7.25367 75.9942 7.32276C76.0923 7.39185 76.2014 7.44094 76.3214 7.47003C76.3978 7.49185 76.4742 7.50276 76.5505 7.50276C76.5905 7.50276 76.6323 7.49912 76.676 7.49185C76.9487 7.45185 77.176 7.37185 77.3578 7.25185C77.5396 7.12821 77.656 6.93367 77.7069 6.66821ZM85.3323 8.02094V9.37912H84.9886C84.6795 9.37912 84.3977 9.3373 84.1432 9.25367C83.8886 9.17003 83.6741 9.04639 83.4995 8.88276C83.2959 9.05367 83.0541 9.17912 82.7741 9.25912C82.4977 9.33912 82.1813 9.37912 81.825 9.37912H80.8595V8.02094H81.825C82.0468 8.02094 82.2232 8.00094 82.3541 7.96094C82.4886 7.9173 82.5886 7.86457 82.6541 7.80276C82.7232 7.74094 82.7668 7.67185 82.785 7.59548C82.8068 7.51912 82.8177 7.44457 82.8177 7.37185V5.60457H84.1704V7.33367C84.1704 7.4973 84.2068 7.62639 84.2795 7.72094C84.3523 7.81185 84.4341 7.88094 84.525 7.92821C84.6195 7.97185 84.7123 7.99912 84.8032 8.01003C84.8941 8.0173 84.9559 8.02094 84.9886 8.02094H85.3323ZM82.0213 11.3373L83.0032 10.3446L84.0068 11.3482L83.0141 12.3409L82.0213 11.3373ZM89.5979 8.02094V9.37912H89.2542C88.9452 9.37912 88.6633 9.3373 88.4088 9.25367C88.1542 9.17003 87.9397 9.04639 87.7652 8.88276C87.5615 9.05367 87.3197 9.17912 87.0397 9.25912C86.7633 9.33912 86.447 9.37912 86.0906 9.37912H85.1252V8.02094H86.0906C86.3124 8.02094 86.4888 8.00094 86.6197 7.96094C86.7542 7.9173 86.8542 7.86457 86.9197 7.80276C86.9888 7.74094 87.0324 7.67185 87.0506 7.59548C87.0724 7.51912 87.0833 7.44457 87.0833 7.37185V5.60457H88.4361V7.33367C88.4361 7.4973 88.4724 7.62639 88.5452 7.72094C88.6179 7.81185 88.6997 7.88094 88.7906 7.92821C88.8852 7.97185 88.9779 7.99912 89.0688 8.01003C89.1597 8.0173 89.2215 8.02094 89.2542 8.02094H89.5979ZM86.4561 3.09548L87.4379 2.10276L88.4415 3.10639L87.4488 4.09912L86.4561 3.09548ZM93.6126 9.36821C92.9471 9.36821 92.4199 9.19548 92.0308 8.85003C91.8308 9.03548 91.609 9.17003 91.3653 9.25367C91.1217 9.3373 90.8708 9.37912 90.6126 9.37912H89.3853V8.02094H90.6126C90.6562 8.02094 90.7181 8.01367 90.7981 7.99912C90.8817 7.98457 90.9635 7.95003 91.0435 7.89548C91.1271 7.8373 91.1999 7.75367 91.2617 7.64457C91.3235 7.53185 91.3544 7.3773 91.3544 7.18094V5.61003H92.7126V7.15912C92.7126 7.4573 92.7817 7.67548 92.9199 7.81367C93.0617 7.94821 93.2926 8.01548 93.6126 8.01548C93.6562 8.01548 93.7181 8.00821 93.7981 7.99367C93.8817 7.97548 93.9635 7.9373 94.0435 7.87912C94.1271 7.82094 94.1999 7.73548 94.2617 7.62276C94.3235 7.50639 94.3544 7.35185 94.3544 7.15912V5.61003H95.7071V7.15912C95.7071 7.4573 95.7781 7.6773 95.9199 7.81912C96.0653 7.9573 96.2999 8.02639 96.6235 8.02639C96.6708 8.02639 96.7344 8.0173 96.8144 7.99912C96.8981 7.9773 96.9799 7.9373 97.0599 7.87912C97.1399 7.8173 97.209 7.73003 97.2671 7.6173C97.3253 7.50457 97.3544 7.35185 97.3544 7.15912C97.3544 7.07912 97.3471 6.98276 97.3326 6.87003C97.3217 6.7573 97.3053 6.63912 97.2835 6.51548C97.2653 6.38821 97.2435 6.26094 97.2181 6.13367C97.1926 6.00276 97.1671 5.87912 97.1417 5.76276C97.1162 5.64639 97.0908 5.54094 97.0653 5.44639C97.0435 5.35185 97.0253 5.2773 97.0108 5.22276L98.2926 4.80276C98.2999 4.82821 98.3144 4.88639 98.3362 4.9773C98.3581 5.06821 98.3835 5.18094 98.4126 5.31548C98.4453 5.45003 98.4781 5.59912 98.5108 5.76276C98.5435 5.92639 98.5726 6.09185 98.5981 6.25912C98.6271 6.42276 98.6508 6.58457 98.669 6.74457C98.6871 6.90094 98.6962 7.03912 98.6962 7.15912C98.6962 7.53003 98.6344 7.85548 98.5108 8.13548C98.3908 8.41185 98.2326 8.64276 98.0362 8.82821C97.8399 9.01003 97.6181 9.14639 97.3708 9.2373C97.1235 9.32821 96.8744 9.37548 96.6235 9.37912C95.9471 9.37912 95.4126 9.20094 95.0199 8.84457C94.8199 9.03003 94.5981 9.16457 94.3544 9.24821C94.1144 9.32821 93.8671 9.36821 93.6126 9.36821ZM94.8453 3.19912L93.9181 4.1373L92.9908 3.21003L93.9181 2.27185L94.8453 3.19912ZM97.1853 3.1773L96.269 4.10457L95.3144 3.18821L96.2526 2.25003L97.1853 3.1773ZM95.9799 1.63912L95.1071 2.51185L94.2453 1.65003L95.1181 0.777303L95.9799 1.63912ZM100.444 10.95C100.735 10.95 100.994 10.9391 101.219 10.9173C101.448 10.8991 101.65 10.87 101.824 10.83C102.003 10.7937 102.157 10.7446 102.288 10.6828C102.423 10.6246 102.539 10.5537 102.637 10.47C102.79 10.3464 102.904 10.2028 102.981 10.0391C103.061 9.87548 103.108 9.65548 103.123 9.37912H102.283C102.101 9.37912 101.915 9.36457 101.726 9.33548C101.537 9.30639 101.355 9.2573 101.181 9.18821C101.006 9.11548 100.841 9.02276 100.684 8.91003C100.532 8.7973 100.397 8.65912 100.281 8.49548C100.168 8.32821 100.077 8.13185 100.008 7.90639C99.9426 7.68094 99.9099 7.42276 99.9099 7.13185C99.9099 6.88094 99.9317 6.65912 99.9753 6.46639C100.019 6.27003 100.074 6.0973 100.139 5.94821C100.208 5.79912 100.284 5.67003 100.368 5.56094C100.452 5.44821 100.532 5.35003 100.608 5.26639C100.826 5.04821 101.074 4.88094 101.35 4.76458C101.626 4.64457 101.924 4.58457 102.244 4.58457C102.641 4.58457 102.979 4.65367 103.259 4.79185C103.543 4.92639 103.774 5.11367 103.952 5.35367C104.134 5.59367 104.266 5.87912 104.35 6.21003C104.434 6.5373 104.475 6.89367 104.475 7.27912V9.21548C104.475 9.7573 104.394 10.2118 104.23 10.5791C104.066 10.95 103.817 11.2682 103.483 11.5337C103.315 11.6646 103.134 11.7773 102.937 11.8718C102.741 11.97 102.521 12.0518 102.277 12.1173C102.034 12.1828 101.761 12.23 101.459 12.2591C101.161 12.2918 100.823 12.3082 100.444 12.3082V10.95ZM102.244 5.94276C101.935 5.94276 101.69 6.03912 101.508 6.23185C101.326 6.42457 101.235 6.72457 101.235 7.13185C101.235 7.29185 101.266 7.42821 101.328 7.54094C101.394 7.65367 101.475 7.74639 101.574 7.81912C101.675 7.88821 101.788 7.93912 101.912 7.97185C102.035 8.00457 102.159 8.02094 102.283 8.02094H103.123V7.27912C103.123 7.07185 103.106 6.89548 103.074 6.75003C103.041 6.60094 102.997 6.4773 102.943 6.37912C102.892 6.28094 102.832 6.20276 102.763 6.14458C102.697 6.08639 102.632 6.04276 102.566 6.01367C102.504 5.98457 102.444 5.96639 102.386 5.95912C102.328 5.94821 102.281 5.94276 102.244 5.94276ZM107.866 9.38457C107.728 9.38457 107.591 9.3773 107.457 9.36276C107.322 9.34821 107.186 9.32821 107.048 9.30276C106.91 9.2773 106.768 9.24639 106.622 9.21003C106.477 9.17003 106.324 9.12639 106.164 9.07912L105.515 8.88276L105.908 7.57367C106.224 7.68276 106.551 7.77912 106.89 7.86276C107.231 7.94639 107.553 8.00094 107.855 8.02639C107.953 8.03367 108.048 8.0373 108.139 8.0373C108.321 8.0373 108.502 8.0173 108.684 7.9773C108.87 7.9373 109.001 7.8373 109.077 7.6773C109.091 7.64821 109.099 7.61367 109.099 7.57367C109.099 7.54821 109.091 7.50821 109.077 7.45367C109.062 7.39912 109.026 7.33003 108.968 7.24639L106.933 4.27912L108.079 3.5373L108.45 4.11003C108.45 4.11367 108.455 4.12457 108.466 4.14276C108.481 4.16094 108.506 4.19912 108.542 4.2573C108.582 4.31548 108.637 4.39912 108.706 4.50821C108.779 4.61367 108.873 4.75367 108.99 4.92821C109.106 5.10276 109.248 5.31912 109.415 5.5773C109.586 5.83185 109.79 6.1373 110.026 6.49367C110.211 6.77367 110.326 7.06276 110.37 7.36094C110.381 7.4373 110.386 7.51185 110.386 7.58457C110.386 7.80276 110.342 8.01185 110.255 8.21185C110.193 8.3573 110.11 8.49185 110.004 8.61548C109.902 8.73548 109.782 8.84276 109.644 8.9373C109.386 9.11548 109.075 9.2373 108.711 9.30276C108.406 9.3573 108.124 9.38457 107.866 9.38457Z" fill="#005AA7"/>
</svg>
