<svg width="114" height="13" viewBox="0 0 114 13" fill="none" xmlns="http://www.w3.org/2000/svg">
<path d="M0.856049 9.56062C0.856049 9.4988 0.856049 9.42607 0.856049 9.34243C0.856049 9.2588 0.856049 9.17153 0.856049 9.08062C0.856049 8.98971 0.856049 8.90062 0.856049 8.81334C0.859685 8.72607 0.863322 8.64607 0.866958 8.57334V8.5788C0.870594 8.40425 0.872412 8.22425 0.872412 8.0388C0.876049 7.84971 0.877867 7.65153 0.877867 7.44425C0.877867 7.04425 0.872412 6.62971 0.861503 6.20062C0.854231 5.77153 0.828776 5.32607 0.78514 4.86425C0.741503 4.3988 0.674231 3.9188 0.583322 3.42425C0.492412 2.92607 0.363322 2.40971 0.196049 1.87516L1.46696 1.46062C1.65241 2.05334 1.79605 2.62243 1.89787 3.16789C2.00332 3.70971 2.07969 4.22971 2.12696 4.72789C2.17787 5.22243 2.20878 5.69698 2.21969 6.15153C2.23059 6.60607 2.23605 7.04243 2.23605 7.46062C2.23605 7.66789 2.23423 7.86789 2.23059 8.06062C2.23059 8.24971 2.22878 8.43153 2.22514 8.60607C2.2215 8.6788 2.21787 8.7588 2.21423 8.84607C2.21423 8.92971 2.21423 9.01516 2.21423 9.10243C2.21423 9.18971 2.21423 9.27334 2.21423 9.35334C2.21423 9.43334 2.21423 9.50243 2.21423 9.56062H0.856049ZM10.2054 1.49334C10.2345 1.62062 10.2654 1.76062 10.2981 1.91334C10.3345 2.06607 10.3654 2.22789 10.3909 2.3988C10.4199 2.56607 10.4436 2.74062 10.4618 2.92243C10.4799 3.10062 10.489 3.28062 10.489 3.46243C10.489 3.73153 10.4563 3.98789 10.3909 4.23153C10.3254 4.47516 10.2218 4.68971 10.0799 4.87516C9.94176 5.06062 9.76358 5.20789 9.5454 5.31698C9.32721 5.42607 9.0654 5.48062 8.75994 5.48062C8.65085 5.48062 8.53267 5.46971 8.4054 5.44789C8.28176 5.42607 8.1563 5.38971 8.02903 5.3388C7.90176 5.28425 7.77449 5.21334 7.64721 5.12607C7.52358 5.03516 7.4054 4.92062 7.29267 4.78243C7.12176 4.99334 6.9363 5.14971 6.7363 5.25153C6.53994 5.35334 6.34903 5.42607 6.16358 5.46971H6.16903C6.11449 5.48425 6.05449 5.49516 5.98903 5.50243C5.92358 5.50607 5.85812 5.50789 5.79267 5.50789C5.71267 5.50789 5.62903 5.50243 5.54176 5.49153C5.45449 5.47698 5.37267 5.45698 5.2963 5.43153C5.34358 5.99153 5.37085 6.52062 5.37812 7.0188C5.38903 7.51334 5.39449 7.96425 5.39449 8.37153V9.56062H4.04176V8.48062C4.04176 8.05153 4.0363 7.56971 4.0254 7.03516C4.01812 6.50062 3.98721 5.94425 3.93267 5.36607C3.88176 4.78425 3.80176 4.1988 3.69267 3.60971C3.58721 3.01698 3.4363 2.44971 3.23994 1.90789L4.52176 1.48243C4.55812 1.60607 4.59267 1.7188 4.6254 1.82062C4.65812 1.92243 4.68903 2.02607 4.71812 2.13153C4.74721 2.23698 4.7763 2.34789 4.8054 2.46425C4.83812 2.58062 4.87267 2.71516 4.90903 2.86789C4.9454 3.00607 4.99449 3.15153 5.0563 3.30425C5.11812 3.45334 5.18903 3.58971 5.26903 3.71334C5.35267 3.83698 5.4454 3.9388 5.54721 4.0188C5.65267 4.0988 5.76721 4.1388 5.89085 4.1388C5.97449 4.12425 6.05267 4.08971 6.1254 4.03516C6.19812 3.98062 6.26176 3.89698 6.3163 3.78425C6.37085 3.67153 6.41267 3.52789 6.44176 3.35334C6.47449 3.1788 6.49085 2.96425 6.49085 2.70971C6.49085 2.62971 6.49085 2.5588 6.49085 2.49698C6.49085 2.43153 6.48903 2.36607 6.4854 2.30062C6.4854 2.23153 6.48176 2.15516 6.47449 2.07153C6.46721 1.98789 6.45812 1.88425 6.44721 1.76062L7.78903 1.64062C7.83267 2.08425 7.8763 2.46425 7.91994 2.78062C7.96358 3.09334 8.0163 3.34971 8.07812 3.54971C8.13994 3.74607 8.21812 3.88971 8.31267 3.98062C8.41085 4.07153 8.53449 4.11698 8.68358 4.11698C8.80358 4.11698 8.90903 4.06243 8.99994 3.95334C9.09085 3.84425 9.1363 3.69153 9.1363 3.49516C9.1363 3.34971 9.12721 3.1988 9.10903 3.04243C9.09085 2.88607 9.06903 2.73516 9.04358 2.58971C9.01812 2.44425 8.99085 2.30971 8.96176 2.18607C8.93267 2.06243 8.9054 1.96062 8.87994 1.88062L10.2054 1.49334ZM14.6661 9.88789C14.5897 9.68062 14.5224 9.42971 14.4642 9.13516C14.4097 8.83698 14.3624 8.51516 14.3224 8.16971C14.2861 7.82062 14.2552 7.45516 14.2297 7.07334C14.2042 6.69153 14.1861 6.31334 14.1752 5.9388H13.3952C13.1224 5.9388 12.8515 5.90607 12.5824 5.84062C12.3133 5.77153 12.0697 5.65698 11.8515 5.49698C11.637 5.33698 11.4624 5.12607 11.3279 4.86425C11.1933 4.5988 11.1261 4.26971 11.1261 3.87698C11.1261 3.49516 11.1806 3.15698 11.2897 2.86243C11.3988 2.56425 11.5515 2.31334 11.7479 2.10971C11.9479 1.90243 12.1842 1.74607 12.457 1.64062C12.7297 1.53153 13.0297 1.47698 13.357 1.47698C13.717 1.47698 14.0315 1.54243 14.3006 1.67334C14.5697 1.80062 14.7933 1.9788 14.9715 2.20789C15.1497 2.43334 15.2824 2.70062 15.3697 3.00971C15.4606 3.3188 15.5061 3.65516 15.5061 4.0188C15.5061 4.70971 15.5152 5.34789 15.5333 5.93334C15.5552 6.51516 15.5842 7.03516 15.6206 7.49334C15.657 7.95153 15.7006 8.34425 15.7515 8.67153C15.8024 8.99516 15.8606 9.24243 15.9261 9.41334L14.6661 9.88789ZM14.1533 4.59698C14.1497 4.49153 14.1479 4.38971 14.1479 4.29153C14.1479 4.19334 14.1479 4.10243 14.1479 4.0188C14.1479 3.74607 14.1152 3.52971 14.0497 3.36971C13.9879 3.20607 13.9133 3.08243 13.8261 2.9988C13.7388 2.91153 13.6497 2.85698 13.5588 2.83516C13.4715 2.80971 13.4042 2.79698 13.357 2.79698C13.2188 2.79698 13.0915 2.8188 12.9752 2.86243C12.8588 2.90607 12.757 2.97334 12.6697 3.06425C12.5861 3.15153 12.5206 3.26425 12.4733 3.40243C12.4261 3.53698 12.4024 3.69516 12.4024 3.87698C12.4024 4.0188 12.437 4.13698 12.5061 4.23153C12.5752 4.32243 12.6606 4.39516 12.7624 4.44971C12.8642 4.50425 12.9715 4.54243 13.0842 4.56425C13.2006 4.58607 13.3042 4.59698 13.3952 4.59698H14.1533ZM20.0215 9.88789C19.9452 9.68062 19.8779 9.42971 19.8197 9.13516C19.7652 8.83698 19.7179 8.51516 19.6779 8.16971C19.6415 7.82062 19.6106 7.45516 19.5852 7.07334C19.5597 6.69153 19.5415 6.31334 19.5306 5.9388H18.7506C18.4779 5.9388 18.207 5.90607 17.9379 5.84062C17.6688 5.77153 17.4252 5.65698 17.207 5.49698C16.9924 5.33698 16.8179 5.12607 16.6833 4.86425C16.5488 4.5988 16.4815 4.26971 16.4815 3.87698C16.4815 3.49516 16.5361 3.15698 16.6452 2.86243C16.7543 2.56425 16.907 2.31334 17.1033 2.10971C17.3033 1.90243 17.5397 1.74607 17.8124 1.64062C18.0852 1.53153 18.3852 1.47698 18.7124 1.47698C19.0724 1.47698 19.387 1.54243 19.6561 1.67334C19.9252 1.80062 20.1488 1.9788 20.327 2.20789C20.5052 2.43334 20.6379 2.70062 20.7252 3.00971C20.8161 3.3188 20.8615 3.65516 20.8615 4.0188C20.8615 4.70971 20.8706 5.34789 20.8888 5.93334C20.9106 6.51516 20.9397 7.03516 20.9761 7.49334C21.0124 7.95153 21.0561 8.34425 21.107 8.67153C21.1579 8.99516 21.2161 9.24243 21.2815 9.41334L20.0215 9.88789ZM19.5088 4.59698C19.5052 4.49153 19.5034 4.38971 19.5034 4.29153C19.5034 4.19334 19.5034 4.10243 19.5034 4.0188C19.5034 3.74607 19.4706 3.52971 19.4052 3.36971C19.3433 3.20607 19.2688 3.08243 19.1815 2.9988C19.0943 2.91153 19.0052 2.85698 18.9143 2.83516C18.827 2.80971 18.7597 2.79698 18.7124 2.79698C18.5743 2.79698 18.447 2.8188 18.3306 2.86243C18.2143 2.90607 18.1124 2.97334 18.0252 3.06425C17.9415 3.15153 17.8761 3.26425 17.8288 3.40243C17.7815 3.53698 17.7579 3.69516 17.7579 3.87698C17.7579 4.0188 17.7924 4.13698 17.8615 4.23153C17.9306 4.32243 18.0161 4.39516 18.1179 4.44971C18.2197 4.50425 18.327 4.54243 18.4397 4.56425C18.5561 4.58607 18.6597 4.59698 18.7506 4.59698H19.5088ZM32.0702 9.56607H31.6284C31.1448 9.56607 30.683 9.35334 30.243 8.92789C30.123 9.06971 29.9793 9.18789 29.8121 9.28243C29.6484 9.37334 29.4721 9.44607 29.283 9.50062C29.0939 9.55516 28.9011 9.59334 28.7048 9.61516C28.5121 9.63698 28.3266 9.64789 28.1484 9.64789C28.0102 9.64789 27.8702 9.6388 27.7284 9.62062C27.5866 9.60607 27.4248 9.5788 27.243 9.5388C27.0648 9.50243 26.8593 9.45334 26.6266 9.39153C26.3939 9.32607 26.1157 9.24425 25.7921 9.14607L26.1848 7.84243C26.4066 7.92971 26.6357 8.00789 26.8721 8.07698C27.1084 8.14243 27.3393 8.19698 27.5648 8.24062C27.7902 8.28062 28.0066 8.30607 28.2139 8.31698C28.2975 8.32425 28.3775 8.32789 28.4539 8.32789C28.5666 8.32789 28.6884 8.3188 28.8193 8.30062C28.9502 8.28243 29.0721 8.24425 29.1848 8.18607C29.3011 8.12425 29.3793 8.04243 29.4193 7.94062C29.4375 7.89698 29.4466 7.85698 29.4466 7.82062C29.4466 7.78789 29.4357 7.74789 29.4139 7.70062C29.3957 7.65334 29.3648 7.59698 29.3211 7.53153C29.2775 7.46243 29.2211 7.37334 29.1521 7.26425L27.2157 4.54243L28.3611 3.80607L30.3084 6.75698C30.4139 6.91698 30.5248 7.08243 30.6411 7.25334C30.7575 7.42425 30.8739 7.58062 30.9902 7.72243C31.1066 7.86062 31.2193 7.97516 31.3284 8.06607C31.4375 8.15698 31.5375 8.20243 31.6284 8.20243H32.0702V9.56607ZM36.3244 8.20789V9.56607H35.9808C35.6717 9.56607 35.3899 9.52425 35.1354 9.44062C34.8808 9.35698 34.6663 9.23334 34.4917 9.06971C34.2881 9.24062 34.0463 9.36607 33.7663 9.44607C33.4899 9.52607 33.1735 9.56607 32.8172 9.56607H31.8517V8.20789H32.8172C33.039 8.20789 33.2154 8.18789 33.3463 8.14789C33.4808 8.10425 33.5808 8.05153 33.6463 7.98971C33.7154 7.92789 33.759 7.8588 33.7772 7.78243C33.799 7.70607 33.8099 7.63153 33.8099 7.5588V5.79153H35.1626V7.52062C35.1626 7.68425 35.199 7.81334 35.2717 7.90789C35.3444 7.9988 35.4263 8.06789 35.5172 8.11516C35.6117 8.1588 35.7044 8.18607 35.7954 8.19698C35.8863 8.20425 35.9481 8.20789 35.9808 8.20789H36.3244ZM33.1826 3.28243L34.1644 2.28971L35.1681 3.29334L34.1754 4.28607L33.1826 3.28243ZM39.2428 4.75516C39.581 4.75516 39.8828 4.81698 40.1483 4.94062C40.4173 5.06425 40.6446 5.22789 40.8301 5.43153C41.0155 5.63153 41.1573 5.86062 41.2555 6.1188C41.3537 6.37698 41.4028 6.64243 41.4028 6.91516C41.4028 7.06789 41.3937 7.20243 41.3755 7.3188C41.3573 7.43153 41.3283 7.53698 41.2883 7.63516C41.2519 7.72971 41.2064 7.82243 41.1519 7.91334C41.0973 8.00062 41.0337 8.09516 40.961 8.19698C41.0264 8.20062 41.0973 8.20425 41.1737 8.20789C41.2537 8.20789 41.3319 8.20789 41.4083 8.20789C41.4883 8.20789 41.5646 8.20789 41.6373 8.20789C41.7101 8.20789 41.7737 8.20789 41.8283 8.20789H42.221V9.56607H41.8283C41.5955 9.56607 41.3573 9.5588 41.1137 9.54425C40.8737 9.52971 40.6373 9.50971 40.4046 9.48425C40.1755 9.45516 39.9573 9.42243 39.7501 9.38607C39.5428 9.34607 39.3573 9.30243 39.1937 9.25516C38.8628 9.34971 38.4919 9.42607 38.081 9.48425C37.6701 9.5388 37.201 9.56607 36.6737 9.56607H36.101V8.20789H36.6737C36.7719 8.20789 36.8501 8.20971 36.9083 8.21334C36.9664 8.21334 37.0192 8.21334 37.0664 8.21334C37.1137 8.21334 37.1628 8.21334 37.2137 8.21334C37.2646 8.20971 37.3283 8.20425 37.4046 8.19698C37.2519 7.99334 37.1355 7.79153 37.0555 7.59153C36.9755 7.39153 36.9355 7.16607 36.9355 6.91516C36.9355 6.62789 36.9955 6.35334 37.1155 6.09153C37.2355 5.82971 37.3992 5.60062 37.6064 5.40425C37.8173 5.20425 38.0628 5.04607 38.3428 4.92971C38.6228 4.81334 38.9228 4.75516 39.2428 4.75516ZM38.2228 6.92607C38.2228 7.18425 38.3137 7.40425 38.4955 7.58607C38.6773 7.76789 38.9137 7.91516 39.2046 8.02789C39.3428 7.97334 39.4701 7.91153 39.5864 7.84243C39.7028 7.77334 39.8028 7.69516 39.8864 7.60789C39.9737 7.51698 40.041 7.41516 40.0883 7.30243C40.1392 7.18607 40.1646 7.05698 40.1646 6.91516C40.1646 6.82789 40.1428 6.73698 40.0992 6.64243C40.0555 6.54789 39.9937 6.46243 39.9137 6.38607C39.8337 6.30607 39.7373 6.24062 39.6246 6.18971C39.5119 6.1388 39.3846 6.11334 39.2428 6.11334C39.0828 6.11334 38.9392 6.13698 38.8119 6.18425C38.6846 6.22789 38.5773 6.28789 38.4901 6.36425C38.4028 6.43698 38.3355 6.52243 38.2883 6.62062C38.2446 6.7188 38.2228 6.82062 38.2228 6.92607ZM38.2064 2.44789L39.1883 1.45516L40.1919 2.4588L39.1992 3.45153L38.2064 2.44789ZM46.222 9.55516C45.5565 9.55516 45.0292 9.38243 44.6402 9.03698C44.4402 9.22243 44.2183 9.35698 43.9747 9.44062C43.7311 9.52425 43.4802 9.56607 43.222 9.56607H41.9947V8.20789H43.222C43.2656 8.20789 43.3274 8.20062 43.4074 8.18607C43.4911 8.17153 43.5729 8.13698 43.6529 8.08243C43.7365 8.02425 43.8092 7.94062 43.8711 7.83153C43.9329 7.7188 43.9638 7.56425 43.9638 7.36789V5.79698H45.322V7.34607C45.322 7.64425 45.3911 7.86243 45.5292 8.00062C45.6711 8.13516 45.902 8.20243 46.222 8.20243C46.2656 8.20243 46.3274 8.19516 46.4074 8.18062C46.4911 8.16243 46.5729 8.12425 46.6529 8.06607C46.7365 8.00789 46.8092 7.92243 46.8711 7.80971C46.9329 7.69334 46.9638 7.5388 46.9638 7.34607V5.79698H48.3165V7.34607C48.3165 7.64425 48.3874 7.86425 48.5292 8.00607C48.6747 8.14425 48.9092 8.21334 49.2329 8.21334C49.2802 8.21334 49.3438 8.20425 49.4238 8.18607C49.5074 8.16425 49.5892 8.12425 49.6692 8.06607C49.7492 8.00425 49.8183 7.91698 49.8765 7.80425C49.9347 7.69153 49.9638 7.5388 49.9638 7.34607C49.9638 7.26607 49.9565 7.16971 49.942 7.05698C49.9311 6.94425 49.9147 6.82607 49.8929 6.70243C49.8747 6.57516 49.8529 6.44789 49.8274 6.32062C49.802 6.18971 49.7765 6.06607 49.7511 5.94971C49.7256 5.83334 49.7002 5.72789 49.6747 5.63334C49.6529 5.5388 49.6347 5.46425 49.6202 5.40971L50.902 4.98971C50.9092 5.01516 50.9238 5.07334 50.9456 5.16425C50.9674 5.25516 50.9929 5.36789 51.022 5.50243C51.0547 5.63698 51.0874 5.78607 51.1202 5.94971C51.1529 6.11334 51.182 6.2788 51.2074 6.44607C51.2365 6.60971 51.2602 6.77153 51.2783 6.93153C51.2965 7.08789 51.3056 7.22607 51.3056 7.34607C51.3056 7.71698 51.2438 8.04243 51.1202 8.32243C51.0002 8.5988 50.842 8.82971 50.6456 9.01516C50.4492 9.19698 50.2274 9.33334 49.9802 9.42425C49.7329 9.51516 49.4838 9.56243 49.2329 9.56607C48.5565 9.56607 48.022 9.38789 47.6292 9.03153C47.4292 9.21698 47.2074 9.35153 46.9638 9.43516C46.7238 9.51516 46.4765 9.55516 46.222 9.55516ZM54.2211 9.56607H52.8629V1.70062H54.2211V9.56607ZM62.7129 9.88789C62.6366 9.68062 62.5693 9.42971 62.5111 9.13516C62.4566 8.83698 62.4093 8.51516 62.3693 8.16971C62.3329 7.82062 62.302 7.45516 62.2766 7.07334C62.2511 6.69153 62.2329 6.31334 62.222 5.9388H61.442C61.1693 5.9388 60.8984 5.90607 60.6293 5.84062C60.3602 5.77153 60.1166 5.65698 59.8984 5.49698C59.6838 5.33698 59.5093 5.12607 59.3748 4.86425C59.2402 4.5988 59.1729 4.26971 59.1729 3.87698C59.1729 3.49516 59.2275 3.15698 59.3366 2.86243C59.4457 2.56425 59.5984 2.31334 59.7948 2.10971C59.9948 1.90243 60.2311 1.74607 60.5038 1.64062C60.7766 1.53153 61.0766 1.47698 61.4038 1.47698C61.7638 1.47698 62.0784 1.54243 62.3475 1.67334C62.6166 1.80062 62.8402 1.9788 63.0184 2.20789C63.1966 2.43334 63.3293 2.70062 63.4166 3.00971C63.5075 3.3188 63.5529 3.65516 63.5529 4.0188C63.5529 4.70971 63.562 5.34789 63.5802 5.93334C63.602 6.51516 63.6311 7.03516 63.6675 7.49334C63.7038 7.95153 63.7475 8.34425 63.7984 8.67153C63.8493 8.99516 63.9075 9.24243 63.9729 9.41334L62.7129 9.88789ZM62.2002 4.59698C62.1966 4.49153 62.1948 4.38971 62.1948 4.29153C62.1948 4.19334 62.1948 4.10243 62.1948 4.0188C62.1948 3.74607 62.162 3.52971 62.0966 3.36971C62.0348 3.20607 61.9602 3.08243 61.8729 2.9988C61.7857 2.91153 61.6966 2.85698 61.6057 2.83516C61.5184 2.80971 61.4511 2.79698 61.4038 2.79698C61.2657 2.79698 61.1384 2.8188 61.022 2.86243C60.9057 2.90607 60.8038 2.97334 60.7166 3.06425C60.6329 3.15153 60.5675 3.26425 60.5202 3.40243C60.4729 3.53698 60.4493 3.69516 60.4493 3.87698C60.4493 4.0188 60.4838 4.13698 60.5529 4.23153C60.622 4.32243 60.7075 4.39516 60.8093 4.44971C60.9111 4.50425 61.0184 4.54243 61.1311 4.56425C61.2475 4.58607 61.3511 4.59698 61.442 4.59698H62.2002ZM75.1489 9.56607H74.9962C74.7126 9.56607 74.4398 9.5388 74.178 9.48425C73.9162 9.43334 73.6744 9.35516 73.4526 9.24971C73.2307 9.14062 73.0326 9.00243 72.858 8.83516C72.6871 8.66789 72.5471 8.46971 72.438 8.24062C72.3507 8.37516 72.238 8.49516 72.0998 8.60062C71.9653 8.70243 71.818 8.78789 71.658 8.85698C71.498 8.92607 71.3326 8.9788 71.1616 9.01516C70.9907 9.04789 70.8271 9.06425 70.6707 9.06425C70.3798 9.06425 70.1035 9.01334 69.8416 8.91153C69.5835 8.80971 69.3562 8.66607 69.1598 8.48062C68.9635 8.29153 68.8071 8.06243 68.6907 7.79334C68.578 7.52425 68.5216 7.22062 68.5216 6.88243C68.5216 6.48971 68.5962 6.14425 68.7453 5.84607C68.8944 5.54789 69.0926 5.28789 69.3398 5.06607C69.5871 4.84062 69.8707 4.64971 70.1907 4.49334C70.5144 4.33334 70.8489 4.19516 71.1944 4.0788L71.0635 3.55516L72.3944 3.24425L73.3871 7.10607C73.4453 7.34243 73.5398 7.53334 73.6707 7.6788C73.8016 7.82062 73.9435 7.93153 74.0962 8.01153C74.2526 8.08789 74.4107 8.14062 74.5707 8.16971C74.7344 8.19516 74.8762 8.20789 74.9962 8.20789H75.1489V9.56607ZM71.7889 6.85516C71.8071 6.7788 71.8162 6.70062 71.8162 6.62062C71.8162 6.59516 71.8126 6.55153 71.8053 6.48971C71.8016 6.42425 71.7871 6.33334 71.7616 6.21698C71.7362 6.10062 71.7016 5.97516 71.658 5.84062C71.618 5.70607 71.5744 5.55516 71.5271 5.38789C70.9453 5.57334 70.5035 5.78425 70.2016 6.02062C69.9035 6.25334 69.7544 6.54243 69.7544 6.88789C69.7544 7.02243 69.7835 7.14243 69.8416 7.24789C69.9035 7.35334 69.9816 7.44062 70.0762 7.50971C70.1744 7.5788 70.2835 7.62789 70.4035 7.65698C70.4798 7.6788 70.5562 7.68971 70.6326 7.68971C70.6726 7.68971 70.7144 7.68607 70.758 7.6788C71.0307 7.6388 71.258 7.5588 71.4398 7.4388C71.6216 7.31516 71.738 7.12062 71.7889 6.85516ZM79.4143 8.20789V9.56607H79.0707C78.7616 9.56607 78.4797 9.52425 78.2252 9.44062C77.9707 9.35698 77.7561 9.23334 77.5816 9.06971C77.3779 9.24062 77.1361 9.36607 76.8561 9.44607C76.5797 9.52607 76.2634 9.56607 75.907 9.56607H74.9416V8.20789H75.907C76.1288 8.20789 76.3052 8.18789 76.4361 8.14789C76.5707 8.10425 76.6707 8.05153 76.7361 7.98971C76.8052 7.92789 76.8488 7.8588 76.867 7.78243C76.8888 7.70607 76.8997 7.63153 76.8997 7.5588V5.79153H78.2525V7.52062C78.2525 7.68425 78.2888 7.81334 78.3616 7.90789C78.4343 7.9988 78.5161 8.06789 78.607 8.11516C78.7016 8.1588 78.7943 8.18607 78.8852 8.19698C78.9761 8.20425 79.0379 8.20789 79.0707 8.20789H79.4143ZM76.1034 11.5243L77.0852 10.5315L78.0888 11.5352L77.0961 12.5279L76.1034 11.5243ZM83.6799 8.20789V9.56607H83.3363C83.0272 9.56607 82.7454 9.52425 82.4908 9.44062C82.2363 9.35698 82.0217 9.23334 81.8472 9.06971C81.6435 9.24062 81.4017 9.36607 81.1217 9.44607C80.8454 9.52607 80.529 9.56607 80.1726 9.56607H79.2072V8.20789H80.1726C80.3945 8.20789 80.5708 8.18789 80.7017 8.14789C80.8363 8.10425 80.9363 8.05153 81.0017 7.98971C81.0708 7.92789 81.1145 7.8588 81.1326 7.78243C81.1545 7.70607 81.1654 7.63153 81.1654 7.5588V5.79153H82.5181V7.52062C82.5181 7.68425 82.5545 7.81334 82.6272 7.90789C82.6999 7.9988 82.7817 8.06789 82.8726 8.11516C82.9672 8.1588 83.0599 8.18607 83.1508 8.19698C83.2417 8.20425 83.3035 8.20789 83.3363 8.20789H83.6799ZM80.5381 3.28243L81.5199 2.28971L82.5235 3.29334L81.5308 4.28607L80.5381 3.28243ZM87.6946 9.55516C87.0292 9.55516 86.5019 9.38243 86.1128 9.03698C85.9128 9.22243 85.691 9.35698 85.4474 9.44062C85.2037 9.52425 84.9528 9.56607 84.6946 9.56607H83.4674V8.20789H84.6946C84.7383 8.20789 84.8001 8.20062 84.8801 8.18607C84.9637 8.17153 85.0455 8.13698 85.1255 8.08243C85.2092 8.02425 85.2819 7.94062 85.3437 7.83153C85.4055 7.7188 85.4364 7.56425 85.4364 7.36789V5.79698H86.7946V7.34607C86.7946 7.64425 86.8637 7.86243 87.0019 8.00062C87.1437 8.13516 87.3746 8.20243 87.6946 8.20243C87.7383 8.20243 87.8001 8.19516 87.8801 8.18062C87.9637 8.16243 88.0455 8.12425 88.1255 8.06607C88.2092 8.00789 88.2819 7.92243 88.3437 7.80971C88.4055 7.69334 88.4364 7.5388 88.4364 7.34607V5.79698H89.7892V7.34607C89.7892 7.64425 89.8601 7.86425 90.0019 8.00607C90.1474 8.14425 90.3819 8.21334 90.7055 8.21334C90.7528 8.21334 90.8164 8.20425 90.8964 8.18607C90.9801 8.16425 91.0619 8.12425 91.1419 8.06607C91.2219 8.00425 91.291 7.91698 91.3492 7.80425C91.4074 7.69153 91.4364 7.5388 91.4364 7.34607C91.4364 7.26607 91.4292 7.16971 91.4146 7.05698C91.4037 6.94425 91.3874 6.82607 91.3655 6.70243C91.3474 6.57516 91.3255 6.44789 91.3001 6.32062C91.2746 6.18971 91.2492 6.06607 91.2237 5.94971C91.1983 5.83334 91.1728 5.72789 91.1474 5.63334C91.1255 5.5388 91.1074 5.46425 91.0928 5.40971L92.3746 4.98971C92.3819 5.01516 92.3964 5.07334 92.4183 5.16425C92.4401 5.25516 92.4655 5.36789 92.4946 5.50243C92.5274 5.63698 92.5601 5.78607 92.5928 5.94971C92.6255 6.11334 92.6546 6.2788 92.6801 6.44607C92.7092 6.60971 92.7328 6.77153 92.751 6.93153C92.7692 7.08789 92.7783 7.22607 92.7783 7.34607C92.7783 7.71698 92.7164 8.04243 92.5928 8.32243C92.4728 8.5988 92.3146 8.82971 92.1183 9.01516C91.9219 9.19698 91.7001 9.33334 91.4528 9.42425C91.2055 9.51516 90.9564 9.56243 90.7055 9.56607C90.0292 9.56607 89.4946 9.38789 89.1019 9.03153C88.9019 9.21698 88.6801 9.35153 88.4364 9.43516C88.1964 9.51516 87.9492 9.55516 87.6946 9.55516ZM88.9274 3.38607L88.0001 4.32425L87.0728 3.39698L88.0001 2.4588L88.9274 3.38607ZM91.2674 3.36425L90.351 4.29153L89.3964 3.37516L90.3346 2.43698L91.2674 3.36425ZM90.0619 1.82607L89.1892 2.6988L88.3274 1.83698L89.2001 0.964253L90.0619 1.82607ZM104.094 9.56607H103.942C103.658 9.56607 103.385 9.5388 103.123 9.48425C102.862 9.43334 102.62 9.35516 102.398 9.24971C102.176 9.14062 101.978 9.00243 101.803 8.83516C101.632 8.66789 101.492 8.46971 101.383 8.24062C101.296 8.37516 101.183 8.49516 101.045 8.60062C100.911 8.70243 100.763 8.78789 100.603 8.85698C100.443 8.92607 100.278 8.9788 100.107 9.01516C99.936 9.04789 99.7724 9.06425 99.616 9.06425C99.3251 9.06425 99.0488 9.01334 98.787 8.91153C98.5288 8.80971 98.3015 8.66607 98.1051 8.48062C97.9088 8.29153 97.7524 8.06243 97.636 7.79334C97.5233 7.52425 97.467 7.22062 97.467 6.88243C97.467 6.48971 97.5415 6.14425 97.6906 5.84607C97.8397 5.54789 98.0379 5.28789 98.2851 5.06607C98.5324 4.84062 98.816 4.64971 99.136 4.49334C99.4597 4.33334 99.7942 4.19516 100.14 4.0788L100.009 3.55516L101.34 3.24425L102.332 7.10607C102.391 7.34243 102.485 7.53334 102.616 7.6788C102.747 7.82062 102.889 7.93153 103.042 8.01153C103.198 8.08789 103.356 8.14062 103.516 8.16971C103.68 8.19516 103.822 8.20789 103.942 8.20789H104.094V9.56607ZM100.734 6.85516C100.752 6.7788 100.762 6.70062 100.762 6.62062C100.762 6.59516 100.758 6.55153 100.751 6.48971C100.747 6.42425 100.732 6.33334 100.707 6.21698C100.682 6.10062 100.647 5.97516 100.603 5.84062C100.563 5.70607 100.52 5.55516 100.472 5.38789C99.8906 5.57334 99.4488 5.78425 99.147 6.02062C98.8488 6.25334 98.6997 6.54243 98.6997 6.88789C98.6997 7.02243 98.7288 7.14243 98.787 7.24789C98.8488 7.35334 98.927 7.44062 99.0215 7.50971C99.1197 7.5788 99.2288 7.62789 99.3488 7.65698C99.4251 7.6788 99.5015 7.68971 99.5779 7.68971C99.6179 7.68971 99.6597 7.68607 99.7033 7.6788C99.976 7.6388 100.203 7.5588 100.385 7.4388C100.567 7.31516 100.683 7.12062 100.734 6.85516ZM108.109 9.55516C107.443 9.55516 106.916 9.38243 106.527 9.03698C106.327 9.22243 106.105 9.35698 105.861 9.44062C105.618 9.52425 105.367 9.56607 105.109 9.56607H103.881V8.20789H105.109C105.152 8.20789 105.214 8.20062 105.294 8.18607C105.378 8.17153 105.46 8.13698 105.54 8.08243C105.623 8.02425 105.696 7.94062 105.758 7.83153C105.82 7.7188 105.851 7.56425 105.851 7.36789V5.79698H107.209V7.34607C107.209 7.64425 107.278 7.86243 107.416 8.00062C107.558 8.13516 107.789 8.20243 108.109 8.20243C108.152 8.20243 108.214 8.19516 108.294 8.18062C108.378 8.16243 108.46 8.12425 108.54 8.06607C108.623 8.00789 108.696 7.92243 108.758 7.80971C108.82 7.69334 108.851 7.5388 108.851 7.34607V5.79698H110.203V7.34607C110.203 7.64425 110.274 7.86425 110.416 8.00607C110.561 8.14425 110.796 8.21334 111.12 8.21334C111.167 8.21334 111.231 8.20425 111.311 8.18607C111.394 8.16425 111.476 8.12425 111.556 8.06607C111.636 8.00425 111.705 7.91698 111.763 7.80425C111.821 7.69153 111.851 7.5388 111.851 7.34607C111.851 7.26607 111.843 7.16971 111.829 7.05698C111.818 6.94425 111.801 6.82607 111.78 6.70243C111.761 6.57516 111.74 6.44789 111.714 6.32062C111.689 6.18971 111.663 6.06607 111.638 5.94971C111.612 5.83334 111.587 5.72789 111.561 5.63334C111.54 5.5388 111.521 5.46425 111.507 5.40971L112.789 4.98971C112.796 5.01516 112.811 5.07334 112.832 5.16425C112.854 5.25516 112.88 5.36789 112.909 5.50243C112.941 5.63698 112.974 5.78607 113.007 5.94971C113.04 6.11334 113.069 6.2788 113.094 6.44607C113.123 6.60971 113.147 6.77153 113.165 6.93153C113.183 7.08789 113.192 7.22607 113.192 7.34607C113.192 7.71698 113.131 8.04243 113.007 8.32243C112.887 8.5988 112.729 8.82971 112.532 9.01516C112.336 9.19698 112.114 9.33334 111.867 9.42425C111.62 9.51516 111.371 9.56243 111.12 9.56607C110.443 9.56607 109.909 9.38789 109.516 9.03153C109.316 9.21698 109.094 9.35153 108.851 9.43516C108.611 9.51516 108.363 9.55516 108.109 9.55516Z" fill="#005AA7"/>
</svg>
