<svg width="125" height="15" viewBox="0 0 125 15" fill="none" xmlns="http://www.w3.org/2000/svg">
<path d="M1.32089 9.89008C1.32089 9.82827 1.32089 9.75554 1.32089 9.6719C1.32089 9.58827 1.32089 9.50099 1.32089 9.41008C1.32089 9.31918 1.32089 9.23008 1.32089 9.14281C1.32453 9.05554 1.32817 8.97554 1.3318 8.90281V8.90827C1.33544 8.73372 1.33726 8.55372 1.33726 8.36827C1.34089 8.17918 1.34271 7.98099 1.34271 7.77372C1.34271 7.37372 1.33726 6.95918 1.32635 6.53008C1.31907 6.10099 1.29362 5.65554 1.24998 5.19372C1.20635 4.72827 1.13907 4.24827 1.04817 3.75372C0.957256 3.25554 0.828165 2.73918 0.660893 2.20463L1.9318 1.79008C2.11726 2.38281 2.26089 2.9519 2.36271 3.49736C2.46817 4.03918 2.54453 4.55918 2.5918 5.05736C2.64271 5.5519 2.67362 6.02645 2.68453 6.48099C2.69544 6.93554 2.70089 7.3719 2.70089 7.79008C2.70089 7.99736 2.69907 8.19736 2.69544 8.39008C2.69544 8.57918 2.69362 8.76099 2.68998 8.93554C2.68635 9.00827 2.68271 9.08827 2.67907 9.17554C2.67907 9.25918 2.67907 9.34463 2.67907 9.4319C2.67907 9.51918 2.67907 9.60281 2.67907 9.68281C2.67907 9.76281 2.67907 9.8319 2.67907 9.89008H1.32089ZM8.88115 4.76827C8.98297 4.76827 9.08297 4.76827 9.18115 4.76827C9.27933 4.76463 9.37751 4.75918 9.47569 4.7519C9.57388 4.74463 9.67569 4.73554 9.78115 4.72463C9.89024 4.71008 10.0066 4.6919 10.1302 4.67008L10.4357 5.89736C10.2466 5.9519 10.0648 5.99918 9.89024 6.03918C9.71569 6.07554 9.53569 6.10645 9.35024 6.1319C9.16478 6.15372 8.9666 6.1719 8.75569 6.18645C8.54842 6.19736 8.31388 6.20281 8.05206 6.20281C7.67388 6.20281 7.28842 6.17372 6.89569 6.11554C6.5066 6.05736 6.13569 5.9519 5.78297 5.79918C5.80478 6.09372 5.82297 6.36281 5.83751 6.60645C5.85569 6.85008 5.86842 7.08099 5.87569 7.29918C5.88297 7.51736 5.88842 7.73008 5.89206 7.93736C5.89569 8.14463 5.89751 8.35918 5.89751 8.58099C5.89751 8.73372 5.89569 8.89008 5.89206 9.05008C5.89206 9.20645 5.89206 9.37736 5.89206 9.56281V9.90099H4.53933V9.55736C4.53933 9.02281 4.53569 8.52281 4.52842 8.05736C4.52478 7.5919 4.51206 7.1519 4.49024 6.73736C4.47206 6.32281 4.44478 5.92645 4.40842 5.54827C4.37206 5.17008 4.32297 4.79918 4.26115 4.43554C4.19933 4.0719 4.12297 3.71008 4.03206 3.35008C3.94115 2.99008 3.83206 2.62099 3.70478 2.24281L5.01388 1.82827C5.07206 2.01736 5.12478 2.20463 5.17206 2.39008C5.22297 2.57554 5.27206 2.76463 5.31933 2.95736C5.34842 3.06281 5.37388 3.1719 5.39569 3.28463C5.42115 3.39372 5.44842 3.50281 5.47751 3.6119C5.54297 3.87008 5.64478 4.08099 5.78297 4.24463C5.92478 4.40463 6.07751 4.52281 6.24115 4.59918C6.21933 4.54463 6.19569 4.48645 6.17024 4.42463C6.14478 4.36281 6.12115 4.29372 6.09933 4.21736C6.08115 4.13736 6.06478 4.05008 6.05024 3.95554C6.03933 3.86099 6.03388 3.75554 6.03388 3.63918C6.03388 3.30827 6.09751 3.01372 6.22478 2.75554C6.35569 2.49372 6.52478 2.27372 6.73206 2.09554C6.94297 1.91372 7.17933 1.77736 7.44115 1.68645C7.7066 1.5919 7.97206 1.54463 8.23751 1.54463C8.44842 1.54463 8.64297 1.57008 8.82115 1.62099C9.00297 1.66827 9.17206 1.73008 9.32842 1.80645C9.48478 1.88281 9.63206 1.96827 9.77024 2.06281C9.91206 2.15372 10.0502 2.24281 10.1848 2.33008L9.54115 3.48099C9.41388 3.39008 9.29388 3.31008 9.18115 3.24099C9.06842 3.16827 8.95933 3.10827 8.85388 3.06099C8.74842 3.01372 8.64478 2.97736 8.54297 2.9519C8.44478 2.92281 8.34297 2.90645 8.23751 2.90281H8.20478C8.11024 2.90281 8.00842 2.91918 7.89933 2.9519C7.79024 2.98463 7.68842 3.03554 7.59388 3.10463C7.49933 3.17372 7.41933 3.25918 7.35388 3.36099C7.29206 3.45918 7.26115 3.5719 7.26115 3.69918C7.26115 3.90645 7.31024 4.07918 7.40842 4.21736C7.5066 4.35554 7.63206 4.46645 7.78478 4.55008C7.94115 4.63008 8.11569 4.68645 8.30842 4.71918C8.50115 4.7519 8.69206 4.76827 8.88115 4.76827ZM13.907 8.93554C13.6015 8.93554 13.3143 8.87736 13.0452 8.76099C12.7761 8.64099 12.5415 8.48099 12.3415 8.28099C12.1415 8.07736 11.9834 7.84099 11.867 7.5719C11.7506 7.29918 11.6925 7.01008 11.6925 6.70463C11.6925 6.39918 11.7506 6.1119 11.867 5.84281C11.9834 5.57372 12.1415 5.33918 12.3415 5.13918C12.5415 4.93918 12.7761 4.78099 13.0452 4.66463C13.3143 4.54827 13.6015 4.49008 13.907 4.49008C14.2125 4.49008 14.4997 4.54827 14.7688 4.66463C15.0415 4.78099 15.2779 4.93918 15.4779 5.13918C15.6815 5.33918 15.8415 5.57372 15.9579 5.84281C16.0779 6.1119 16.1379 6.39918 16.1379 6.70463C16.1379 7.01008 16.0779 7.29918 15.9579 7.5719C15.8415 7.84099 15.6815 8.07736 15.4779 8.28099C15.2779 8.48099 15.0415 8.64099 14.7688 8.76099C14.4997 8.87736 14.2125 8.93554 13.907 8.93554ZM13.907 5.81008C13.7834 5.81008 13.667 5.83372 13.5579 5.88099C13.4525 5.92827 13.3597 5.9919 13.2797 6.0719C13.1997 6.1519 13.1361 6.24645 13.0888 6.35554C13.0415 6.46463 13.0179 6.58099 13.0179 6.70463C13.0179 6.82827 13.0415 6.94645 13.0888 7.05918C13.1361 7.16827 13.1997 7.26463 13.2797 7.34827C13.3597 7.42827 13.4525 7.4919 13.5579 7.53918C13.667 7.58645 13.7834 7.61008 13.907 7.61008C14.0306 7.61008 14.147 7.58645 14.2561 7.53918C14.3688 7.4919 14.4652 7.42827 14.5452 7.34827C14.6288 7.26463 14.6943 7.16827 14.7415 7.05918C14.7925 6.94645 14.8179 6.82827 14.8179 6.70463C14.8179 6.58099 14.7925 6.46463 14.7415 6.35554C14.6943 6.24645 14.6288 6.1519 14.5452 6.0719C14.4652 5.9919 14.3688 5.92827 14.2561 5.88099C14.147 5.83372 14.0306 5.81008 13.907 5.81008ZM19.8133 8.93554C19.5078 8.93554 19.2205 8.87736 18.9514 8.76099C18.6823 8.64099 18.4478 8.48099 18.2478 8.28099C18.0478 8.07736 17.8896 7.84099 17.7733 7.5719C17.6569 7.29918 17.5987 7.01008 17.5987 6.70463C17.5987 6.39918 17.6569 6.1119 17.7733 5.84281C17.8896 5.57372 18.0478 5.33918 18.2478 5.13918C18.4478 4.93918 18.6823 4.78099 18.9514 4.66463C19.2205 4.54827 19.5078 4.49008 19.8133 4.49008C20.1187 4.49008 20.406 4.54827 20.6751 4.66463C20.9478 4.78099 21.1842 4.93918 21.3842 5.13918C21.5878 5.33918 21.7478 5.57372 21.8642 5.84281C21.9842 6.1119 22.0442 6.39918 22.0442 6.70463C22.0442 7.01008 21.9842 7.29918 21.8642 7.5719C21.7478 7.84099 21.5878 8.07736 21.3842 8.28099C21.1842 8.48099 20.9478 8.64099 20.6751 8.76099C20.406 8.87736 20.1187 8.93554 19.8133 8.93554ZM19.8133 5.81008C19.6896 5.81008 19.5733 5.83372 19.4642 5.88099C19.3587 5.92827 19.266 5.9919 19.186 6.0719C19.106 6.1519 19.0423 6.24645 18.9951 6.35554C18.9478 6.46463 18.9242 6.58099 18.9242 6.70463C18.9242 6.82827 18.9478 6.94645 18.9951 7.05918C19.0423 7.16827 19.106 7.26463 19.186 7.34827C19.266 7.42827 19.3587 7.4919 19.4642 7.53918C19.5733 7.58645 19.6896 7.61008 19.8133 7.61008C19.9369 7.61008 20.0533 7.58645 20.1623 7.53918C20.2751 7.4919 20.3714 7.42827 20.4514 7.34827C20.5351 7.26463 20.6005 7.16827 20.6478 7.05918C20.6987 6.94645 20.7242 6.82827 20.7242 6.70463C20.7242 6.58099 20.6987 6.46463 20.6478 6.35554C20.6005 6.24645 20.5351 6.1519 20.4514 6.0719C20.3714 5.9919 20.2751 5.92827 20.1623 5.88099C20.0533 5.83372 19.9369 5.81008 19.8133 5.81008ZM30.3673 12.8301C30.0764 12.8301 29.7964 12.7955 29.5273 12.7264C29.2582 12.6574 29.0036 12.5592 28.7636 12.4319C28.5273 12.3046 28.3073 12.1483 28.1036 11.9628C27.9036 11.7774 27.7291 11.5683 27.58 11.3355C27.4055 11.0519 27.2709 10.7355 27.1764 10.3864C27.0818 10.041 27.0346 9.67918 27.0346 9.30099C27.0346 9.06099 27.0491 8.82827 27.0782 8.60281C27.1073 8.37736 27.1527 8.14645 27.2146 7.91008C27.28 7.67372 27.3636 7.42645 27.4655 7.16827C27.5709 6.91008 27.6982 6.62645 27.8473 6.31736L29.0746 6.90099C28.9436 7.16645 28.8346 7.40463 28.7473 7.61554C28.66 7.82645 28.5891 8.02645 28.5346 8.21554C28.48 8.40099 28.44 8.58099 28.4146 8.75554C28.3927 8.92645 28.3818 9.10645 28.3818 9.29554C28.3818 9.54281 28.4127 9.77918 28.4746 10.0046C28.5364 10.2337 28.6218 10.4392 28.7309 10.621C28.9055 10.8792 29.1346 11.0846 29.4182 11.2374C29.7055 11.3937 30.0218 11.4719 30.3673 11.4719H31.4746C31.86 11.4719 32.1727 11.4319 32.4127 11.3519C32.6564 11.2719 32.8455 11.1574 32.98 11.0083C33.1146 10.8628 33.2055 10.6864 33.2527 10.4792C33.3036 10.2719 33.3291 10.0428 33.3291 9.7919V6.12099H34.6873V7.82281C34.6946 8.06281 34.7727 8.24281 34.9218 8.36281C35.0746 8.47918 35.2709 8.53736 35.5109 8.53736H35.9473V9.89554H35.5109C35.3727 9.89554 35.2309 9.88281 35.0855 9.85736C34.9436 9.8319 34.8109 9.79554 34.6873 9.74827V9.7919C34.6873 10.8064 34.4182 11.5664 33.88 12.0719C33.3455 12.5774 32.5436 12.8301 31.4746 12.8301H30.3673ZM30.2527 5.71736L31.2346 4.72463L32.2382 5.72827L31.2455 6.72099L30.2527 5.71736ZM39.7857 5.31372C39.793 5.33918 39.8075 5.39918 39.8293 5.49372C39.8548 5.58827 39.8821 5.70463 39.9112 5.84281C39.9403 5.97736 39.9693 6.12827 39.9984 6.29554C40.0312 6.46281 40.0603 6.6319 40.0857 6.80281C40.1148 6.97008 40.1366 7.13372 40.1512 7.29372C40.1693 7.45372 40.1784 7.59372 40.1784 7.71372C40.1784 8.08827 40.1166 8.41372 39.993 8.69008C39.8693 8.96281 39.7075 9.18827 39.5075 9.36645C39.3075 9.54463 39.0821 9.67736 38.8312 9.76463C38.5839 9.8519 38.3348 9.89554 38.0839 9.89554H35.733V8.53736H38.1221C38.1657 8.53736 38.2275 8.5319 38.3075 8.52099C38.3912 8.50645 38.473 8.4719 38.553 8.41736C38.6366 8.36281 38.7093 8.28099 38.7712 8.1719C38.833 8.05918 38.8639 7.90645 38.8639 7.71372C38.8639 7.63372 38.8566 7.53736 38.8421 7.42463C38.8312 7.30827 38.8148 7.18463 38.793 7.05372C38.7712 6.92281 38.7457 6.79008 38.7166 6.65554C38.6912 6.51736 38.6657 6.38827 38.6403 6.26827C38.6148 6.14463 38.5893 6.03372 38.5639 5.93554C38.5384 5.83372 38.5184 5.75554 38.5039 5.70099L39.7857 5.31372ZM39.153 12.8628L38.2366 11.9355L39.1421 10.9974L40.0803 11.9355L39.153 12.8628ZM36.8675 12.8683L35.9512 11.941L36.8512 11.0028L37.7893 11.941L36.8675 12.8683ZM43.3855 9.90099C43.2474 9.90099 43.111 9.89372 42.9764 9.87918C42.8419 9.86463 42.7055 9.84463 42.5674 9.81918C42.4292 9.79372 42.2874 9.76281 42.1419 9.72645C41.9964 9.68645 41.8437 9.64281 41.6837 9.59554L41.0346 9.39918L41.4274 8.09008C41.7437 8.19918 42.071 8.29554 42.4092 8.37918C42.751 8.46281 43.0728 8.51736 43.3746 8.54281C43.4728 8.55008 43.5674 8.55372 43.6583 8.55372C43.8401 8.55372 44.0219 8.53372 44.2037 8.49372C44.3892 8.45372 44.5201 8.35372 44.5964 8.19372C44.611 8.16463 44.6183 8.13008 44.6183 8.09008C44.6183 8.06463 44.611 8.02463 44.5964 7.97008C44.5819 7.91554 44.5455 7.84645 44.4874 7.76281L42.4528 4.79554L43.5983 4.05372L43.9692 4.62645C43.9692 4.63008 43.9746 4.64099 43.9855 4.65918C44.0001 4.67736 44.0255 4.71554 44.0619 4.77372C44.1019 4.8319 44.1564 4.91554 44.2255 5.02463C44.2983 5.13008 44.3928 5.27008 44.5092 5.44463C44.6255 5.61918 44.7674 5.83554 44.9346 6.09372C45.1055 6.34827 45.3092 6.65372 45.5455 7.01008C45.731 7.29008 45.8455 7.57918 45.8892 7.87736C45.9001 7.95372 45.9055 8.02827 45.9055 8.10099C45.9055 8.31918 45.8619 8.52827 45.7746 8.72827C45.7128 8.87372 45.6292 9.00827 45.5237 9.1319C45.4219 9.2519 45.3019 9.35918 45.1637 9.45372C44.9055 9.6319 44.5946 9.75372 44.231 9.81918C43.9255 9.87372 43.6437 9.90099 43.3855 9.90099ZM49.2815 9.56281C49.2597 10.0646 49.167 10.5155 49.0033 10.9155C48.8397 11.3192 48.6142 11.661 48.327 11.941C48.0397 12.2246 47.6924 12.4428 47.2852 12.5955C46.8779 12.7483 46.4179 12.8246 45.9052 12.8246H45.2288V11.4664H45.9052C46.2542 11.4664 46.5561 11.4301 46.8106 11.3574C47.0652 11.2846 47.2742 11.1683 47.4379 11.0083C47.6015 10.8483 47.7233 10.6392 47.8033 10.381C47.8833 10.1264 47.9233 9.81554 47.9233 9.44827V6.12645H49.2815V9.56281ZM51.1163 11.4664C51.4072 11.4664 51.6654 11.4555 51.8908 11.4337C52.1199 11.4155 52.3217 11.3864 52.4963 11.3464C52.6745 11.3101 52.829 11.261 52.9599 11.1992C53.0945 11.141 53.2108 11.0701 53.309 10.9864C53.4617 10.8628 53.5763 10.7192 53.6527 10.5555C53.7327 10.3919 53.7799 10.1719 53.7945 9.89554H52.9545C52.7727 9.89554 52.5872 9.88099 52.3981 9.8519C52.209 9.82281 52.0272 9.77372 51.8527 9.70463C51.6781 9.6319 51.5127 9.53918 51.3563 9.42645C51.2036 9.31372 51.069 9.17554 50.9527 9.0119C50.8399 8.84463 50.749 8.64827 50.6799 8.42281C50.6145 8.19736 50.5817 7.93918 50.5817 7.64827C50.5817 7.39736 50.6036 7.17554 50.6472 6.98281C50.6908 6.78645 50.7454 6.61372 50.8108 6.46463C50.8799 6.31554 50.9563 6.18645 51.0399 6.07736C51.1236 5.96463 51.2036 5.86645 51.2799 5.78281C51.4981 5.56463 51.7454 5.39736 52.0217 5.28099C52.2981 5.16099 52.5963 5.10099 52.9163 5.10099C53.3127 5.10099 53.6508 5.17008 53.9308 5.30827C54.2145 5.44281 54.4454 5.63008 54.6236 5.87008C54.8054 6.11008 54.9381 6.39554 55.0217 6.72645C55.1054 7.05372 55.1472 7.41008 55.1472 7.79554V9.7319C55.1472 10.2737 55.0654 10.7283 54.9017 11.0955C54.7381 11.4664 54.489 11.7846 54.1545 12.0501C53.9872 12.181 53.8054 12.2937 53.609 12.3883C53.4127 12.4864 53.1927 12.5683 52.949 12.6337C52.7054 12.6992 52.4327 12.7464 52.1308 12.7755C51.8327 12.8083 51.4945 12.8246 51.1163 12.8246V11.4664ZM52.9163 6.45918C52.6072 6.45918 52.3617 6.55554 52.1799 6.74827C51.9981 6.94099 51.9072 7.24099 51.9072 7.64827C51.9072 7.80827 51.9381 7.94463 51.9999 8.05736C52.0654 8.17008 52.1472 8.26281 52.2454 8.33554C52.3472 8.40463 52.4599 8.45554 52.5836 8.48827C52.7072 8.52099 52.8308 8.53736 52.9545 8.53736H53.7945V7.79554C53.7945 7.58827 53.7781 7.4119 53.7454 7.26645C53.7127 7.11736 53.669 6.99372 53.6145 6.89554C53.5636 6.79736 53.5036 6.71918 53.4345 6.66099C53.369 6.60281 53.3036 6.55918 53.2381 6.53008C53.1763 6.50099 53.1163 6.48281 53.0581 6.47554C52.9999 6.46463 52.9527 6.45918 52.9163 6.45918ZM60.7961 9.89554H60.5888C60.4397 9.89554 60.2979 9.88645 60.1633 9.86827C60.0324 9.85008 59.9033 9.79918 59.7761 9.71554C59.7324 10.1846 59.6252 10.6101 59.4542 10.9919C59.2833 11.3737 59.0542 11.6992 58.767 11.9683C58.4833 12.241 58.1433 12.4519 57.747 12.601C57.3506 12.7501 56.9052 12.8246 56.4106 12.8246H55.7288V11.4664H56.4106C56.7597 11.4664 57.0615 11.4301 57.3161 11.3574C57.5706 11.2846 57.7797 11.1683 57.9433 11.0083C58.107 10.8483 58.2288 10.6392 58.3088 10.381C58.3888 10.1264 58.4288 9.81554 58.4288 9.44827V6.12645H59.787V7.75736C59.787 7.92463 59.8215 8.05918 59.8906 8.16099C59.9633 8.26281 60.0452 8.34281 60.1361 8.40099C60.2306 8.45554 60.3215 8.4919 60.4088 8.51008C60.4961 8.52827 60.5561 8.53736 60.5888 8.53736H60.7961V9.89554ZM60.6258 9.89554V8.53736H62.8513C63.1567 8.53736 63.4131 8.52099 63.6204 8.48827C63.8276 8.4519 63.9949 8.40645 64.1222 8.3519C64.2531 8.29736 64.3513 8.23736 64.4167 8.1719C64.4822 8.10281 64.5295 8.03372 64.5585 7.96463C64.2931 8.00099 64.044 8.01918 63.8113 8.01918C63.6149 8.01918 63.3767 8.00099 63.0967 7.96463C62.8167 7.92463 62.5422 7.82281 62.2731 7.65918C62.004 7.4919 61.7967 7.27008 61.6513 6.99372C61.5095 6.71736 61.4385 6.38645 61.4385 6.00099C61.4385 5.69554 61.4949 5.40827 61.6076 5.13918C61.7204 4.86645 61.8767 4.63008 62.0767 4.43008C62.2804 4.22645 62.5204 4.06645 62.7967 3.95008C63.0367 3.8519 63.3004 3.80281 63.5876 3.80281H63.6967C63.9876 3.81372 64.244 3.86463 64.4658 3.95554C64.6913 4.04645 64.8858 4.16645 65.0495 4.31554C65.2167 4.46463 65.3549 4.63918 65.464 4.83918C65.5767 5.03554 65.6658 5.24827 65.7313 5.47736C65.8004 5.70645 65.8495 5.94645 65.8785 6.19736C65.9113 6.44463 65.9295 6.69372 65.9331 6.94463L65.9113 7.34827C65.8822 7.85736 65.7804 8.27736 65.6058 8.60827C65.4313 8.93554 65.204 9.19554 64.924 9.38827C64.6476 9.57736 64.3313 9.71008 63.9749 9.78645C63.6185 9.85918 63.244 9.89554 62.8513 9.89554H60.6258ZM63.6858 5.16099C63.6495 5.15736 63.6149 5.15554 63.5822 5.15554C63.4876 5.15554 63.3858 5.17008 63.2767 5.19918C63.1713 5.22463 63.0713 5.27372 62.9767 5.34645C62.8858 5.41918 62.8113 5.51008 62.7531 5.61918C62.6985 5.72463 62.6713 5.84827 62.6713 5.99008C62.6713 6.30645 62.8385 6.53372 63.1731 6.6719C63.3658 6.75554 63.6076 6.79736 63.8985 6.79736C64.1095 6.79736 64.3458 6.77554 64.6076 6.7319C64.6004 6.57554 64.5876 6.41008 64.5695 6.23554C64.5513 6.06099 64.5113 5.89736 64.4495 5.74463C64.3876 5.5919 64.2967 5.46281 64.1767 5.35736C64.0567 5.24827 63.8931 5.18281 63.6858 5.16099ZM62.4476 1.69736L63.4295 0.70463L64.4331 1.70827L63.4404 2.70099L62.4476 1.69736ZM73.334 1.44645C73.3558 1.46463 73.4285 1.52463 73.5522 1.62645C73.6794 1.72463 73.8394 1.85918 74.0322 2.03008C74.2249 2.19736 74.4394 2.39736 74.6758 2.63008C74.9122 2.86281 75.1522 3.12099 75.3958 3.40463C75.6431 3.68463 75.8812 3.98827 76.1103 4.31554C76.3431 4.63918 76.5503 4.97918 76.7322 5.33554C76.914 5.68827 77.0594 6.05372 77.1685 6.4319C77.2776 6.81008 77.3322 7.19372 77.3322 7.58281C77.3322 7.83372 77.3085 8.05918 77.2612 8.25918C77.214 8.45554 77.1522 8.63008 77.0758 8.78281C77.0031 8.9319 76.9194 9.06099 76.8249 9.17008C76.734 9.27554 76.6449 9.36463 76.5576 9.43736C76.3722 9.59008 76.1649 9.70463 75.9358 9.78099C75.7103 9.85736 75.4776 9.89554 75.2376 9.89554C75.0085 9.89554 74.7885 9.86281 74.5776 9.79736C74.3667 9.7319 74.1685 9.62463 73.9831 9.47554C73.8085 9.61372 73.6122 9.72099 73.394 9.79736C73.1794 9.87008 72.9649 9.90645 72.7503 9.90645C72.5758 9.90645 72.4012 9.88463 72.2267 9.84099C72.0522 9.80099 71.8849 9.73918 71.7249 9.65554C71.5685 9.5719 71.4231 9.46827 71.2885 9.34463C71.154 9.22099 71.0376 9.07736 70.9394 8.91372C70.8522 8.76827 70.7831 8.62463 70.7322 8.48281C70.6849 8.33736 70.6485 8.20463 70.6231 8.08463C70.6012 7.96099 70.5867 7.85372 70.5794 7.76281C70.5722 7.6719 70.5685 7.60463 70.5685 7.56099C70.5685 7.21918 70.6067 6.88645 70.6831 6.56281C70.7631 6.23918 70.8667 5.92827 70.994 5.63008C71.1212 5.32827 71.2667 5.04281 71.4303 4.77372C71.5976 4.50099 71.7667 4.24827 71.9376 4.01554C72.1122 3.77918 72.2831 3.56463 72.4503 3.3719C72.6212 3.17918 72.774 3.0119 72.9085 2.87008L72.5049 2.53736L73.334 1.44645ZM75.6958 8.38463C75.794 8.30099 75.8758 8.19372 75.9412 8.06281C76.0103 7.92827 76.0449 7.76827 76.0449 7.58281C76.0449 7.35372 76.0122 7.12281 75.9467 6.89008C75.8849 6.65372 75.7994 6.42099 75.6903 6.1919C75.5849 5.95918 75.4594 5.7319 75.314 5.51008C75.1685 5.28463 75.014 5.06645 74.8503 4.85554C74.6903 4.64463 74.5249 4.44281 74.354 4.25008C74.1867 4.05372 74.0231 3.87008 73.8631 3.69918C73.7467 3.83008 73.6158 3.98099 73.4703 4.1519C73.3249 4.31918 73.1776 4.50463 73.0285 4.70827C72.8794 4.90827 72.734 5.12281 72.5922 5.3519C72.454 5.58099 72.3303 5.81736 72.2212 6.06099C72.1122 6.30099 72.0231 6.54827 71.954 6.80281C71.8885 7.05736 71.8558 7.31008 71.8558 7.56099C71.8558 7.68827 71.8758 7.8119 71.9158 7.9319C71.9594 8.04827 72.0176 8.15372 72.0903 8.24827C72.1631 8.34281 72.2503 8.41918 72.3522 8.47736C72.454 8.5319 72.5631 8.55918 72.6794 8.55918C72.7558 8.55918 72.8394 8.54827 72.9303 8.52645C73.0212 8.50463 73.1049 8.46099 73.1812 8.39554C73.254 8.33008 73.3049 8.24827 73.334 8.15008C73.3667 8.0519 73.3831 7.94827 73.3831 7.83918C73.3867 7.72645 73.3812 7.61554 73.3667 7.50645C73.3522 7.39372 73.3358 7.2919 73.3176 7.20099L74.6376 6.95008C74.6376 6.95372 74.6394 6.96463 74.6431 6.98281C74.6467 7.00099 74.6503 7.03372 74.654 7.08099C74.6612 7.12827 74.6667 7.1919 74.6703 7.2719C74.6776 7.3519 74.6849 7.45736 74.6922 7.58827V7.67554C74.6922 7.73736 74.6885 7.81008 74.6812 7.89372C74.6776 7.97372 74.6667 8.06099 74.6485 8.15554C74.7031 8.29372 74.7849 8.3919 74.894 8.45008C75.0067 8.50827 75.1231 8.53736 75.2431 8.53736C75.3231 8.53736 75.4012 8.52463 75.4776 8.49918C75.5576 8.47372 75.6303 8.43554 75.6958 8.38463ZM88.4927 9.89554H88.3399C88.0563 9.89554 87.7836 9.86827 87.5218 9.81372C87.2599 9.76281 87.0181 9.68463 86.7963 9.57918C86.5745 9.47008 86.3763 9.3319 86.2018 9.16463C86.0309 8.99736 85.8908 8.79918 85.7818 8.57008C85.6945 8.70463 85.5818 8.82463 85.4436 8.93008C85.309 9.0319 85.1618 9.11736 85.0018 9.18645C84.8418 9.25554 84.6763 9.30827 84.5054 9.34463C84.3345 9.37736 84.1708 9.39372 84.0145 9.39372C83.7236 9.39372 83.4472 9.34281 83.1854 9.24099C82.9272 9.13918 82.6999 8.99554 82.5036 8.81008C82.3072 8.62099 82.1508 8.3919 82.0345 8.12281C81.9218 7.85372 81.8654 7.55008 81.8654 7.2119C81.8654 6.81918 81.9399 6.47372 82.089 6.17554C82.2381 5.87736 82.4363 5.61736 82.6836 5.39554C82.9308 5.17008 83.2145 4.97918 83.5345 4.82281C83.8581 4.66281 84.1927 4.52463 84.5381 4.40827L84.4072 3.88463L85.7381 3.57372L86.7308 7.43554C86.789 7.6719 86.8836 7.86281 87.0145 8.00827C87.1454 8.15008 87.2872 8.26099 87.4399 8.34099C87.5963 8.41736 87.7545 8.47008 87.9145 8.49918C88.0781 8.52463 88.2199 8.53736 88.3399 8.53736H88.4927V9.89554ZM85.1327 7.18463C85.1509 7.10827 85.1599 7.03008 85.1599 6.95008C85.1599 6.92463 85.1563 6.88099 85.149 6.81918C85.1454 6.75372 85.1309 6.66281 85.1054 6.54645C85.0799 6.43008 85.0454 6.30463 85.0018 6.17008C84.9618 6.03554 84.9181 5.88463 84.8708 5.71736C84.289 5.90281 83.8472 6.11372 83.5454 6.35008C83.2472 6.58281 83.0981 6.8719 83.0981 7.21736C83.0981 7.3519 83.1272 7.4719 83.1854 7.57736C83.2472 7.68281 83.3254 7.77008 83.4199 7.83918C83.5181 7.90827 83.6272 7.95736 83.7472 7.98645C83.8236 8.00827 83.8999 8.01918 83.9763 8.01918C84.0163 8.01918 84.0581 8.01554 84.1018 8.00827C84.3745 7.96827 84.6018 7.88827 84.7836 7.76827C84.9654 7.64463 85.0818 7.45008 85.1327 7.18463ZM92.758 8.53736V9.89554H92.4144C92.1053 9.89554 91.8235 9.85372 91.5689 9.77008C91.3144 9.68645 91.0999 9.56281 90.9253 9.39918C90.7217 9.57008 90.4799 9.69554 90.1999 9.77554C89.9235 9.85554 89.6071 9.89554 89.2508 9.89554H88.2853V8.53736H89.2508C89.4726 8.53736 89.6489 8.51736 89.7799 8.47736C89.9144 8.43372 90.0144 8.38099 90.0799 8.31918C90.1489 8.25736 90.1926 8.18827 90.2108 8.1119C90.2326 8.03554 90.2435 7.96099 90.2435 7.88827V6.12099H91.5962V7.85008C91.5962 8.01372 91.6326 8.14281 91.7053 8.23736C91.778 8.32827 91.8599 8.39736 91.9508 8.44463C92.0453 8.48827 92.138 8.51554 92.2289 8.52645C92.3199 8.53372 92.3817 8.53736 92.4144 8.53736H92.758ZM89.4471 11.8537L90.4289 10.861L91.4326 11.8646L90.4399 12.8574L89.4471 11.8537ZM97.0237 8.53736V9.89554H96.68C96.3709 9.89554 96.0891 9.85372 95.8346 9.77008C95.58 9.68645 95.3655 9.56281 95.1909 9.39918C94.9873 9.57008 94.7455 9.69554 94.4655 9.77554C94.1891 9.85554 93.8728 9.89554 93.5164 9.89554H92.5509V8.53736H93.5164C93.7382 8.53736 93.9146 8.51736 94.0455 8.47736C94.18 8.43372 94.28 8.38099 94.3455 8.31918C94.4146 8.25736 94.4582 8.18827 94.4764 8.1119C94.4982 8.03554 94.5091 7.96099 94.5091 7.88827V6.12099H95.8618V7.85008C95.8618 8.01372 95.8982 8.14281 95.9709 8.23736C96.0437 8.32827 96.1255 8.39736 96.2164 8.44463C96.3109 8.48827 96.4037 8.51554 96.4946 8.52645C96.5855 8.53372 96.6473 8.53736 96.68 8.53736H97.0237ZM93.8818 3.6119L94.8637 2.61917L95.8673 3.62281L94.8746 4.61554L93.8818 3.6119ZM96.8111 8.53736H97.5147C97.7293 8.53736 97.902 8.51918 98.0329 8.48281C98.1675 8.44645 98.2711 8.39372 98.3438 8.32463C98.4202 8.2519 98.4711 8.16463 98.4966 8.06281C98.522 7.96099 98.5347 7.84463 98.5347 7.71372V6.12645H99.8929V7.68645C99.8929 7.98099 99.9638 8.19554 100.106 8.33008C100.247 8.46463 100.471 8.53372 100.777 8.53736C100.831 8.53372 100.897 8.52281 100.973 8.50463C101.053 8.48645 101.129 8.45008 101.202 8.39554C101.278 8.33736 101.342 8.25554 101.393 8.15008C101.447 8.04099 101.475 7.89554 101.475 7.71372V6.12645H102.827V7.68645C102.827 7.98463 102.898 8.20099 103.04 8.33554C103.182 8.47008 103.413 8.53736 103.733 8.53736C103.82 8.53736 103.906 8.52463 103.989 8.49918C104.077 8.47008 104.155 8.42463 104.224 8.36281C104.293 8.29736 104.349 8.21372 104.393 8.1119C104.437 8.01008 104.462 7.88463 104.469 7.73554V6.12645H105.827V7.74099C105.835 8.02099 105.92 8.22463 106.084 8.3519C106.247 8.47554 106.498 8.53736 106.837 8.53736H107.371V9.89554H106.837C106.462 9.89554 106.137 9.85554 105.86 9.77554C105.584 9.6919 105.346 9.55736 105.146 9.3719C104.96 9.54281 104.742 9.67372 104.491 9.76463C104.244 9.8519 103.991 9.89554 103.733 9.89554C103.391 9.89554 103.091 9.85372 102.833 9.77008C102.578 9.68645 102.351 9.5519 102.151 9.36645C101.962 9.53372 101.749 9.66281 101.513 9.75372C101.28 9.84463 101.044 9.8919 100.804 9.89554H100.766C100.438 9.89554 100.147 9.8519 99.8929 9.76463C99.6384 9.67372 99.4166 9.54827 99.2275 9.38827C98.802 9.72645 98.2311 9.89554 97.5147 9.89554H96.8111V8.53736ZM101.998 3.86827L101.071 4.80645L100.144 3.87918L101.071 2.94099L101.998 3.86827ZM104.338 3.84645L103.422 4.77372L102.467 3.85736L103.406 2.91918L104.338 3.84645ZM103.133 2.30827L102.26 3.18099L101.398 2.31918L102.271 1.44645L103.133 2.30827ZM114.653 7.72463C114.635 7.73554 114.577 7.77554 114.479 7.84463C114.381 7.91008 114.248 7.99554 114.081 8.10099C114.117 8.21008 114.173 8.29554 114.25 8.35736C114.326 8.41554 114.404 8.45918 114.484 8.48827C114.564 8.51372 114.639 8.52827 114.708 8.5319C114.781 8.53554 114.831 8.53736 114.861 8.53736H115.859V9.89554H114.861C114.428 9.8919 114.039 9.79736 113.693 9.6119C113.351 9.42281 113.084 9.14099 112.891 8.76645C112.611 8.90463 112.31 9.04281 111.986 9.18099C111.662 9.31554 111.324 9.43554 110.971 9.54099C110.619 9.64645 110.257 9.7319 109.886 9.79736C109.515 9.86281 109.144 9.89554 108.773 9.89554H107.148V8.53736H108.773C109.13 8.53736 109.51 8.50099 109.913 8.42827C110.317 8.35554 110.715 8.26281 111.108 8.15008C111.501 8.03372 111.873 7.90463 112.226 7.76281C112.582 7.62099 112.891 7.48099 113.153 7.34281C112.99 7.2919 112.81 7.23736 112.613 7.17918C112.417 7.11736 112.217 7.05736 112.013 6.99918C111.81 6.93736 111.608 6.87918 111.408 6.82463C111.208 6.76645 111.021 6.71554 110.846 6.6719C110.671 6.62827 110.515 6.59372 110.377 6.56827C110.239 6.54281 110.13 6.53008 110.05 6.53008C109.966 6.53008 109.891 6.54099 109.826 6.56281C109.764 6.58099 109.708 6.61372 109.657 6.66099C109.606 6.70463 109.559 6.76281 109.515 6.83554C109.471 6.90827 109.426 6.99554 109.379 7.09736L108.13 6.72099C108.199 6.50281 108.282 6.29918 108.381 6.11008C108.482 5.91736 108.604 5.75008 108.746 5.60827C108.891 5.46645 109.059 5.35554 109.248 5.27554C109.437 5.1919 109.653 5.15008 109.897 5.15008C109.991 5.15008 110.126 5.17008 110.301 5.21008C110.475 5.25008 110.673 5.30281 110.895 5.36827C111.117 5.43372 111.353 5.50827 111.604 5.5919C111.859 5.67554 112.113 5.76281 112.368 5.85372C112.622 5.94463 112.87 6.03372 113.11 6.12099C113.35 6.20827 113.566 6.28827 113.759 6.36099C113.951 6.43008 114.113 6.48827 114.244 6.53554C114.375 6.58281 114.459 6.6119 114.495 6.62281L114.653 7.72463ZM110.044 11.7664L111.026 10.7737L112.03 11.7774L111.037 12.7701L110.044 11.7664ZM120.11 8.53736V9.89554H119.766C119.457 9.89554 119.175 9.85372 118.921 9.77008C118.666 9.68645 118.451 9.56281 118.277 9.39918C118.073 9.57008 117.831 9.69554 117.551 9.77554C117.275 9.85554 116.959 9.89554 116.602 9.89554H115.637V8.53736H116.602C116.824 8.53736 117.001 8.51736 117.131 8.47736C117.266 8.43372 117.366 8.38099 117.431 8.31918C117.501 8.25736 117.544 8.18827 117.562 8.1119C117.584 8.03554 117.595 7.96099 117.595 7.88827V6.12099H118.948V7.85008C118.948 8.01372 118.984 8.14281 119.057 8.23736C119.13 8.32827 119.211 8.39736 119.302 8.44463C119.397 8.48827 119.49 8.51554 119.581 8.52645C119.671 8.53372 119.733 8.53736 119.766 8.53736H120.11ZM116.968 3.6119L117.95 2.61917L118.953 3.62281L117.961 4.61554L116.968 3.6119ZM123.95 5.31372C123.957 5.33918 123.972 5.39918 123.993 5.49372C124.019 5.58827 124.046 5.70463 124.075 5.84281C124.104 5.97736 124.133 6.12827 124.162 6.29554C124.195 6.46281 124.224 6.6319 124.25 6.80281C124.279 6.97008 124.301 7.13372 124.315 7.29372C124.333 7.45372 124.342 7.59372 124.342 7.71372C124.342 8.08827 124.281 8.41372 124.157 8.69008C124.033 8.96281 123.872 9.18827 123.672 9.36645C123.472 9.54463 123.246 9.67736 122.995 9.76463C122.748 9.8519 122.499 9.89554 122.248 9.89554H119.897V8.53736H122.286C122.33 8.53736 122.392 8.5319 122.472 8.52099C122.555 8.50645 122.637 8.4719 122.717 8.41736C122.801 8.36281 122.873 8.28099 122.935 8.1719C122.997 8.05918 123.028 7.90645 123.028 7.71372C123.028 7.63372 123.021 7.53736 123.006 7.42463C122.995 7.30827 122.979 7.18463 122.957 7.05372C122.935 6.92281 122.91 6.79008 122.881 6.65554C122.855 6.51736 122.83 6.38827 122.804 6.26827C122.779 6.14463 122.753 6.03372 122.728 5.93554C122.702 5.83372 122.682 5.75554 122.668 5.70099L123.95 5.31372ZM120.175 11.6901L121.102 10.7628L122.03 11.701L121.102 12.6283L120.175 11.6901ZM122.45 11.701L123.388 10.7737L124.315 11.7119L123.388 12.6392L122.45 11.701ZM121.364 13.2283L122.226 12.3664L123.099 13.2392L122.237 14.101L121.364 13.2283Z" fill="#005AA7"/>
</svg>
