<svg width="95" height="17" viewBox="0 0 95 17" fill="none" xmlns="http://www.w3.org/2000/svg">
<path d="M13.1367 12.1091H11.1949C11.3064 12.2691 11.3985 12.4436 11.4713 12.6327C11.544 12.8267 11.5803 13.0012 11.5803 13.1564C11.5803 13.6073 11.4567 14.0145 11.2094 14.3782C10.9622 14.7467 10.6276 15.0594 10.2058 15.3164C9.78398 15.5733 9.29186 15.7721 8.72943 15.9127C8.17186 16.0533 7.57792 16.1236 6.94761 16.1236H5.0858C4.68822 16.1236 4.30761 16.0776 3.94398 15.9855C3.58034 15.8933 3.23852 15.76 2.91852 15.5855C2.59852 15.4158 2.30519 15.2073 2.03852 14.96C1.77186 14.7176 1.5367 14.4412 1.33307 14.1309C0.853068 13.3552 0.613068 12.4461 0.613068 11.4036C0.613068 11.0836 0.630038 10.7661 0.663977 10.4509C0.702765 10.1358 0.763371 9.81333 0.845795 9.48364C0.933068 9.14909 1.04458 8.80242 1.18034 8.44364C1.32095 8.08 1.49307 7.68727 1.6967 7.26545L3.31125 8.04364C3.14155 8.40242 3.00095 8.7297 2.88943 9.02545C2.77792 9.32121 2.6858 9.60242 2.61307 9.86909C2.54519 10.1309 2.4967 10.3855 2.46761 10.6327C2.43852 10.8752 2.42398 11.12 2.42398 11.3673C2.42398 12.0703 2.57913 12.6667 2.88943 13.1564C3.11246 13.5248 3.41549 13.8061 3.79852 14C4.1864 14.1988 4.61549 14.2982 5.0858 14.2982H6.94761C7.31125 14.2982 7.65549 14.2642 7.98034 14.1964C8.30519 14.1285 8.59125 14.0339 8.83852 13.9127C9.0858 13.7915 9.28701 13.6509 9.44216 13.4909C9.59731 13.3358 9.68701 13.1661 9.71125 12.9818C9.57064 12.8315 9.39125 12.703 9.17307 12.5964C8.95973 12.4945 8.71489 12.4073 8.43852 12.3345C8.16701 12.2667 7.87125 12.2133 7.55125 12.1745C7.2361 12.1406 6.9064 12.1164 6.56216 12.1018L6.61307 10.2982H13.1367V12.1091ZM20.026 12.1091H19.8078C19.3811 12.1091 19.0102 12.0703 18.6951 11.9927C18.3799 11.9103 18.0963 11.7988 17.8441 11.6582C17.592 11.5127 17.3593 11.3406 17.146 11.1418C16.9375 10.9382 16.7241 10.7127 16.506 10.4655C16.3896 10.7709 16.2029 11.0303 15.946 11.2436C15.6938 11.457 15.4029 11.6291 15.0732 11.76C14.7484 11.8909 14.3993 11.983 14.026 12.0364C13.706 12.0848 13.3884 12.1091 13.0732 12.1091H10.6514V10.2982H13.0223C13.3423 10.2982 13.6381 10.2812 13.9096 10.2473C14.1811 10.2085 14.4163 10.1479 14.6151 10.0655C14.8138 9.97818 14.9714 9.86424 15.0878 9.72364C15.2041 9.58303 15.2696 9.41091 15.2841 9.20727C15.2841 8.99879 15.1945 8.73455 15.0151 8.41455C14.8405 8.09455 14.6102 7.73818 14.3241 7.34545C14.0429 6.95273 13.7229 6.53818 13.3641 6.10182C13.0102 5.66061 12.6514 5.21455 12.2878 4.76364L12.5932 3.28727L18.906 0.225454L19.6478 1.88364L14.1278 4.43636C14.5835 5.04727 15.0369 5.65576 15.4878 6.26182C15.9435 6.86303 16.3993 7.46909 16.8551 8.08C17.1217 8.43394 17.3666 8.74909 17.5896 9.02545C17.8126 9.29697 18.0357 9.52727 18.2587 9.71636C18.4866 9.90545 18.7241 10.0509 18.9714 10.1527C19.2187 10.2497 19.4975 10.2982 19.8078 10.2982H20.026V12.1091ZM27.5405 10.2982V12.1091H26.4641C26.052 12.1091 25.6762 12.0533 25.3368 11.9418C24.9974 11.8303 24.7114 11.6655 24.4786 11.4473C24.2071 11.6752 23.8847 11.8424 23.5114 11.9491C23.1429 12.0558 22.7211 12.1091 22.2459 12.1091H19.7295V10.2982H22.2459C22.5417 10.2982 22.7768 10.2715 22.9514 10.2182C23.1308 10.16 23.2641 10.0897 23.3514 10.0073C23.4435 9.92485 23.5017 9.83273 23.5259 9.73091C23.555 9.62909 23.5695 9.5297 23.5695 9.43273V7.07636H25.3732V9.38182C25.3732 9.6 25.4217 9.77212 25.5186 9.89818C25.6156 10.0194 25.7247 10.1115 25.8459 10.1745C25.972 10.2327 26.0956 10.2691 26.2168 10.2836C26.338 10.2933 26.4205 10.2982 26.4641 10.2982H27.5405ZM24.6314 16.1091L23.4095 14.8727L24.6168 13.6218L25.8677 14.8727L24.6314 16.1091ZM21.5841 16.1164L20.3623 14.88L21.5623 13.6291L22.8132 14.88L21.5841 16.1164ZM27.2815 10.2982C27.747 10.2982 28.1082 10.2594 28.3652 10.1818C28.6221 10.0994 28.8112 9.99758 28.9324 9.87636C29.0585 9.75515 29.1337 9.62182 29.1579 9.47636C29.187 9.33091 29.2015 9.19273 29.2015 9.06182V1.62182H31.0052V9.06182C31.0052 9.38182 31.0997 9.65818 31.2888 9.89091C31.4827 10.1236 31.7543 10.2594 32.1034 10.2982H32.2779V12.1091H32.0961C31.8537 12.1042 31.6403 12.0873 31.4561 12.0582C31.2767 12.0291 31.1118 11.983 30.9615 11.92C30.8112 11.8521 30.6658 11.7648 30.5252 11.6582C30.3894 11.5515 30.2464 11.4206 30.0961 11.2655C29.97 11.4206 29.8197 11.5539 29.6452 11.6655C29.4755 11.7721 29.2743 11.8594 29.0415 11.9273C28.8137 11.9903 28.5543 12.0364 28.2634 12.0655C27.9724 12.0945 27.6452 12.1091 27.2815 12.1091V10.2982ZM37.4373 10.7345C37.481 10.7345 37.5488 10.7273 37.641 10.7127C37.7379 10.6933 37.8349 10.64 37.9319 10.5527C38.0288 10.4655 38.1137 10.3321 38.1864 10.1527C38.264 9.96848 38.3028 9.71152 38.3028 9.38182C38.3028 9.25576 38.2785 9.09576 38.2301 8.90182C38.1864 8.70303 38.1064 8.51152 37.9901 8.32727C37.8785 8.13818 37.7258 7.97818 37.5319 7.84727C37.3428 7.71152 37.1028 7.64364 36.8119 7.64364C36.5598 7.64364 36.3537 7.71879 36.1937 7.86909C36.0337 8.01939 35.8979 8.20606 35.7864 8.42909C35.6798 8.65212 35.5876 8.89455 35.5101 9.15636C35.4373 9.41333 35.3573 9.64848 35.2701 9.86182C35.4495 9.96364 35.6385 10.0679 35.8373 10.1745C36.041 10.2764 36.2398 10.3685 36.4337 10.4509C36.6276 10.5333 36.8095 10.6012 36.9791 10.6545C37.1537 10.7079 37.3064 10.7345 37.4373 10.7345ZM36.8119 5.84C37.3113 5.84 37.7452 5.9297 38.1137 6.10909C38.487 6.28848 38.7998 6.53091 39.0519 6.83636C39.304 7.14182 39.4931 7.49576 39.6191 7.89818C39.7501 8.30061 39.8204 8.72242 39.8301 9.16364C39.8301 9.43515 39.8834 9.64848 39.9901 9.80364C40.0967 9.95394 40.2179 10.0655 40.3537 10.1382C40.4895 10.2109 40.6228 10.257 40.7537 10.2764C40.8846 10.2909 40.9743 10.2982 41.0228 10.2982H41.2264V12.1091H41.0228C40.6785 12.1091 40.361 12.0606 40.0701 11.9636C39.784 11.8618 39.5222 11.7333 39.2846 11.5782C39.1391 11.7818 38.9791 11.9418 38.8046 12.0582C38.6301 12.1794 38.4555 12.2691 38.281 12.3273C38.1064 12.3855 37.9391 12.4218 37.7791 12.4364C37.6191 12.4509 37.481 12.4582 37.3646 12.4582C37.1222 12.4582 36.8919 12.4339 36.6737 12.3855C36.4555 12.3418 36.2325 12.2764 36.0046 12.1891C35.7816 12.1067 35.5488 12.0048 35.3064 11.8836C35.064 11.7576 34.7998 11.617 34.5137 11.4618C34.2955 11.6945 34.0604 11.8618 33.8082 11.9636C33.561 12.0606 33.2701 12.1091 32.9355 12.1091H32.041L32.0264 10.2982H32.9355C33.0422 10.2982 33.1343 10.2667 33.2119 10.2036C33.2943 10.1406 33.367 10.0533 33.4301 9.94182C33.4979 9.82545 33.5585 9.68727 33.6119 9.52727C33.6701 9.36242 33.7282 9.18061 33.7864 8.98182C33.8834 8.63273 33.9998 8.27394 34.1355 7.90545C34.2713 7.53212 34.4507 7.19273 34.6737 6.88727C34.9016 6.58182 35.1876 6.33212 35.5319 6.13818C35.8761 5.93939 36.3028 5.84 36.8119 5.84ZM46.3363 6C46.346 6.03394 46.3654 6.11394 46.3945 6.24C46.4284 6.36606 46.4648 6.52121 46.5036 6.70545C46.5424 6.88485 46.5812 7.08606 46.6199 7.30909C46.6636 7.53212 46.7024 7.75758 46.7363 7.98545C46.7751 8.20848 46.8042 8.42667 46.8236 8.64C46.8478 8.85333 46.8599 9.04 46.8599 9.2C46.8599 9.69939 46.7775 10.1333 46.6127 10.5018C46.4478 10.8655 46.2321 11.1661 45.9654 11.4036C45.6987 11.6412 45.3981 11.8182 45.0636 11.9345C44.7339 12.0509 44.4018 12.1091 44.0672 12.1091H40.9327V10.2982H44.1181C44.1763 10.2982 44.2587 10.2909 44.3654 10.2764C44.4769 10.257 44.586 10.2109 44.6927 10.1382C44.8042 10.0655 44.9012 9.95636 44.9836 9.81091C45.066 9.66061 45.1072 9.45697 45.1072 9.2C45.1072 9.09333 45.0975 8.96485 45.0781 8.81455C45.0636 8.65939 45.0418 8.49455 45.0127 8.32C44.9836 8.14545 44.9496 7.96848 44.9109 7.78909C44.8769 7.60485 44.843 7.43273 44.809 7.27273C44.7751 7.10788 44.7412 6.96 44.7072 6.82909C44.6733 6.69333 44.6466 6.58909 44.6272 6.51636L46.3363 6ZM45.6527 4.58182L44.4309 3.34545L45.6381 2.09455L46.889 3.34545L45.6527 4.58182ZM42.6054 4.58909L41.3836 3.35273L42.5836 2.10182L43.8345 3.35273L42.6054 4.58909ZM67.2968 7.08364V9.21455C67.2968 9.38424 67.321 9.5297 67.3695 9.65091C67.4228 9.76727 67.4883 9.86667 67.5659 9.94909C67.6483 10.0267 67.738 10.0897 67.8349 10.1382C67.9319 10.1818 68.0265 10.2158 68.1186 10.24C68.2107 10.2642 68.2907 10.2812 68.3586 10.2909C68.4313 10.2958 68.4846 10.2982 68.5186 10.2982H68.9695V12.1091H68.5186C68.3537 12.1091 68.1768 12.097 67.9877 12.0727C67.8034 12.0533 67.6168 12.0194 67.4277 11.9709C67.2434 11.9176 67.064 11.8473 66.8895 11.76C66.7149 11.6727 66.5598 11.5661 66.424 11.44C65.8955 11.8812 65.178 12.1042 64.2713 12.1091H55.8786C55.5198 12.1091 55.1804 12.0485 54.8604 11.9273C54.5404 11.8061 54.2568 11.6291 54.0095 11.3964C53.9125 11.3042 53.8107 11.1927 53.704 11.0618C53.6022 10.9309 53.5101 10.7758 53.4277 10.5964C53.3452 10.417 53.2774 10.2158 53.224 9.99273C53.1707 9.76485 53.144 9.5103 53.144 9.22909C53.144 8.98667 53.1683 8.72485 53.2168 8.44364C53.2652 8.15758 53.3186 7.88848 53.3768 7.63636C53.4398 7.38424 53.498 7.16606 53.5513 6.98182C53.6046 6.79758 53.6386 6.68364 53.6531 6.64L54.5186 6.91636L55.3768 7.18545C55.3331 7.31636 55.2871 7.47394 55.2386 7.65818C55.1901 7.83758 55.144 8.02424 55.1004 8.21818C55.0568 8.41212 55.0204 8.59879 54.9913 8.77818C54.9622 8.95758 54.9477 9.11273 54.9477 9.24364C54.9477 9.47636 54.9792 9.66545 55.0422 9.81091C55.1101 9.95152 55.1901 10.0606 55.2822 10.1382C55.3792 10.2109 55.4834 10.2594 55.5949 10.2836C55.7065 10.3079 55.8059 10.32 55.8931 10.32H64.2204C64.4871 10.32 64.7149 10.2958 64.904 10.2473C65.0931 10.1939 65.2337 10.1188 65.3259 10.0218C65.4374 9.89576 65.4931 9.71394 65.4931 9.47636V7.08364H67.2968ZM61.6822 6.47273L60.4604 5.23636L61.6677 3.98545L62.9186 5.23636L61.6822 6.47273ZM58.6349 6.48L57.4131 5.24364L58.6131 3.99273L59.864 5.24364L58.6349 6.48ZM68.667 12.1091V10.2982H72.9216C72.9992 10.2982 73.1058 10.2958 73.2416 10.2909C73.3773 10.2812 73.5107 10.2618 73.6416 10.2327C73.7725 10.1988 73.884 10.1527 73.9761 10.0945C74.0731 10.0315 74.1216 9.94667 74.1216 9.84C74.1216 9.63152 74.0416 9.37939 73.8816 9.08364C73.7264 8.78788 73.5252 8.47273 73.278 8.13818C73.0307 7.80364 72.7519 7.46667 72.4416 7.12727C72.1361 6.78303 71.8307 6.46061 71.5252 6.16C71.2246 5.85455 70.941 5.58545 70.6743 5.35273C70.4077 5.12 70.1943 4.94545 70.0343 4.82909L70.1798 3.18545L76.507 0.290909L77.1689 1.87636L71.8452 4.22545C72.0295 4.40485 72.2355 4.60848 72.4634 4.83636C72.6961 5.06424 72.9337 5.30667 73.1761 5.56364C73.4186 5.81576 73.6586 6.08 73.8961 6.35636C74.1386 6.62788 74.364 6.90182 74.5725 7.17818C74.7858 7.4497 74.9749 7.71636 75.1398 7.97818C75.3046 8.24 75.4331 8.48727 75.5252 8.72C75.6077 8.92364 75.6658 9.12 75.6998 9.30909C75.7337 9.49818 75.7507 9.6703 75.7507 9.82545C75.7507 10.0194 75.7313 10.1891 75.6925 10.3345C75.6586 10.48 75.6198 10.6036 75.5761 10.7055C75.518 10.8364 75.4283 10.9842 75.307 11.1491C75.1858 11.3139 75.0161 11.4667 74.798 11.6073C74.5846 11.7479 74.3131 11.8667 73.9834 11.9636C73.6586 12.0606 73.2634 12.1091 72.798 12.1091H68.667ZM82.1157 12.1091H81.8394C81.6406 12.1091 81.4515 12.097 81.2721 12.0727C81.0976 12.0485 80.9254 11.9806 80.7557 11.8691C80.6976 12.4945 80.5545 13.0618 80.3266 13.5709C80.0988 14.08 79.7933 14.5139 79.4103 14.8727C79.0321 15.2364 78.5788 15.5176 78.0503 15.7164C77.5218 15.9152 76.9279 16.0145 76.2685 16.0145H75.3594V14.2036H76.2685C76.7339 14.2036 77.1363 14.1552 77.4757 14.0582C77.8151 13.9612 78.0939 13.8061 78.3121 13.5927C78.5303 13.3794 78.6927 13.1006 78.7994 12.7564C78.906 12.417 78.9594 12.0024 78.9594 11.5127V7.08364H80.7703V9.25818C80.7703 9.48121 80.8163 9.66061 80.9085 9.79636C81.0054 9.93212 81.1145 10.0388 81.2357 10.1164C81.3618 10.1891 81.483 10.2376 81.5994 10.2618C81.7157 10.2861 81.7957 10.2982 81.8394 10.2982H82.1157V12.1091ZM87.4597 12.0945C86.5724 12.0945 85.8694 11.8642 85.3506 11.4036C85.0839 11.6509 84.7881 11.8303 84.4633 11.9418C84.1384 12.0533 83.8039 12.1091 83.4597 12.1091H81.8233V10.2982H83.4597C83.5178 10.2982 83.6003 10.2885 83.7069 10.2691C83.8184 10.2497 83.9275 10.2036 84.0342 10.1309C84.1457 10.0533 84.2427 9.94182 84.3251 9.79636C84.4075 9.64606 84.4488 9.44 84.4488 9.17818V7.08364H86.2597V9.14909C86.2597 9.54667 86.3518 9.83758 86.536 10.0218C86.7251 10.2012 87.033 10.2909 87.4597 10.2909C87.5178 10.2909 87.6003 10.2812 87.7069 10.2618C87.8184 10.2376 87.9275 10.1867 88.0342 10.1091C88.1457 10.0315 88.2427 9.91758 88.3251 9.76727C88.4075 9.61212 88.4488 9.40606 88.4488 9.14909V7.08364H90.2524V9.14909C90.2524 9.54667 90.3469 9.84 90.536 10.0291C90.73 10.2133 91.0427 10.3055 91.4742 10.3055C91.5372 10.3055 91.6221 10.2933 91.7288 10.2691C91.8403 10.24 91.9494 10.1867 92.056 10.1091C92.1627 10.0267 92.2548 9.9103 92.3324 9.76C92.41 9.6097 92.4488 9.40606 92.4488 9.14909C92.4488 9.04242 92.4391 8.91394 92.4197 8.76364C92.4051 8.61333 92.3833 8.45576 92.3542 8.29091C92.33 8.12121 92.3009 7.95152 92.2669 7.78182C92.233 7.60727 92.1991 7.44242 92.1651 7.28727C92.1312 7.13212 92.0972 6.99152 92.0633 6.86545C92.0342 6.73939 92.01 6.64 91.9906 6.56727L93.6997 6.00727C93.7094 6.04121 93.7288 6.11879 93.7578 6.24C93.7869 6.36121 93.8209 6.51152 93.8597 6.69091C93.9033 6.8703 93.9469 7.06909 93.9906 7.28727C94.0342 7.50545 94.073 7.72606 94.1069 7.94909C94.1457 8.16727 94.1772 8.38303 94.2015 8.59636C94.2257 8.80485 94.2378 8.98909 94.2378 9.14909C94.2378 9.64364 94.1554 10.0776 93.9906 10.4509C93.8306 10.8194 93.6197 11.1273 93.3578 11.3745C93.096 11.617 92.8003 11.7988 92.4706 11.92C92.1409 12.0412 91.8088 12.1042 91.4742 12.1091C90.5724 12.1091 89.8597 11.8715 89.336 11.3964C89.0694 11.6436 88.7736 11.823 88.4488 11.9345C88.1288 12.0412 87.7991 12.0945 87.4597 12.0945ZM89.1033 3.86909L87.8669 5.12L86.6306 3.88364L87.8669 2.63273L89.1033 3.86909ZM92.2233 3.84L91.0015 5.07636L89.7288 3.85455L90.9797 2.60364L92.2233 3.84ZM90.616 1.78909L89.4524 2.95273L88.3033 1.80364L89.4669 0.64L90.616 1.78909Z" fill="#777777"/>
</svg>
