<svg width="174" height="17" viewBox="0 0 174 17" fill="none" xmlns="http://www.w3.org/2000/svg">
<path d="M14.9921 7.08364V9.21455C14.9921 9.38424 15.0163 9.5297 15.0648 9.65091C15.1181 9.76727 15.1836 9.86667 15.2612 9.94909C15.3436 10.0267 15.4333 10.0897 15.5303 10.1382C15.6272 10.1818 15.7218 10.2158 15.8139 10.24C15.906 10.2642 15.986 10.2812 16.0539 10.2909C16.1266 10.2958 16.18 10.2982 16.2139 10.2982H16.6648V12.1091H16.2139C16.049 12.1091 15.8721 12.097 15.683 12.0727C15.4987 12.0533 15.3121 12.0194 15.123 11.9709C14.9387 11.9176 14.7593 11.8473 14.5848 11.76C14.4103 11.6727 14.2551 11.5661 14.1193 11.44C13.5909 11.8812 12.8733 12.1042 11.9666 12.1091H3.57389C3.2151 12.1091 2.87571 12.0485 2.55571 11.9273C2.23571 11.8061 1.95207 11.6291 1.7048 11.3964C1.60783 11.3042 1.50601 11.1927 1.39935 11.0618C1.29753 10.9309 1.20541 10.7758 1.12298 10.5964C1.04056 10.417 0.97268 10.2158 0.919347 9.99273C0.866013 9.76485 0.839347 9.5103 0.839347 9.22909C0.839347 8.98667 0.863589 8.72485 0.912074 8.44364C0.960559 8.15758 1.01389 7.88848 1.07207 7.63636C1.1351 7.38424 1.19329 7.16606 1.24662 6.98182C1.29995 6.79758 1.33389 6.68364 1.34844 6.64L2.21389 6.91636L3.07207 7.18545C3.02844 7.31636 2.98238 7.47394 2.93389 7.65818C2.88541 7.83758 2.83935 8.02424 2.79571 8.21818C2.75207 8.41212 2.71571 8.59879 2.68662 8.77818C2.65753 8.95758 2.64298 9.11273 2.64298 9.24364C2.64298 9.47636 2.6745 9.66545 2.73753 9.81091C2.80541 9.95152 2.88541 10.0606 2.97753 10.1382C3.0745 10.2109 3.17874 10.2594 3.29026 10.2836C3.40177 10.3079 3.50116 10.32 3.58844 10.32H11.9157C12.1824 10.32 12.4103 10.2958 12.5993 10.2473C12.7884 10.1939 12.929 10.1188 13.0212 10.0218C13.1327 9.89576 13.1884 9.71394 13.1884 9.47636V7.08364H14.9921ZM9.37753 6.47273L8.15571 5.23636L9.36298 3.98545L10.6139 5.23636L9.37753 6.47273ZM6.33026 6.48L5.10844 5.24364L6.30844 3.99273L7.55935 5.24364L6.33026 6.48ZM26.406 9.21455C26.3769 9.23394 26.2508 9.31879 26.0278 9.46909C25.8048 9.61939 25.509 9.80364 25.1405 10.0218C24.7721 10.2352 24.3405 10.463 23.846 10.7055C23.3514 10.9479 22.8181 11.1733 22.246 11.3818C21.6739 11.5903 21.0751 11.7648 20.4496 11.9055C19.8242 12.0412 19.1963 12.1091 18.566 12.1091H16.3624V10.2982H18.566C19.0411 10.2982 19.5478 10.2497 20.086 10.1527C20.6242 10.0558 21.1551 9.93212 21.6787 9.78182C22.2024 9.62667 22.6993 9.45455 23.1696 9.26545C23.6448 9.07636 24.0569 8.8897 24.406 8.70545C24.183 8.63758 23.9405 8.56485 23.6787 8.48727C23.4218 8.40485 23.1575 8.32485 22.886 8.24727C22.6145 8.16485 22.3454 8.08727 22.0787 8.01455C21.8121 7.93697 21.5624 7.86909 21.3296 7.81091C21.0969 7.75273 20.8884 7.70667 20.7042 7.67273C20.5199 7.63879 20.3745 7.62182 20.2678 7.62182C20.1563 7.62182 20.0569 7.63636 19.9696 7.66545C19.8872 7.6897 19.8121 7.73333 19.7442 7.79636C19.6763 7.85455 19.6133 7.93212 19.5551 8.02909C19.4969 8.12606 19.4363 8.24242 19.3733 8.37818L17.7078 7.87636C17.7999 7.58545 17.9114 7.31394 18.0424 7.06182C18.1781 6.80485 18.3405 6.58182 18.5296 6.39273C18.7236 6.20364 18.9466 6.05576 19.1987 5.94909C19.4508 5.83758 19.7393 5.78182 20.0642 5.78182C20.1902 5.78182 20.3696 5.80848 20.6024 5.86182C20.8351 5.91515 21.0993 5.98545 21.3951 6.07273C21.6908 6.16 22.006 6.25939 22.3405 6.37091C22.6799 6.48242 23.0193 6.59879 23.3587 6.72C23.6981 6.84121 24.0278 6.96 24.3478 7.07636C24.6678 7.19273 24.9563 7.29939 25.2133 7.39636C25.4702 7.48848 25.686 7.56606 25.8605 7.62909C26.0351 7.69212 26.1466 7.73091 26.1951 7.74545L26.406 9.21455ZM18.3696 2.82909L19.6787 1.50545L21.0169 2.84364L19.6933 4.16727L18.3696 2.82909ZM31.8253 12.1091C31.292 12.1091 30.8338 12.0752 30.4508 12.0073C30.0677 11.9442 29.7453 11.8497 29.4835 11.7236C29.2217 11.5927 29.0108 11.4279 28.8508 11.2291C28.6956 11.0303 28.5768 10.7976 28.4944 10.5309C28.412 10.2642 28.3562 9.96364 28.3271 9.62909C28.3029 9.2897 28.2908 8.91636 28.2908 8.50909V1.62182H30.1017V8.50909C30.1017 8.89697 30.1138 9.20727 30.138 9.44C30.1671 9.67273 30.2374 9.85455 30.3489 9.98545C30.4653 10.1115 30.6374 10.1964 30.8653 10.24C31.098 10.2788 31.418 10.2982 31.8253 10.2982V12.1091ZM37.1706 12.0945C36.2833 12.0945 35.5803 11.8642 35.0615 11.4036C34.7948 11.6509 34.4991 11.8303 34.1742 11.9418C33.8494 12.0533 33.5148 12.1091 33.1706 12.1091H31.5342V10.2982H33.1706C33.2288 10.2982 33.3112 10.2885 33.4179 10.2691C33.5294 10.2497 33.6385 10.2036 33.7451 10.1309C33.8567 10.0533 33.9536 9.94182 34.0361 9.79636C34.1185 9.64606 34.1597 9.44 34.1597 9.17818V7.08364H35.9706V9.14909C35.9706 9.54667 36.0627 9.83758 36.247 10.0218C36.4361 10.2012 36.7439 10.2909 37.1706 10.2909C37.2288 10.2909 37.3112 10.2812 37.4179 10.2618C37.5294 10.2376 37.6385 10.1867 37.7451 10.1091C37.8567 10.0315 37.9536 9.91758 38.0361 9.76727C38.1185 9.61212 38.1597 9.40606 38.1597 9.14909V7.08364H39.9633V9.14909C39.9633 9.54667 40.0579 9.84 40.247 10.0291C40.4409 10.2133 40.7536 10.3055 41.1851 10.3055C41.2482 10.3055 41.333 10.2933 41.4397 10.2691C41.5512 10.24 41.6603 10.1867 41.767 10.1091C41.8736 10.0267 41.9657 9.9103 42.0433 9.76C42.1209 9.6097 42.1597 9.40606 42.1597 9.14909C42.1597 9.04242 42.15 8.91394 42.1306 8.76364C42.1161 8.61333 42.0942 8.45576 42.0651 8.29091C42.0409 8.12121 42.0118 7.95152 41.9779 7.78182C41.9439 7.60727 41.91 7.44242 41.8761 7.28727C41.8421 7.13212 41.8082 6.99152 41.7742 6.86545C41.7451 6.73939 41.7209 6.64 41.7015 6.56727L43.4106 6.00727C43.4203 6.04121 43.4397 6.11879 43.4688 6.24C43.4979 6.36121 43.5318 6.51152 43.5706 6.69091C43.6142 6.8703 43.6579 7.06909 43.7015 7.28727C43.7451 7.50545 43.7839 7.72606 43.8179 7.94909C43.8567 8.16727 43.8882 8.38303 43.9124 8.59636C43.9367 8.80485 43.9488 8.98909 43.9488 9.14909C43.9488 9.64364 43.8664 10.0776 43.7015 10.4509C43.5415 10.8194 43.3306 11.1273 43.0688 11.3745C42.807 11.617 42.5112 11.7988 42.1815 11.92C41.8518 12.0412 41.5197 12.1042 41.1851 12.1091C40.2833 12.1091 39.5706 11.8715 39.047 11.3964C38.7803 11.6436 38.4845 11.823 38.1597 11.9345C37.8397 12.0412 37.51 12.0945 37.1706 12.0945ZM54.0622 16.1309C53.7179 16.1309 53.3882 16.0921 53.0731 16.0145C52.7579 15.937 52.4622 15.823 52.1858 15.6727C51.9095 15.5224 51.6549 15.3406 51.4222 15.1273C51.1895 14.9188 50.9858 14.6788 50.8113 14.4073C50.7386 14.2909 50.6634 14.1527 50.5858 13.9927C50.5131 13.8376 50.4476 13.6606 50.3895 13.4618C50.3313 13.263 50.2828 13.0424 50.244 12.8C50.2052 12.5576 50.1858 12.2933 50.1858 12.0073C50.1858 11.7697 50.1979 11.5273 50.2222 11.28C50.2464 11.0279 50.2925 10.7612 50.3604 10.48C50.4282 10.1988 50.5228 9.89576 50.644 9.57091C50.7652 9.24121 50.9228 8.87515 51.1167 8.47273L52.7531 9.25091C52.6076 9.55152 52.484 9.82788 52.3822 10.08C52.2852 10.3273 52.2076 10.5624 52.1495 10.7855C52.0913 11.0036 52.0476 11.2121 52.0186 11.4109C51.9943 11.6097 51.9822 11.8109 51.9822 12.0145C51.9822 12.2909 52.0113 12.5479 52.0695 12.7855C52.1325 13.0279 52.2246 13.2461 52.3458 13.44L52.3386 13.4327C52.5228 13.6945 52.7676 13.9079 53.0731 14.0727C53.3834 14.2376 53.7131 14.32 54.0622 14.32H54.3967C54.9058 14.32 55.3204 14.2667 55.6404 14.16C55.9652 14.0533 56.2173 13.903 56.3967 13.7091C56.581 13.5152 56.7046 13.28 56.7676 13.0036C56.8355 12.7273 56.8695 12.4194 56.8695 12.08V1.62182H58.6586V12.08C58.6586 14.7709 57.2379 16.1212 54.3967 16.1309H54.0622ZM64.6222 12.1091C64.0889 12.1091 63.6307 12.0752 63.2476 12.0073C62.8646 11.9442 62.5422 11.8497 62.2804 11.7236C62.0186 11.5927 61.8076 11.4279 61.6476 11.2291C61.4925 11.0303 61.3737 10.7976 61.2913 10.5309C61.2089 10.2642 61.1531 9.96364 61.124 9.62909C61.0998 9.2897 61.0876 8.91636 61.0876 8.50909V1.62182H62.8986V8.50909C62.8986 8.89697 62.9107 9.20727 62.9349 9.44C62.964 9.67273 63.0343 9.85455 63.1458 9.98545C63.2622 10.1115 63.4343 10.1964 63.6622 10.24C63.8949 10.2788 64.2149 10.2982 64.6222 10.2982V12.1091ZM74.3747 9.21455C74.3457 9.23394 74.2196 9.31879 73.9966 9.46909C73.7735 9.61939 73.4778 9.80364 73.1093 10.0218C72.7408 10.2352 72.3093 10.463 71.8147 10.7055C71.3202 10.9479 70.7869 11.1733 70.2147 11.3818C69.6426 11.5903 69.0438 11.7648 68.4184 11.9055C67.7929 12.0412 67.165 12.1091 66.5347 12.1091H64.3311V10.2982H66.5347C67.0099 10.2982 67.5166 10.2497 68.0547 10.1527C68.5929 10.0558 69.1238 9.93212 69.6475 9.78182C70.1711 9.62667 70.6681 9.45455 71.1384 9.26545C71.6135 9.07636 72.0257 8.8897 72.3747 8.70545C72.1517 8.63758 71.9093 8.56485 71.6475 8.48727C71.3905 8.40485 71.1263 8.32485 70.8547 8.24727C70.5832 8.16485 70.3141 8.08727 70.0475 8.01455C69.7808 7.93697 69.5311 7.86909 69.2984 7.81091C69.0657 7.75273 68.8572 7.70667 68.6729 7.67273C68.4887 7.63879 68.3432 7.62182 68.2366 7.62182C68.125 7.62182 68.0257 7.63636 67.9384 7.66545C67.856 7.6897 67.7808 7.73333 67.7129 7.79636C67.645 7.85455 67.582 7.93212 67.5238 8.02909C67.4657 8.12606 67.405 8.24242 67.342 8.37818L65.6766 7.87636C65.7687 7.58545 65.8802 7.31394 66.0111 7.06182C66.1469 6.80485 66.3093 6.58182 66.4984 6.39273C66.6923 6.20364 66.9154 6.05576 67.1675 5.94909C67.4196 5.83758 67.7081 5.78182 68.0329 5.78182C68.159 5.78182 68.3384 5.80848 68.5711 5.86182C68.8038 5.91515 69.0681 5.98545 69.3638 6.07273C69.6596 6.16 69.9747 6.25939 70.3093 6.37091C70.6487 6.48242 70.9881 6.59879 71.3275 6.72C71.6669 6.84121 71.9966 6.96 72.3166 7.07636C72.6366 7.19273 72.925 7.29939 73.182 7.39636C73.439 7.48848 73.6547 7.56606 73.8293 7.62909C74.0038 7.69212 74.1154 7.73091 74.1638 7.74545L74.3747 9.21455ZM85.3802 11.6655C85.3511 12.3345 85.2275 12.9358 85.0093 13.4691C84.7911 14.0073 84.4905 14.463 84.1075 14.8364C83.7244 15.2145 83.2614 15.5055 82.7184 15.7091C82.1754 15.9127 81.562 16.0145 80.8784 16.0145H79.9766V14.2036H80.8784C81.3438 14.2036 81.7463 14.1552 82.0857 14.0582C82.425 13.9612 82.7038 13.8061 82.922 13.5927C83.1402 13.3794 83.3026 13.1006 83.4093 12.7564C83.516 12.417 83.5693 12.0024 83.5693 11.5127V7.08364H85.3802V11.6655ZM89.6126 12.1164C89.4284 12.1164 89.2466 12.1067 89.0672 12.0873C88.8878 12.0679 88.706 12.0412 88.5217 12.0073C88.3375 11.9733 88.1484 11.9321 87.9545 11.8836C87.7605 11.8303 87.5569 11.7721 87.3436 11.7091L86.4781 11.4473L87.0017 9.70182C87.4236 9.84727 87.8599 9.97576 88.3108 10.0873C88.7666 10.1988 89.1957 10.2715 89.5981 10.3055C89.729 10.3152 89.8551 10.32 89.9763 10.32C90.2187 10.32 90.4611 10.2933 90.7036 10.24C90.9508 10.1867 91.1254 10.0533 91.2272 9.84C91.2466 9.80121 91.2563 9.75515 91.2563 9.70182C91.2563 9.66788 91.2466 9.61455 91.2272 9.54182C91.2078 9.46909 91.1593 9.37697 91.0817 9.26545L88.369 5.30909L89.8963 4.32L90.3908 5.08364C90.3908 5.08848 90.3981 5.10303 90.4126 5.12727C90.432 5.15152 90.466 5.20242 90.5145 5.28C90.5678 5.35758 90.6405 5.46909 90.7326 5.61455C90.8296 5.75515 90.9557 5.94182 91.1108 6.17455C91.266 6.40727 91.4551 6.69576 91.6781 7.04C91.906 7.37939 92.1775 7.78667 92.4926 8.26182C92.7399 8.63515 92.8926 9.02061 92.9508 9.41818C92.9654 9.52 92.9726 9.61939 92.9726 9.71636C92.9726 10.0073 92.9145 10.2861 92.7981 10.5527C92.7157 10.7467 92.6042 10.9261 92.4636 11.0909C92.3278 11.2509 92.1678 11.3939 91.9836 11.52C91.6393 11.7576 91.2248 11.92 90.7399 12.0073C90.3326 12.08 89.9569 12.1164 89.6126 12.1164ZM105.344 14.2982C105.785 14.2982 106.166 14.2691 106.486 14.2109C106.811 14.1576 107.078 14.0606 107.286 13.92C107.494 13.7842 107.65 13.6 107.751 13.3673C107.858 13.1345 107.914 12.8412 107.919 12.4873C107.851 12.4679 107.742 12.4388 107.591 12.4C107.446 12.3612 107.271 12.3152 107.068 12.2618C106.869 12.2085 106.651 12.1503 106.413 12.0873C106.181 12.0242 105.943 11.9612 105.701 11.8982C105.458 11.8303 105.218 11.7673 104.981 11.7091C104.748 11.6461 104.532 11.5903 104.333 11.5418C104.207 11.2218 104.113 10.9115 104.05 10.6109C103.991 10.3055 103.962 10.0073 103.962 9.71636C103.962 9.16364 104.064 8.64242 104.268 8.15273C104.471 7.65818 104.762 7.22909 105.141 6.86545C105.519 6.49697 105.979 6.20606 106.522 5.99273C107.07 5.77939 107.686 5.67273 108.37 5.67273C108.612 5.67273 108.852 5.69212 109.09 5.73091C109.332 5.7697 109.606 5.8303 109.911 5.91273L109.453 7.65818C109.225 7.5903 109.027 7.54182 108.857 7.51273C108.687 7.47879 108.513 7.46182 108.333 7.46182C107.97 7.46182 107.63 7.51515 107.315 7.62182C107.005 7.72364 106.733 7.87394 106.501 8.07273C106.273 8.27152 106.091 8.51394 105.955 8.8C105.824 9.08606 105.759 9.41091 105.759 9.77455C105.759 9.80364 105.759 9.83515 105.759 9.86909C105.759 9.89818 105.761 9.92727 105.766 9.95636L108.319 10.6109C108.784 10.7273 109.121 10.9261 109.33 11.2073C109.538 11.4836 109.642 11.8279 109.642 12.24C109.642 12.9139 109.565 13.4933 109.41 13.9782C109.254 14.4679 109.005 14.8703 108.661 15.1855C108.321 15.5055 107.878 15.7406 107.33 15.8909C106.787 16.0461 106.125 16.1236 105.344 16.1236H103.81C103.412 16.1236 103.031 16.0776 102.668 15.9855C102.304 15.8933 101.962 15.76 101.642 15.5855C101.322 15.4158 101.029 15.2073 100.762 14.96C100.496 14.7176 100.261 14.4412 100.057 14.1309C99.5769 13.3552 99.3369 12.4461 99.3369 11.4036C99.3369 11.0836 99.3587 10.7661 99.4024 10.4509C99.446 10.1358 99.5139 9.81333 99.606 9.48364C99.703 9.14909 99.8242 8.8 99.9696 8.43636C100.115 8.07273 100.29 7.68 100.493 7.25818L102.108 8.03636C101.938 8.39515 101.793 8.72485 101.671 9.02545C101.555 9.32121 101.456 9.60242 101.373 9.86909C101.296 10.1309 101.238 10.3855 101.199 10.6327C101.165 10.8752 101.148 11.12 101.148 11.3673C101.148 12.0703 101.303 12.6667 101.613 13.1564C101.836 13.5248 102.139 13.8061 102.522 14C102.91 14.1988 103.339 14.2982 103.81 14.2982H105.344ZM115.544 12.1091C115.011 12.1091 114.553 12.0752 114.17 12.0073C113.786 11.9442 113.464 11.8497 113.202 11.7236C112.94 11.5927 112.73 11.4279 112.57 11.2291C112.414 11.0303 112.296 10.7976 112.213 10.5309C112.131 10.2642 112.075 9.96364 112.046 9.62909C112.022 9.2897 112.01 8.91636 112.01 8.50909V1.62182H113.82V8.50909C113.82 8.89697 113.833 9.20727 113.857 9.44C113.886 9.67273 113.956 9.85455 114.068 9.98545C114.184 10.1115 114.356 10.1964 114.584 10.24C114.817 10.2788 115.137 10.2982 115.544 10.2982V12.1091ZM122.315 4.16C122.63 4.57697 122.95 4.99879 123.275 5.42545C123.411 5.6097 123.554 5.80121 123.704 6C123.859 6.19879 124.014 6.40242 124.169 6.61091C124.329 6.81455 124.484 7.01818 124.635 7.22182C124.785 7.42545 124.931 7.61939 125.071 7.80364C125.372 8.20606 125.568 8.64485 125.66 9.12C125.689 9.2897 125.704 9.45939 125.704 9.62909C125.704 9.93455 125.653 10.24 125.551 10.5455C125.454 10.8364 125.311 11.103 125.122 11.3455C124.938 11.5879 124.712 11.7964 124.446 11.9709C124.179 12.1455 123.874 12.2812 123.529 12.3782C123.185 12.4752 122.807 12.5236 122.395 12.5236C122.046 12.5236 121.684 12.4873 121.311 12.4145C120.938 12.3467 120.557 12.2158 120.169 12.0218C120.082 11.983 119.997 11.9442 119.915 11.9055C119.842 11.8715 119.767 11.8376 119.689 11.8036C119.612 11.7648 119.546 11.7309 119.493 11.7018C119.028 11.8424 118.511 11.9442 117.944 12.0073C117.381 12.0752 116.758 12.1091 116.075 12.1091H115.253V10.2982H116.075C116.211 10.2982 116.329 10.3006 116.431 10.3055C116.538 10.3055 116.64 10.3055 116.737 10.3055C116.829 10.3055 116.921 10.303 117.013 10.2982C117.11 10.2933 117.217 10.2836 117.333 10.2691C117.207 10.1236 117.093 9.98303 116.991 9.84727C116.894 9.70667 116.809 9.56121 116.737 9.41091C116.669 9.25576 116.615 9.09333 116.577 8.92364C116.543 8.74909 116.526 8.55758 116.526 8.34909C116.526 7.95151 116.601 7.58545 116.751 7.25091C116.906 6.91636 117.117 6.6303 117.384 6.39273C117.655 6.15515 117.971 5.97091 118.329 5.84C118.693 5.70424 119.083 5.63636 119.5 5.63636C119.971 5.63636 120.388 5.73091 120.751 5.92C121.12 6.10424 121.428 6.33939 121.675 6.62545C121.927 6.90667 122.116 7.21212 122.242 7.54182C122.373 7.87152 122.438 8.17939 122.438 8.46545C122.438 8.69818 122.414 8.91152 122.366 9.10545C122.322 9.29939 122.259 9.48364 122.177 9.65818C122.094 9.82788 121.992 9.9903 121.871 10.1455C121.75 10.3006 121.614 10.4533 121.464 10.6036C121.614 10.6521 121.769 10.6982 121.929 10.7418C122.089 10.7806 122.244 10.8 122.395 10.8C122.545 10.8 122.703 10.7903 122.868 10.7709C123.032 10.7467 123.188 10.703 123.333 10.64C123.483 10.5721 123.614 10.48 123.726 10.3636C123.842 10.2473 123.929 10.0945 123.988 9.90545C124.007 9.83758 124.017 9.76727 124.017 9.69455C124.017 9.56364 123.978 9.39636 123.9 9.19273C123.823 8.98909 123.68 8.7297 123.471 8.41455C123.268 8.09939 123.013 7.75273 122.708 7.37455C122.402 6.99152 122.068 6.57455 121.704 6.12364L120.948 5.18545L122.315 4.16ZM118.242 8.34909C118.242 8.52848 118.269 8.68848 118.322 8.82909C118.38 8.96485 118.465 9.09091 118.577 9.20727C118.693 9.32364 118.834 9.43758 118.998 9.54909C119.168 9.65576 119.364 9.7697 119.588 9.89091C119.738 9.81818 119.883 9.73576 120.024 9.64364C120.164 9.55152 120.286 9.4497 120.388 9.33818C120.494 9.22182 120.579 9.09333 120.642 8.95273C120.705 8.81212 120.737 8.65697 120.737 8.48727C120.737 8.28364 120.693 8.10424 120.606 7.94909C120.518 7.79394 120.412 7.66545 120.286 7.56364C120.16 7.46182 120.024 7.38667 119.878 7.33818C119.738 7.2897 119.612 7.26545 119.5 7.26545C119.335 7.26545 119.175 7.29455 119.02 7.35273C118.87 7.41091 118.737 7.49091 118.62 7.59273C118.504 7.6897 118.412 7.80364 118.344 7.93455C118.276 8.06545 118.242 8.20364 118.242 8.34909ZM146.18 7.08364V9.21455C146.18 9.38424 146.204 9.5297 146.252 9.65091C146.306 9.76727 146.371 9.86667 146.449 9.94909C146.531 10.0267 146.621 10.0897 146.718 10.1382C146.815 10.1818 146.909 10.2158 147.001 10.24C147.094 10.2642 147.174 10.2812 147.241 10.2909C147.314 10.2958 147.367 10.2982 147.401 10.2982H147.852V12.1091H147.401C147.237 12.1091 147.06 12.097 146.87 12.0727C146.686 12.0533 146.5 12.0194 146.31 11.9709C146.126 11.9176 145.947 11.8473 145.772 11.76C145.598 11.6727 145.443 11.5661 145.307 11.44C144.778 11.8812 144.061 12.1042 143.154 12.1091H134.761C134.403 12.1091 134.063 12.0485 133.743 11.9273C133.423 11.8061 133.14 11.6291 132.892 11.3964C132.795 11.3042 132.694 11.1927 132.587 11.0618C132.485 10.9309 132.393 10.7758 132.31 10.5964C132.228 10.417 132.16 10.2158 132.107 9.99273C132.054 9.76485 132.027 9.5103 132.027 9.22909C132.027 8.98667 132.051 8.72485 132.1 8.44364C132.148 8.15758 132.201 7.88848 132.26 7.63636C132.323 7.38424 132.381 7.16606 132.434 6.98182C132.487 6.79758 132.521 6.68364 132.536 6.64L133.401 6.91636L134.26 7.18545C134.216 7.31636 134.17 7.47394 134.121 7.65818C134.073 7.83758 134.027 8.02424 133.983 8.21818C133.94 8.41212 133.903 8.59879 133.874 8.77818C133.845 8.95758 133.83 9.11273 133.83 9.24364C133.83 9.47636 133.862 9.66545 133.925 9.81091C133.993 9.95152 134.073 10.0606 134.165 10.1382C134.262 10.2109 134.366 10.2594 134.478 10.2836C134.589 10.3079 134.689 10.32 134.776 10.32H143.103C143.37 10.32 143.598 10.2958 143.787 10.2473C143.976 10.1939 144.117 10.1188 144.209 10.0218C144.32 9.89576 144.376 9.71394 144.376 9.47636V7.08364H146.18ZM140.565 6.47273L139.343 5.23636L140.55 3.98545L141.801 5.23636L140.565 6.47273ZM137.518 6.48L136.296 5.24364L137.496 3.99273L138.747 5.24364L137.518 6.48ZM147.55 12.1091V10.2982H151.804C151.882 10.2982 151.989 10.2958 152.124 10.2909C152.26 10.2812 152.393 10.2618 152.524 10.2327C152.655 10.1988 152.767 10.1527 152.859 10.0945C152.956 10.0315 153.004 9.94667 153.004 9.84C153.004 9.63152 152.924 9.37939 152.764 9.08364C152.609 8.78788 152.408 8.47273 152.161 8.13818C151.913 7.80364 151.635 7.46667 151.324 7.12727C151.019 6.78303 150.713 6.46061 150.408 6.16C150.107 5.85455 149.824 5.58545 149.557 5.35273C149.29 5.12 149.077 4.94545 148.917 4.82909L149.063 3.18545L155.39 0.290909L156.052 1.87636L150.728 4.22545C150.912 4.40485 151.118 4.60848 151.346 4.83636C151.579 5.06424 151.817 5.30667 152.059 5.56364C152.301 5.81576 152.541 6.08 152.779 6.35636C153.021 6.62788 153.247 6.90182 153.455 7.17818C153.669 7.4497 153.858 7.71636 154.023 7.97818C154.187 8.24 154.316 8.48727 154.408 8.72C154.49 8.92364 154.549 9.12 154.583 9.30909C154.617 9.49818 154.633 9.6703 154.633 9.82545C154.633 10.0194 154.614 10.1891 154.575 10.3345C154.541 10.48 154.503 10.6036 154.459 10.7055C154.401 10.8364 154.311 10.9842 154.19 11.1491C154.069 11.3139 153.899 11.4667 153.681 11.6073C153.467 11.7479 153.196 11.8667 152.866 11.9636C152.541 12.0606 152.146 12.1091 151.681 12.1091H147.55ZM160.999 12.1091H160.722C160.523 12.1091 160.334 12.097 160.155 12.0727C159.98 12.0485 159.808 11.9806 159.639 11.8691C159.58 12.4945 159.437 13.0618 159.209 13.5709C158.982 14.08 158.676 14.5139 158.293 14.8727C157.915 15.2364 157.462 15.5176 156.933 15.7164C156.405 15.9152 155.811 16.0145 155.151 16.0145H154.242V14.2036H155.151C155.617 14.2036 156.019 14.1552 156.359 14.0582C156.698 13.9612 156.977 13.8061 157.195 13.5927C157.413 13.3794 157.576 13.1006 157.682 12.7564C157.789 12.417 157.842 12.0024 157.842 11.5127V7.08364H159.653V9.25818C159.653 9.48121 159.699 9.66061 159.791 9.79636C159.888 9.93212 159.997 10.0388 160.119 10.1164C160.245 10.1891 160.366 10.2376 160.482 10.2618C160.599 10.2861 160.679 10.2982 160.722 10.2982H160.999V12.1091ZM166.342 12.0945C165.455 12.0945 164.752 11.8642 164.233 11.4036C163.967 11.6509 163.671 11.8303 163.346 11.9418C163.021 12.0533 162.687 12.1091 162.342 12.1091H160.706V10.2982H162.342C162.401 10.2982 162.483 10.2885 162.59 10.2691C162.701 10.2497 162.81 10.2036 162.917 10.1309C163.029 10.0533 163.126 9.94182 163.208 9.79636C163.29 9.64606 163.332 9.44 163.332 9.17818V7.08364H165.142V9.14909C165.142 9.54667 165.235 9.83758 165.419 10.0218C165.608 10.2012 165.916 10.2909 166.342 10.2909C166.401 10.2909 166.483 10.2812 166.59 10.2618C166.701 10.2376 166.81 10.1867 166.917 10.1091C167.029 10.0315 167.126 9.91758 167.208 9.76727C167.29 9.61212 167.332 9.40606 167.332 9.14909V7.08364H169.135V9.14909C169.135 9.54667 169.23 9.84 169.419 10.0291C169.613 10.2133 169.926 10.3055 170.357 10.3055C170.42 10.3055 170.505 10.2933 170.612 10.2691C170.723 10.24 170.832 10.1867 170.939 10.1091C171.046 10.0267 171.138 9.9103 171.215 9.76C171.293 9.6097 171.332 9.40606 171.332 9.14909C171.332 9.04242 171.322 8.91394 171.302 8.76364C171.288 8.61333 171.266 8.45576 171.237 8.29091C171.213 8.12121 171.184 7.95152 171.15 7.78182C171.116 7.60727 171.082 7.44242 171.048 7.28727C171.014 7.13212 170.98 6.99152 170.946 6.86545C170.917 6.73939 170.893 6.64 170.873 6.56727L172.582 6.00727C172.592 6.04121 172.612 6.11879 172.641 6.24C172.67 6.36121 172.704 6.51152 172.742 6.69091C172.786 6.8703 172.83 7.06909 172.873 7.28727C172.917 7.50545 172.956 7.72606 172.99 7.94909C173.029 8.16727 173.06 8.38303 173.084 8.59636C173.109 8.80485 173.121 8.98909 173.121 9.14909C173.121 9.64364 173.038 10.0776 172.873 10.4509C172.713 10.8194 172.502 11.1273 172.241 11.3745C171.979 11.617 171.683 11.7988 171.353 11.92C171.024 12.0412 170.692 12.1042 170.357 12.1091C169.455 12.1091 168.742 11.8715 168.219 11.3964C167.952 11.6436 167.656 11.823 167.332 11.9345C167.012 12.0412 166.682 12.0945 166.342 12.0945ZM167.986 3.86909L166.75 5.12L165.513 3.88364L166.75 2.63273L167.986 3.86909ZM171.106 3.84L169.884 5.07636L168.612 3.85455L169.862 2.60364L171.106 3.84ZM169.499 1.78909L168.335 2.95273L167.186 1.80364L168.35 0.64L169.499 1.78909Z" fill="#777777"/>
</svg>
