<svg width="71" height="18" viewBox="0 0 71 18" fill="none" xmlns="http://www.w3.org/2000/svg">
<path d="M3.91125 12.1091C3.37792 12.1091 2.91973 12.0752 2.5367 12.0073C2.15367 11.9442 1.83125 11.8497 1.56943 11.7236C1.30761 11.5927 1.0967 11.4279 0.936705 11.2291C0.781553 11.0303 0.662765 10.7976 0.580341 10.5309C0.497917 10.2642 0.442159 9.96364 0.413068 9.62909C0.388826 9.2897 0.376705 8.91636 0.376705 8.50909V1.62182H2.18761V8.50909C2.18761 8.89697 2.19973 9.20727 2.22398 9.44C2.25307 9.67273 2.32337 9.85455 2.43489 9.98545C2.55125 10.1115 2.72337 10.1964 2.95125 10.24C3.18398 10.2788 3.50398 10.2982 3.91125 10.2982V12.1091ZM9.02381 6C9.0335 6.03394 9.0529 6.11394 9.08199 6.24C9.11593 6.36606 9.15229 6.52121 9.19108 6.70545C9.22987 6.88485 9.26866 7.08606 9.30744 7.30909C9.35108 7.53212 9.38987 7.75758 9.42381 7.98545C9.46259 8.20848 9.49169 8.42667 9.51108 8.64C9.53532 8.85333 9.54744 9.04 9.54744 9.2C9.54744 9.69939 9.46502 10.1333 9.30017 10.5018C9.13532 10.8655 8.91956 11.1661 8.6529 11.4036C8.38623 11.6412 8.08563 11.8182 7.75108 11.9345C7.42138 12.0509 7.08926 12.1091 6.75472 12.1091H3.62017V10.2982H6.80562C6.86381 10.2982 6.94623 10.2909 7.0529 10.2764C7.16441 10.257 7.2735 10.2109 7.38017 10.1382C7.49169 10.0655 7.58866 9.95636 7.67108 9.81091C7.7535 9.66061 7.79472 9.45697 7.79472 9.2C7.79472 9.09333 7.78502 8.96485 7.76562 8.81455C7.75108 8.65939 7.72926 8.49455 7.70017 8.32C7.67108 8.14545 7.63714 7.96848 7.59835 7.78909C7.56441 7.60485 7.53047 7.43273 7.49653 7.27273C7.46259 7.10788 7.42866 6.96 7.39472 6.82909C7.36078 6.69333 7.33411 6.58909 7.31472 6.51636L9.02381 6ZM3.99108 14.5018L5.22744 13.2655L6.46381 14.5164L5.22744 15.7527L3.99108 14.5018ZM7.02381 14.5164L8.27472 13.28L9.51108 14.5309L8.27472 15.7673L7.02381 14.5164ZM5.57653 16.5527L6.72563 15.4036L7.88926 16.5673L6.74017 17.7164L5.57653 16.5527ZM12.0375 14.2036C12.4254 14.2036 12.7696 14.1891 13.0702 14.16C13.3757 14.1358 13.6448 14.097 13.8775 14.0436C14.1151 13.9952 14.3211 13.9297 14.4957 13.8473C14.6751 13.7697 14.8302 13.6752 14.9611 13.5636C15.1648 13.3988 15.3175 13.2073 15.4193 12.9891C15.526 12.7709 15.589 12.4776 15.6084 12.1091H14.4884C14.246 12.1091 13.9987 12.0897 13.7466 12.0509C13.4945 12.0121 13.252 11.9467 13.0193 11.8545C12.7866 11.7576 12.566 11.6339 12.3575 11.4836C12.1539 11.3333 11.9745 11.1491 11.8193 10.9309C11.669 10.7079 11.5478 10.4461 11.4557 10.1455C11.3684 9.84485 11.3248 9.50061 11.3248 9.11273C11.3248 8.77818 11.3539 8.48242 11.412 8.22545C11.4702 7.96364 11.543 7.73333 11.6302 7.53455C11.7223 7.33576 11.8242 7.16364 11.9357 7.01818C12.0472 6.86788 12.1539 6.73697 12.2557 6.62545C12.5466 6.33455 12.8763 6.11152 13.2448 5.95636C13.6133 5.79636 14.0108 5.71636 14.4375 5.71636C14.966 5.71636 15.4169 5.80848 15.7902 5.99273C16.1684 6.17212 16.4763 6.42182 16.7139 6.74182C16.9563 7.06182 17.1333 7.44242 17.2448 7.88364C17.3563 8.32 17.412 8.79515 17.412 9.30909V10.2982H18.6484V12.1091H17.4048C17.3854 12.7733 17.2666 13.3333 17.0484 13.7891C16.8351 14.2448 16.5151 14.6424 16.0884 14.9818C15.8654 15.1564 15.623 15.3067 15.3611 15.4327C15.0993 15.5636 14.806 15.6727 14.4811 15.76C14.1563 15.8473 13.7927 15.9103 13.3902 15.9491C12.9927 15.9927 12.5417 16.0145 12.0375 16.0145V14.2036ZM14.4375 7.52727C14.0254 7.52727 13.6981 7.65576 13.4557 7.91273C13.2133 8.1697 13.092 8.5697 13.092 9.11273C13.092 9.32606 13.1333 9.50788 13.2157 9.65818C13.303 9.80848 13.412 9.93212 13.543 10.0291C13.6787 10.1212 13.829 10.1891 13.9939 10.2327C14.1587 10.2764 14.3236 10.2982 14.4884 10.2982H15.6084V9.30909C15.6084 9.03273 15.5866 8.79758 15.543 8.60364C15.4993 8.40485 15.4411 8.24 15.3684 8.10909C15.3005 7.97818 15.2205 7.87394 15.1284 7.79636C15.0411 7.71879 14.9539 7.66061 14.8666 7.62182C14.7842 7.58303 14.7042 7.55879 14.6266 7.54909C14.549 7.53455 14.486 7.52727 14.4375 7.52727ZM22.4957 6C22.5054 6.03394 22.5248 6.11394 22.5539 6.24C22.5878 6.36606 22.6242 6.52121 22.663 6.70545C22.7017 6.88485 22.7405 7.08606 22.7793 7.30909C22.823 7.53212 22.8617 7.75758 22.8957 7.98545C22.9345 8.20848 22.9636 8.42667 22.983 8.64C23.0072 8.85333 23.0193 9.04 23.0193 9.2C23.0193 9.69939 22.9369 10.1333 22.772 10.5018C22.6072 10.8655 22.3914 11.1661 22.1248 11.4036C21.8581 11.6412 21.5575 11.8182 21.223 11.9345C20.8933 12.0509 20.5611 12.1091 20.2266 12.1091H18.292V10.2982H20.2775C20.3357 10.2982 20.4181 10.2909 20.5248 10.2764C20.6363 10.257 20.7454 10.2109 20.852 10.1382C20.9636 10.0655 21.0605 9.95636 21.143 9.81091C21.2254 9.66061 21.2666 9.45697 21.2666 9.2C21.2666 9.09333 21.2569 8.96485 21.2375 8.81455C21.223 8.65939 21.2011 8.49455 21.172 8.32C21.143 8.14545 21.109 7.96848 21.0702 7.78909C21.0363 7.60485 21.0023 7.43273 20.9684 7.27273C20.9345 7.10788 20.9005 6.96 20.8666 6.82909C20.8327 6.69333 20.806 6.58909 20.7866 6.51636L22.4957 6ZM19.7684 3.07636L21.0775 1.75273L22.4157 3.09091L21.092 4.41455L19.7684 3.07636ZM43.2968 7.08364V9.21455C43.2968 9.38424 43.321 9.5297 43.3695 9.65091C43.4228 9.76727 43.4883 9.86667 43.5659 9.94909C43.6483 10.0267 43.738 10.0897 43.8349 10.1382C43.9319 10.1818 44.0265 10.2158 44.1186 10.24C44.2107 10.2642 44.2907 10.2812 44.3586 10.2909C44.4313 10.2958 44.4846 10.2982 44.5186 10.2982H44.9695V12.1091H44.5186C44.3537 12.1091 44.1768 12.097 43.9877 12.0727C43.8034 12.0533 43.6168 12.0194 43.4277 11.9709C43.2434 11.9176 43.064 11.8473 42.8895 11.76C42.7149 11.6727 42.5598 11.5661 42.424 11.44C41.8955 11.8812 41.178 12.1042 40.2713 12.1091H31.8786C31.5198 12.1091 31.1804 12.0485 30.8604 11.9273C30.5404 11.8061 30.2568 11.6291 30.0095 11.3964C29.9125 11.3042 29.8107 11.1927 29.704 11.0618C29.6022 10.9309 29.5101 10.7758 29.4277 10.5964C29.3452 10.417 29.2774 10.2158 29.224 9.99273C29.1707 9.76485 29.144 9.5103 29.144 9.22909C29.144 8.98667 29.1683 8.72485 29.2168 8.44364C29.2652 8.15758 29.3186 7.88848 29.3768 7.63636C29.4398 7.38424 29.498 7.16606 29.5513 6.98182C29.6046 6.79758 29.6386 6.68364 29.6531 6.64L30.5186 6.91636L31.3768 7.18545C31.3331 7.31636 31.2871 7.47394 31.2386 7.65818C31.1901 7.83758 31.144 8.02424 31.1004 8.21818C31.0568 8.41212 31.0204 8.59879 30.9913 8.77818C30.9622 8.95758 30.9477 9.11273 30.9477 9.24364C30.9477 9.47636 30.9792 9.66545 31.0422 9.81091C31.1101 9.95152 31.1901 10.0606 31.2822 10.1382C31.3792 10.2109 31.4834 10.2594 31.5949 10.2836C31.7065 10.3079 31.8059 10.32 31.8931 10.32H40.2204C40.4871 10.32 40.7149 10.2958 40.904 10.2473C41.0931 10.1939 41.2337 10.1188 41.3259 10.0218C41.4374 9.89576 41.4931 9.71394 41.4931 9.47636V7.08364H43.2968ZM37.6822 6.47273L36.4604 5.23636L37.6677 3.98545L38.9186 5.23636L37.6822 6.47273ZM34.6349 6.48L33.4131 5.24364L34.6131 3.99273L35.864 5.24364L34.6349 6.48ZM44.667 12.1091V10.2982H48.9216C48.9992 10.2982 49.1058 10.2958 49.2416 10.2909C49.3773 10.2812 49.5107 10.2618 49.6416 10.2327C49.7725 10.1988 49.884 10.1527 49.9761 10.0945C50.0731 10.0315 50.1216 9.94667 50.1216 9.84C50.1216 9.63152 50.0416 9.37939 49.8816 9.08364C49.7264 8.78788 49.5252 8.47273 49.278 8.13818C49.0307 7.80364 48.7519 7.46667 48.4416 7.12727C48.1361 6.78303 47.8307 6.46061 47.5252 6.16C47.2246 5.85455 46.941 5.58545 46.6743 5.35273C46.4077 5.12 46.1943 4.94545 46.0343 4.82909L46.1798 3.18545L52.507 0.290909L53.1689 1.87636L47.8452 4.22545C48.0295 4.40485 48.2355 4.60848 48.4634 4.83636C48.6961 5.06424 48.9337 5.30667 49.1761 5.56364C49.4186 5.81576 49.6586 6.08 49.8961 6.35636C50.1386 6.62788 50.364 6.90182 50.5725 7.17818C50.7858 7.4497 50.9749 7.71636 51.1398 7.97818C51.3046 8.24 51.4331 8.48727 51.5252 8.72C51.6077 8.92364 51.6658 9.12 51.6998 9.30909C51.7337 9.49818 51.7507 9.6703 51.7507 9.82545C51.7507 10.0194 51.7313 10.1891 51.6925 10.3345C51.6586 10.48 51.6198 10.6036 51.5761 10.7055C51.518 10.8364 51.4283 10.9842 51.307 11.1491C51.1858 11.3139 51.0161 11.4667 50.798 11.6073C50.5846 11.7479 50.3131 11.8667 49.9834 11.9636C49.6586 12.0606 49.2634 12.1091 48.798 12.1091H44.667ZM58.1157 12.1091H57.8394C57.6406 12.1091 57.4515 12.097 57.2721 12.0727C57.0976 12.0485 56.9254 11.9806 56.7557 11.8691C56.6976 12.4945 56.5545 13.0618 56.3266 13.5709C56.0988 14.08 55.7933 14.5139 55.4103 14.8727C55.0321 15.2364 54.5788 15.5176 54.0503 15.7164C53.5218 15.9152 52.9279 16.0145 52.2685 16.0145H51.3594V14.2036H52.2685C52.7339 14.2036 53.1363 14.1552 53.4757 14.0582C53.8151 13.9612 54.0939 13.8061 54.3121 13.5927C54.5303 13.3794 54.6927 13.1006 54.7994 12.7564C54.906 12.417 54.9594 12.0024 54.9594 11.5127V7.08364H56.7703V9.25818C56.7703 9.48121 56.8163 9.66061 56.9085 9.79636C57.0054 9.93212 57.1145 10.0388 57.2357 10.1164C57.3618 10.1891 57.483 10.2376 57.5994 10.2618C57.7157 10.2861 57.7957 10.2982 57.8394 10.2982H58.1157V12.1091ZM63.4597 12.0945C62.5724 12.0945 61.8694 11.8642 61.3506 11.4036C61.0839 11.6509 60.7881 11.8303 60.4633 11.9418C60.1384 12.0533 59.8039 12.1091 59.4597 12.1091H57.8233V10.2982H59.4597C59.5178 10.2982 59.6003 10.2885 59.7069 10.2691C59.8184 10.2497 59.9275 10.2036 60.0342 10.1309C60.1457 10.0533 60.2427 9.94182 60.3251 9.79636C60.4075 9.64606 60.4488 9.44 60.4488 9.17818V7.08364H62.2597V9.14909C62.2597 9.54667 62.3518 9.83758 62.536 10.0218C62.7251 10.2012 63.033 10.2909 63.4597 10.2909C63.5178 10.2909 63.6003 10.2812 63.7069 10.2618C63.8184 10.2376 63.9275 10.1867 64.0342 10.1091C64.1457 10.0315 64.2427 9.91758 64.3251 9.76727C64.4075 9.61212 64.4488 9.40606 64.4488 9.14909V7.08364H66.2524V9.14909C66.2524 9.54667 66.3469 9.84 66.536 10.0291C66.73 10.2133 67.0427 10.3055 67.4742 10.3055C67.5372 10.3055 67.6221 10.2933 67.7288 10.2691C67.8403 10.24 67.9494 10.1867 68.056 10.1091C68.1627 10.0267 68.2548 9.9103 68.3324 9.76C68.41 9.6097 68.4488 9.40606 68.4488 9.14909C68.4488 9.04242 68.4391 8.91394 68.4197 8.76364C68.4051 8.61333 68.3833 8.45576 68.3542 8.29091C68.33 8.12121 68.3009 7.95152 68.2669 7.78182C68.233 7.60727 68.1991 7.44242 68.1651 7.28727C68.1312 7.13212 68.0972 6.99152 68.0633 6.86545C68.0342 6.73939 68.01 6.64 67.9906 6.56727L69.6997 6.00727C69.7094 6.04121 69.7288 6.11879 69.7578 6.24C69.7869 6.36121 69.8209 6.51152 69.8597 6.69091C69.9033 6.8703 69.9469 7.06909 69.9906 7.28727C70.0342 7.50545 70.073 7.72606 70.1069 7.94909C70.1457 8.16727 70.1772 8.38303 70.2015 8.59636C70.2257 8.80485 70.2378 8.98909 70.2378 9.14909C70.2378 9.64364 70.1554 10.0776 69.9906 10.4509C69.8306 10.8194 69.6197 11.1273 69.3578 11.3745C69.096 11.617 68.8003 11.7988 68.4706 11.92C68.1409 12.0412 67.8088 12.1042 67.4742 12.1091C66.5724 12.1091 65.8597 11.8715 65.336 11.3964C65.0694 11.6436 64.7736 11.823 64.4488 11.9345C64.1288 12.0412 63.7991 12.0945 63.4597 12.0945ZM65.1033 3.86909L63.8669 5.12L62.6306 3.88364L63.8669 2.63273L65.1033 3.86909ZM68.2233 3.84L67.0015 5.07636L65.7288 3.85455L66.9797 2.60364L68.2233 3.84ZM66.616 1.78909L65.4524 2.95273L64.3033 1.80364L65.4669 0.64L66.616 1.78909Z" fill="#777777"/>
</svg>
