<svg width="131" height="16" viewBox="0 0 131 16" fill="none" xmlns="http://www.w3.org/2000/svg">
<path d="M6.96136 13.2982C7.40258 13.2982 7.78318 13.2691 8.10318 13.2109C8.42803 13.1576 8.6947 13.0606 8.90318 12.92C9.11167 12.7842 9.26682 12.6 9.36864 12.3673C9.4753 12.1345 9.53106 11.8412 9.53591 11.4873C9.46803 11.4679 9.35894 11.4388 9.20864 11.4C9.06318 11.3612 8.88864 11.3152 8.685 11.2618C8.48621 11.2085 8.26803 11.1503 8.03045 11.0873C7.79773 11.0242 7.56015 10.9612 7.31773 10.8982C7.0753 10.8303 6.8353 10.7673 6.59773 10.7091C6.365 10.6461 6.14924 10.5903 5.95045 10.5418C5.82439 10.2218 5.72985 9.91152 5.66682 9.61091C5.60864 9.30545 5.57955 9.00727 5.57955 8.71636C5.57955 8.16364 5.68136 7.64242 5.885 7.15273C6.08864 6.65818 6.37955 6.22909 6.75773 5.86545C7.13591 5.49697 7.59652 5.20606 8.13955 4.99273C8.68742 4.77939 9.30318 4.67273 9.98682 4.67273C10.2292 4.67273 10.4692 4.69212 10.7068 4.73091C10.9492 4.7697 11.2232 4.8303 11.5286 4.91273L11.0705 6.65818C10.8426 6.5903 10.6438 6.54182 10.4741 6.51273C10.3044 6.47879 10.1298 6.46182 9.95045 6.46182C9.58682 6.46182 9.24742 6.51515 8.93227 6.62182C8.62197 6.72364 8.35045 6.87394 8.11773 7.07273C7.88985 7.27152 7.70803 7.51394 7.57227 7.8C7.44136 8.08606 7.37591 8.41091 7.37591 8.77455C7.37591 8.80364 7.37591 8.83515 7.37591 8.86909C7.37591 8.89818 7.37833 8.92727 7.38318 8.95636L9.93591 9.61091C10.4014 9.72727 10.7383 9.92606 10.9468 10.2073C11.1553 10.4836 11.2595 10.8279 11.2595 11.24C11.2595 11.9139 11.182 12.4933 11.0268 12.9782C10.8717 13.4679 10.622 13.8703 10.2777 14.1855C9.93833 14.5055 9.4947 14.7406 8.94682 14.8909C8.40379 15.0461 7.74197 15.1236 6.96136 15.1236H5.42682C5.02924 15.1236 4.64864 15.0776 4.285 14.9855C3.92136 14.8933 3.57955 14.76 3.25955 14.5855C2.93955 14.4158 2.64621 14.2073 2.37955 13.96C2.11288 13.7176 1.87773 13.4412 1.67409 13.1309C1.19409 12.3552 0.954091 11.4461 0.954091 10.4036C0.954091 10.0836 0.975909 9.76606 1.01955 9.45091C1.06318 9.13576 1.13106 8.81333 1.22318 8.48364C1.32015 8.14909 1.44136 7.8 1.58682 7.43636C1.73227 7.07273 1.90682 6.68 2.11045 6.25818L3.725 7.03636C3.5553 7.39515 3.40985 7.72485 3.28864 8.02545C3.17227 8.32121 3.07288 8.60242 2.99045 8.86909C2.91288 9.13091 2.8547 9.38545 2.81591 9.63273C2.78197 9.87515 2.765 10.12 2.765 10.3673C2.765 11.0703 2.92015 11.6667 3.23045 12.1564C3.45348 12.5248 3.75652 12.8061 4.13955 13C4.52742 13.1988 4.95652 13.2982 5.42682 13.2982H6.96136ZM17.6849 10.6655C17.6558 11.3345 17.5322 11.9358 17.314 12.4691C17.0958 13.0073 16.7952 13.463 16.4122 13.8364C16.0291 14.2145 15.5661 14.5055 15.0231 14.7091C14.48 14.9127 13.8667 15.0145 13.1831 15.0145H12.2812V13.2036H13.1831C13.6485 13.2036 14.0509 13.1552 14.3903 13.0582C14.7297 12.9612 15.0085 12.8061 15.2267 12.5927C15.4449 12.3794 15.6073 12.1006 15.714 11.7564C15.8206 11.417 15.874 11.0024 15.874 10.5127V6.08364H17.6849V10.6655ZM23.0519 11.1091C22.5185 11.1091 22.0604 11.0752 21.6773 11.0073C21.2943 10.9442 20.9719 10.8497 20.7101 10.7236C20.4482 10.5927 20.2373 10.4279 20.0773 10.2291C19.9222 10.0303 19.8034 9.79758 19.721 9.53091C19.6385 9.26424 19.5828 8.96364 19.5537 8.62909C19.5295 8.2897 19.5173 7.91636 19.5173 7.50909V0.621819H21.3282V7.50909C21.3282 7.89697 21.3404 8.20727 21.3646 8.44C21.3937 8.67273 21.464 8.85455 21.5755 8.98545C21.6919 9.11152 21.864 9.19636 22.0919 9.24C22.3246 9.27879 22.6446 9.29818 23.0519 9.29818V11.1091ZM32.7535 8.21455C32.7293 8.22909 32.6517 8.28242 32.5208 8.37455C32.3899 8.46182 32.2129 8.57576 31.9899 8.71636C32.0384 8.86182 32.1135 8.97576 32.2153 9.05818C32.3172 9.13576 32.4214 9.19394 32.5281 9.23273C32.6347 9.26667 32.7341 9.28606 32.8263 9.29091C32.9232 9.29576 32.9911 9.29818 33.0299 9.29818H34.3608V11.1091H33.0299C32.4529 11.1042 31.9341 10.9782 31.4735 10.7309C31.0178 10.4788 30.6614 10.103 30.4044 9.60364C30.0311 9.78788 29.6287 9.97212 29.1972 10.1564C28.7656 10.3358 28.3147 10.4958 27.8444 10.6364C27.3741 10.777 26.8917 10.8909 26.3972 10.9782C25.9026 11.0655 25.4081 11.1091 24.9135 11.1091H22.7463V9.29818H24.9135C25.3887 9.29818 25.8953 9.2497 26.4335 9.15273C26.9717 9.05576 27.5026 8.93212 28.0262 8.78182C28.5499 8.62667 29.0469 8.45455 29.5172 8.26545C29.9923 8.07636 30.4044 7.8897 30.7535 7.70545C30.5353 7.63758 30.2953 7.56485 30.0335 7.48727C29.7717 7.40485 29.505 7.32485 29.2335 7.24727C28.962 7.16485 28.6929 7.08727 28.4262 7.01455C28.1596 6.93697 27.9099 6.86909 27.6772 6.81091C27.4444 6.75273 27.2359 6.70667 27.0517 6.67273C26.8675 6.63879 26.722 6.62182 26.6153 6.62182C26.5038 6.62182 26.4044 6.63636 26.3172 6.66545C26.2347 6.6897 26.1596 6.73333 26.0917 6.79636C26.0238 6.85455 25.9608 6.93212 25.9026 7.02909C25.8444 7.12606 25.7838 7.24242 25.7208 7.37818L24.0553 6.87636C24.1475 6.58545 24.259 6.31394 24.3899 6.06182C24.5256 5.80485 24.6881 5.58182 24.8772 5.39273C25.0711 5.20364 25.2941 5.05576 25.5463 4.94909C25.7984 4.83758 26.0869 4.78182 26.4117 4.78182C26.5378 4.78182 26.7172 4.80848 26.9499 4.86182C27.1826 4.91515 27.4469 4.98545 27.7426 5.07273C28.0384 5.16 28.3535 5.25939 28.6881 5.37091C29.0275 5.48242 29.3669 5.59879 29.7063 5.72C30.0456 5.84121 30.3753 5.96 30.6953 6.07636C31.0153 6.19273 31.3038 6.29939 31.5608 6.39636C31.8178 6.48848 32.0335 6.56606 32.2081 6.62909C32.3826 6.69212 32.4941 6.73091 32.5426 6.74545L32.7535 8.21455ZM26.6081 13.6036L27.9172 12.28L29.2553 13.6182L27.9317 14.9418L26.6081 13.6036ZM41.8686 9.29818V11.1091H40.7922C40.3801 11.1091 40.0043 11.0533 39.6649 10.9418C39.3255 10.8303 39.0395 10.6655 38.8068 10.4473C38.5352 10.6752 38.2128 10.8424 37.8395 10.9491C37.471 11.0558 37.0492 11.1091 36.574 11.1091H34.0577V9.29818H36.574C36.8698 9.29818 37.1049 9.27152 37.2795 9.21818C37.4589 9.16 37.5922 9.0897 37.6795 9.00727C37.7716 8.92485 37.8298 8.83273 37.854 8.73091C37.8831 8.62909 37.8977 8.5297 37.8977 8.43273V6.07636H39.7013V8.38182C39.7013 8.6 39.7498 8.77212 39.8468 8.89818C39.9437 9.01939 40.0528 9.11152 40.174 9.17455C40.3001 9.23273 40.4237 9.26909 40.5449 9.28364C40.6662 9.29333 40.7486 9.29818 40.7922 9.29818H41.8686ZM38.9595 15.1091L37.7377 13.8727L38.9449 12.6218L40.1959 13.8727L38.9595 15.1091ZM35.9122 15.1164L34.6904 13.88L35.8904 12.6291L37.1413 13.88L35.9122 15.1164ZM49.3842 9.29818V11.1091H48.3078C47.8957 11.1091 47.52 11.0533 47.1806 10.9418C46.8412 10.8303 46.5551 10.6655 46.3224 10.4473C46.0509 10.6752 45.7284 10.8424 45.3551 10.9491C44.9866 11.0558 44.5648 11.1091 44.0897 11.1091H41.5733V9.29818H44.0897C44.3854 9.29818 44.6206 9.27152 44.7951 9.21818C44.9745 9.16 45.1078 9.0897 45.1951 9.00727C45.2872 8.92485 45.3454 8.83273 45.3697 8.73091C45.3988 8.62909 45.4133 8.5297 45.4133 8.43273V6.07636H47.2169V8.38182C47.2169 8.6 47.2654 8.77212 47.3624 8.89818C47.4594 9.01939 47.5684 9.11152 47.6897 9.17455C47.8157 9.23273 47.9394 9.26909 48.0606 9.28364C48.1818 9.29333 48.2642 9.29818 48.3078 9.29818H49.3842ZM46.9187 4.2L45.6969 2.96364L46.9042 1.71273L48.1551 2.96364L46.9187 4.2ZM43.8715 4.20727L42.6497 2.97091L43.8497 1.72L45.1006 2.97091L43.8715 4.20727ZM54.7253 11.0945C53.838 11.0945 53.135 10.8642 52.6162 10.4036C52.3495 10.6509 52.0538 10.8303 51.7289 10.9418C51.4041 11.0533 51.0695 11.1091 50.7253 11.1091H49.0889V9.29818H50.7253C50.7835 9.29818 50.8659 9.28848 50.9726 9.26909C51.0841 9.2497 51.1932 9.20364 51.2998 9.13091C51.4113 9.05333 51.5083 8.94182 51.5907 8.79636C51.6732 8.64606 51.7144 8.44 51.7144 8.17818V6.08364H53.5253V8.14909C53.5253 8.54667 53.6174 8.83758 53.8016 9.02182C53.9907 9.20121 54.2986 9.29091 54.7253 9.29091C54.7835 9.29091 54.8659 9.28121 54.9726 9.26182C55.0841 9.23758 55.1932 9.18667 55.2998 9.10909C55.4113 9.03152 55.5083 8.91758 55.5907 8.76727C55.6732 8.61212 55.7144 8.40606 55.7144 8.14909V6.08364H57.518V8.14909C57.518 8.54667 57.6126 8.84 57.8016 9.02909C57.9956 9.21333 58.3083 9.30545 58.7398 9.30545C58.8029 9.30545 58.8877 9.29333 58.9944 9.26909C59.1059 9.24 59.215 9.18667 59.3216 9.10909C59.4283 9.02667 59.5204 8.9103 59.598 8.76C59.6756 8.6097 59.7144 8.40606 59.7144 8.14909C59.7144 8.04242 59.7047 7.91394 59.6853 7.76364C59.6707 7.61333 59.6489 7.45576 59.6198 7.29091C59.5956 7.12121 59.5665 6.95152 59.5326 6.78182C59.4986 6.60727 59.4647 6.44242 59.4307 6.28727C59.3968 6.13212 59.3629 5.99152 59.3289 5.86545C59.2998 5.73939 59.2756 5.64 59.2562 5.56727L60.9653 5.00727C60.975 5.04121 60.9944 5.11879 61.0235 5.24C61.0526 5.36121 61.0865 5.51152 61.1253 5.69091C61.1689 5.8703 61.2126 6.06909 61.2562 6.28727C61.2998 6.50545 61.3386 6.72606 61.3726 6.94909C61.4113 7.16727 61.4429 7.38303 61.4671 7.59636C61.4913 7.80485 61.5035 7.98909 61.5035 8.14909C61.5035 8.64364 61.421 9.07758 61.2562 9.45091C61.0962 9.81939 60.8853 10.1273 60.6235 10.3745C60.3616 10.617 60.0659 10.7988 59.7362 10.92C59.4065 11.0412 59.0744 11.1042 58.7398 11.1091C57.838 11.1091 57.1253 10.8715 56.6016 10.3964C56.335 10.6436 56.0392 10.823 55.7144 10.9345C55.3944 11.0412 55.0647 11.0945 54.7253 11.0945ZM65.3907 11.1091H63.5798V0.621819H65.3907V11.1091ZM78.6332 13.2982C79.0745 13.2982 79.4551 13.2691 79.7751 13.2109C80.0999 13.1576 80.3666 13.0606 80.5751 12.92C80.7835 12.7842 80.9387 12.6 81.0405 12.3673C81.1472 12.1345 81.2029 11.8412 81.2078 11.4873C81.1399 11.4679 81.0308 11.4388 80.8805 11.4C80.7351 11.3612 80.5605 11.3152 80.3569 11.2618C80.1581 11.2085 79.9399 11.1503 79.7023 11.0873C79.4696 11.0242 79.232 10.9612 78.9896 10.8982C78.7472 10.8303 78.5072 10.7673 78.2696 10.7091C78.0369 10.6461 77.8211 10.5903 77.6223 10.5418C77.4963 10.2218 77.4017 9.91152 77.3387 9.61091C77.2805 9.30545 77.2514 9.00727 77.2514 8.71636C77.2514 8.16364 77.3532 7.64242 77.5569 7.15273C77.7605 6.65818 78.0514 6.22909 78.4296 5.86545C78.8078 5.49697 79.2684 5.20606 79.8114 4.99273C80.3593 4.77939 80.9751 4.67273 81.6587 4.67273C81.9011 4.67273 82.1411 4.69212 82.3787 4.73091C82.6211 4.7697 82.8951 4.8303 83.2005 4.91273L82.7423 6.65818C82.5145 6.5903 82.3157 6.54182 82.146 6.51273C81.9763 6.47879 81.8017 6.46182 81.6223 6.46182C81.2587 6.46182 80.9193 6.51515 80.6041 6.62182C80.2938 6.72364 80.0223 6.87394 79.7896 7.07273C79.5617 7.27152 79.3799 7.51394 79.2441 7.8C79.1132 8.08606 79.0478 8.41091 79.0478 8.77455C79.0478 8.80364 79.0478 8.83515 79.0478 8.86909C79.0478 8.89818 79.0502 8.92727 79.0551 8.95636L81.6078 9.61091C82.0732 9.72727 82.4102 9.92606 82.6187 10.2073C82.8272 10.4836 82.9314 10.8279 82.9314 11.24C82.9314 11.9139 82.8538 12.4933 82.6987 12.9782C82.5435 13.4679 82.2938 13.8703 81.9496 14.1855C81.6102 14.5055 81.1666 14.7406 80.6187 14.8909C80.0757 15.0461 79.4138 15.1236 78.6332 15.1236H77.0987C76.7011 15.1236 76.3205 15.0776 75.9569 14.9855C75.5932 14.8933 75.2514 14.76 74.9314 14.5855C74.6114 14.4158 74.3181 14.2073 74.0514 13.96C73.7848 13.7176 73.5496 13.4412 73.346 13.1309C72.866 12.3552 72.626 11.4461 72.626 10.4036C72.626 10.0836 72.6478 9.76606 72.6914 9.45091C72.7351 9.13576 72.8029 8.81333 72.8951 8.48364C72.992 8.14909 73.1132 7.8 73.2587 7.43636C73.4041 7.07273 73.5787 6.68 73.7823 6.25818L75.3969 7.03636C75.2272 7.39515 75.0817 7.72485 74.9605 8.02545C74.8441 8.32121 74.7448 8.60242 74.6623 8.86909C74.5848 9.13091 74.5266 9.38545 74.4878 9.63273C74.4538 9.87515 74.4369 10.12 74.4369 10.3673C74.4369 11.0703 74.592 11.6667 74.9023 12.1564C75.1254 12.5248 75.4284 12.8061 75.8114 13C76.1993 13.1988 76.6284 13.2982 77.0987 13.2982H78.6332ZM88.8331 11.1091C88.2998 11.1091 87.8416 11.0752 87.4586 11.0073C87.0755 10.9442 86.7531 10.8497 86.4913 10.7236C86.2295 10.5927 86.0186 10.4279 85.8586 10.2291C85.7034 10.0303 85.5846 9.79758 85.5022 9.53091C85.4198 9.26424 85.364 8.96364 85.3349 8.62909C85.3107 8.2897 85.2986 7.91636 85.2986 7.50909V0.621819H87.1095V7.50909C87.1095 7.89697 87.1216 8.20727 87.1459 8.44C87.1749 8.67273 87.2452 8.85455 87.3568 8.98545C87.4731 9.11152 87.6452 9.19636 87.8731 9.24C88.1059 9.27879 88.4259 9.29818 88.8331 9.29818V11.1091ZM95.6039 3.16C95.919 3.57697 96.239 3.99879 96.5639 4.42545C96.6996 4.6097 96.8427 4.80121 96.993 5C97.1481 5.19879 97.3033 5.40242 97.4584 5.61091C97.6184 5.81455 97.7736 6.01818 97.9239 6.22182C98.0742 6.42545 98.2196 6.61939 98.3602 6.80364C98.6608 7.20606 98.8572 7.64485 98.9493 8.12C98.9784 8.2897 98.993 8.45939 98.993 8.62909C98.993 8.93455 98.942 9.24 98.8402 9.54545C98.7433 9.83636 98.6002 10.103 98.4111 10.3455C98.2269 10.5879 98.0014 10.7964 97.7348 10.9709C97.4681 11.1455 97.1627 11.2812 96.8184 11.3782C96.4742 11.4752 96.096 11.5236 95.6839 11.5236C95.3348 11.5236 94.9736 11.4873 94.6002 11.4145C94.2269 11.3467 93.8463 11.2158 93.4584 11.0218C93.3711 10.983 93.2863 10.9442 93.2039 10.9055C93.1311 10.8715 93.056 10.8376 92.9784 10.8036C92.9008 10.7648 92.8354 10.7309 92.782 10.7018C92.3166 10.8424 91.8002 10.9442 91.233 11.0073C90.6705 11.0752 90.0475 11.1091 89.3639 11.1091H88.542V9.29818H89.3639C89.4996 9.29818 89.6184 9.30061 89.7202 9.30545C89.8269 9.30545 89.9287 9.30545 90.0257 9.30545C90.1178 9.30545 90.2099 9.30303 90.302 9.29818C90.399 9.29333 90.5057 9.28364 90.622 9.26909C90.496 9.12364 90.382 8.98303 90.2802 8.84727C90.1833 8.70667 90.0984 8.56121 90.0257 8.41091C89.9578 8.25576 89.9045 8.09333 89.8657 7.92364C89.8317 7.74909 89.8148 7.55758 89.8148 7.34909C89.8148 6.95151 89.8899 6.58545 90.0402 6.25091C90.1954 5.91636 90.4063 5.6303 90.673 5.39273C90.9445 5.15515 91.2596 4.97091 91.6184 4.84C91.982 4.70424 92.3723 4.63636 92.7893 4.63636C93.2596 4.63636 93.6766 4.73091 94.0402 4.92C94.4087 5.10424 94.7166 5.33939 94.9639 5.62545C95.216 5.90667 95.4051 6.21212 95.5311 6.54182C95.662 6.87152 95.7275 7.17939 95.7275 7.46545C95.7275 7.69818 95.7033 7.91152 95.6548 8.10545C95.6111 8.29939 95.5481 8.48364 95.4657 8.65818C95.3833 8.82788 95.2814 8.9903 95.1602 9.14545C95.039 9.30061 94.9033 9.45333 94.753 9.60364C94.9033 9.65212 95.0584 9.69818 95.2184 9.74182C95.3784 9.78061 95.5336 9.8 95.6839 9.8C95.8342 9.8 95.9917 9.7903 96.1566 9.77091C96.3214 9.74667 96.4766 9.70303 96.622 9.64C96.7723 9.57212 96.9033 9.48 97.0148 9.36364C97.1311 9.24727 97.2184 9.09455 97.2766 8.90545C97.296 8.83758 97.3057 8.76727 97.3057 8.69455C97.3057 8.56364 97.2669 8.39636 97.1893 8.19273C97.1117 7.98909 96.9687 7.7297 96.7602 7.41455C96.5566 7.09939 96.302 6.75273 95.9966 6.37455C95.6911 5.99152 95.3566 5.57455 94.993 5.12364L94.2366 4.18545L95.6039 3.16ZM91.5311 7.34909C91.5311 7.52848 91.5578 7.68848 91.6111 7.82909C91.6693 7.96485 91.7542 8.09091 91.8657 8.20727C91.982 8.32364 92.1227 8.43758 92.2875 8.54909C92.4572 8.65576 92.6536 8.7697 92.8766 8.89091C93.0269 8.81818 93.1723 8.73576 93.313 8.64364C93.4536 8.55152 93.5748 8.4497 93.6766 8.33818C93.7833 8.22182 93.8681 8.09333 93.9311 7.95273C93.9942 7.81212 94.0257 7.65697 94.0257 7.48727C94.0257 7.28364 93.982 7.10424 93.8948 6.94909C93.8075 6.79394 93.7008 6.66545 93.5748 6.56364C93.4487 6.46182 93.313 6.38667 93.1675 6.33818C93.0269 6.2897 92.9008 6.26545 92.7893 6.26545C92.6245 6.26545 92.4645 6.29455 92.3093 6.35273C92.159 6.41091 92.0257 6.49091 91.9093 6.59273C91.793 6.6897 91.7008 6.80364 91.633 6.93455C91.5651 7.06545 91.5311 7.20364 91.5311 7.34909ZM108.341 11.1091H107.752C107.107 11.1091 106.491 10.8255 105.904 10.2582C105.744 10.4473 105.553 10.6048 105.33 10.7309C105.112 10.8521 104.876 10.9491 104.624 11.0218C104.372 11.0945 104.115 11.1455 103.853 11.1745C103.596 11.2036 103.349 11.2182 103.112 11.2182C102.927 11.2182 102.741 11.2061 102.552 11.1818C102.363 11.1624 102.147 11.1261 101.904 11.0727C101.667 11.0242 101.393 10.9588 101.082 10.8764C100.772 10.7891 100.401 10.68 99.9698 10.5491L100.493 8.81091C100.789 8.92727 101.095 9.03152 101.41 9.12364C101.725 9.21091 102.033 9.28364 102.333 9.34182C102.634 9.39515 102.923 9.42909 103.199 9.44364C103.31 9.45333 103.417 9.45818 103.519 9.45818C103.669 9.45818 103.832 9.44606 104.006 9.42182C104.181 9.39758 104.343 9.34667 104.493 9.26909C104.649 9.18667 104.753 9.07758 104.806 8.94182C104.83 8.88364 104.843 8.8303 104.843 8.78182C104.843 8.73818 104.828 8.68485 104.799 8.62182C104.775 8.55879 104.733 8.48364 104.675 8.39636C104.617 8.30424 104.542 8.18545 104.45 8.04L101.868 4.41091L103.395 3.42909L105.992 7.36364C106.132 7.57697 106.28 7.79758 106.435 8.02545C106.59 8.25333 106.746 8.46182 106.901 8.65091C107.056 8.83515 107.206 8.98788 107.352 9.10909C107.497 9.2303 107.63 9.29091 107.752 9.29091H108.341V11.1091ZM118.086 8.21455C118.057 8.23394 117.931 8.31879 117.708 8.46909C117.484 8.61939 117.189 8.80364 116.82 9.02182C116.452 9.23515 116.02 9.46303 115.526 9.70545C115.031 9.94788 114.498 10.1733 113.926 10.3818C113.354 10.5903 112.755 10.7648 112.129 10.9055C111.504 11.0412 110.876 11.1091 110.246 11.1091H108.042V9.29818H110.246C110.721 9.29818 111.227 9.2497 111.766 9.15273C112.304 9.05576 112.835 8.93212 113.358 8.78182C113.882 8.62667 114.379 8.45455 114.849 8.26545C115.324 8.07636 115.737 7.8897 116.086 7.70545C115.863 7.63758 115.62 7.56485 115.358 7.48727C115.101 7.40485 114.837 7.32485 114.566 7.24727C114.294 7.16485 114.025 7.08727 113.758 7.01455C113.492 6.93697 113.242 6.86909 113.009 6.81091C112.777 6.75273 112.568 6.70667 112.384 6.67273C112.2 6.63879 112.054 6.62182 111.947 6.62182C111.836 6.62182 111.737 6.63636 111.649 6.66545C111.567 6.6897 111.492 6.73333 111.424 6.79636C111.356 6.85455 111.293 6.93212 111.235 7.02909C111.177 7.12606 111.116 7.24242 111.053 7.37818L109.388 6.87636C109.48 6.58545 109.591 6.31394 109.722 6.06182C109.858 5.80485 110.02 5.58182 110.209 5.39273C110.403 5.20364 110.626 5.05576 110.878 4.94909C111.131 4.83758 111.419 4.78182 111.744 4.78182C111.87 4.78182 112.049 4.80848 112.282 4.86182C112.515 4.91515 112.779 4.98545 113.075 5.07273C113.371 5.16 113.686 5.25939 114.02 5.37091C114.36 5.48242 114.699 5.59879 115.038 5.72C115.378 5.84121 115.708 5.96 116.028 6.07636C116.347 6.19273 116.636 6.29939 116.893 6.39636C117.15 6.48848 117.366 6.56606 117.54 6.62909C117.715 6.69212 117.826 6.73091 117.875 6.74545L118.086 8.21455ZM121.781 11.1091H119.97V0.621819H121.781V11.1091ZM124.725 13.2036C125.113 13.2036 125.457 13.1891 125.758 13.16C126.063 13.1358 126.332 13.097 126.565 13.0436C126.803 12.9952 127.009 12.9297 127.183 12.8473C127.363 12.7697 127.518 12.6752 127.649 12.5636C127.852 12.3988 128.005 12.2073 128.107 11.9891C128.213 11.7709 128.277 11.4776 128.296 11.1091H127.176C126.933 11.1091 126.686 11.0897 126.434 11.0509C126.182 11.0121 125.94 10.9467 125.707 10.8545C125.474 10.7576 125.253 10.6339 125.045 10.4836C124.841 10.3333 124.662 10.1491 124.507 9.93091C124.357 9.70788 124.235 9.44606 124.143 9.14545C124.056 8.84485 124.012 8.50061 124.012 8.11273C124.012 7.77818 124.041 7.48242 124.1 7.22545C124.158 6.96364 124.23 6.73333 124.318 6.53455C124.41 6.33576 124.512 6.16364 124.623 6.01818C124.735 5.86788 124.841 5.73697 124.943 5.62545C125.234 5.33455 125.564 5.11152 125.932 4.95636C126.301 4.79636 126.698 4.71636 127.125 4.71636C127.653 4.71636 128.104 4.80848 128.478 4.99273C128.856 5.17212 129.164 5.42182 129.401 5.74182C129.644 6.06182 129.821 6.44242 129.932 6.88364C130.044 7.32 130.1 7.79515 130.1 8.30909V10.8909C130.1 11.6133 129.99 12.2194 129.772 12.7091C129.554 13.2036 129.222 13.6279 128.776 13.9818C128.553 14.1564 128.31 14.3067 128.049 14.4327C127.787 14.5636 127.493 14.6727 127.169 14.76C126.844 14.8473 126.48 14.9103 126.078 14.9491C125.68 14.9927 125.229 15.0145 124.725 15.0145V13.2036ZM127.125 6.52727C126.713 6.52727 126.386 6.65576 126.143 6.91273C125.901 7.1697 125.78 7.5697 125.78 8.11273C125.78 8.32606 125.821 8.50788 125.903 8.65818C125.99 8.80848 126.1 8.93212 126.23 9.02909C126.366 9.12121 126.517 9.18909 126.681 9.23273C126.846 9.27636 127.011 9.29818 127.176 9.29818H128.296V8.30909C128.296 8.03273 128.274 7.79758 128.23 7.60364C128.187 7.40485 128.129 7.24 128.056 7.10909C127.988 6.97818 127.908 6.87394 127.816 6.79636C127.729 6.71879 127.641 6.66061 127.554 6.62182C127.472 6.58303 127.392 6.55879 127.314 6.54909C127.237 6.53455 127.173 6.52727 127.125 6.52727Z" fill="#777777"/>
</svg>
