<svg width="142" height="18" viewBox="0 0 142 18" fill="none" xmlns="http://www.w3.org/2000/svg">
<path d="M4.09486 12.1091C3.6294 12.1091 3.20031 12.0436 2.80759 11.9127C2.41971 11.777 2.08516 11.5879 1.80395 11.3455C1.52274 11.0982 1.30213 10.8048 1.14213 10.4655C0.986979 10.1261 0.909403 9.7503 0.909403 9.33818C0.909403 8.93091 0.960312 8.56727 1.06213 8.24727C1.16395 7.92242 1.29971 7.62182 1.4694 7.34545C1.64395 7.06424 1.84516 6.79758 2.07304 6.54545C2.30577 6.28848 2.55062 6.02424 2.80759 5.75273L2.3494 5.23636L3.68759 4.02182C3.74092 4.08485 3.80395 4.15515 3.87668 4.23273C3.9494 4.3103 4.02213 4.3903 4.09486 4.47273C4.17243 4.55515 4.24759 4.63515 4.32031 4.71273C4.39304 4.7903 4.45849 4.86061 4.51668 4.92364C4.86577 5.29697 5.20516 5.66061 5.53486 6.01455C5.8694 6.36364 6.16516 6.71515 6.42213 7.06909C6.68395 7.41818 6.89486 7.7697 7.05486 8.12364C7.20516 8.47273 7.28031 8.83152 7.28031 9.2V9.23636C7.27546 9.66303 7.19062 10.0461 7.02577 10.3855C6.86092 10.72 6.62092 11.0303 6.30577 11.3164C6.01486 11.5636 5.68274 11.7576 5.3094 11.8982C4.94092 12.0388 4.53607 12.1091 4.09486 12.1091ZM4.00759 6.86545C3.81365 7.08364 3.6294 7.2897 3.45486 7.48364C3.28516 7.67758 3.13728 7.87151 3.01122 8.06545C2.89001 8.25939 2.79789 8.45818 2.73486 8.66182C2.67668 8.83152 2.64759 9.01576 2.64759 9.21455C2.64759 9.25333 2.65001 9.29455 2.65486 9.33818C2.6694 9.51758 2.72274 9.67273 2.81486 9.80364C2.90698 9.9297 3.02092 10.0364 3.15668 10.1236C3.29243 10.2061 3.44274 10.2667 3.60759 10.3055C3.77243 10.3442 3.93486 10.3636 4.09486 10.3636C4.2791 10.3636 4.45607 10.337 4.62577 10.2836C4.79546 10.2303 4.94334 10.1552 5.0694 10.0582C5.20031 9.96121 5.30455 9.84242 5.38213 9.70182C5.45971 9.56121 5.49849 9.40606 5.49849 9.23636C5.49849 9.02788 5.45728 8.82424 5.37486 8.62545C5.29243 8.42667 5.18092 8.2303 5.04031 8.03636C4.90456 7.84242 4.74698 7.64848 4.56759 7.45455C4.38819 7.26061 4.20152 7.06424 4.00759 6.86545ZM16.6766 12.1091H16.0875C15.4427 12.1091 14.8269 11.8255 14.2403 11.2582C14.0803 11.4473 13.8887 11.6048 13.6657 11.7309C13.4475 11.8521 13.2124 11.9491 12.9603 12.0218C12.7081 12.0945 12.4512 12.1455 12.1893 12.1745C11.9324 12.2036 11.6851 12.2182 11.4475 12.2182C11.2633 12.2182 11.0766 12.2061 10.8875 12.1818C10.6984 12.1624 10.4827 12.1261 10.2403 12.0727C10.0027 12.0242 9.72874 11.9588 9.41844 11.8764C9.10813 11.7891 8.73723 11.68 8.30571 11.5491L8.82935 9.81091C9.1251 9.92727 9.43056 10.0315 9.74571 10.1236C10.0609 10.2109 10.3687 10.2836 10.6693 10.3418C10.97 10.3952 11.2584 10.4291 11.5348 10.4436C11.6463 10.4533 11.753 10.4582 11.8548 10.4582C12.0051 10.4582 12.1675 10.4461 12.3421 10.4218C12.5166 10.3976 12.679 10.3467 12.8293 10.2691C12.9845 10.1867 13.0887 10.0776 13.1421 9.94182C13.1663 9.88364 13.1784 9.8303 13.1784 9.78182C13.1784 9.73818 13.1639 9.68485 13.1348 9.62182C13.1106 9.55879 13.0693 9.48364 13.0112 9.39636C12.953 9.30424 12.8778 9.18545 12.7857 9.04L10.2039 5.41091L11.7312 4.42909L14.3275 8.36364C14.4681 8.57697 14.616 8.79758 14.7712 9.02545C14.9263 9.25333 15.0815 9.46182 15.2366 9.65091C15.3918 9.83515 15.5421 9.98788 15.6875 10.1091C15.833 10.2303 15.9663 10.2909 16.0875 10.2909H16.6766V12.1091ZM22.0143 12.0945C21.1271 12.0945 20.424 11.8642 19.9053 11.4036C19.6386 11.6509 19.3428 11.8303 19.018 11.9418C18.6931 12.0533 18.3586 12.1091 18.0143 12.1091H16.378V10.2982H18.0143C18.0725 10.2982 18.155 10.2885 18.2616 10.2691C18.3731 10.2497 18.4822 10.2036 18.5889 10.1309C18.7004 10.0533 18.7974 9.94182 18.8798 9.79636C18.9622 9.64606 19.0034 9.44 19.0034 9.17818V7.08364H20.8143V9.14909C20.8143 9.54667 20.9065 9.83758 21.0907 10.0218C21.2798 10.2012 21.5877 10.2909 22.0143 10.2909C22.0725 10.2909 22.155 10.2812 22.2616 10.2618C22.3731 10.2376 22.4822 10.1867 22.5889 10.1091C22.7004 10.0315 22.7974 9.91758 22.8798 9.76727C22.9622 9.61212 23.0034 9.40606 23.0034 9.14909V7.08364H24.8071V9.14909C24.8071 9.54667 24.9016 9.84 25.0907 10.0291C25.2846 10.2133 25.5974 10.3055 26.0289 10.3055C26.0919 10.3055 26.1768 10.2933 26.2834 10.2691C26.395 10.24 26.504 10.1867 26.6107 10.1091C26.7174 10.0267 26.8095 9.9103 26.8871 9.76C26.9646 9.6097 27.0034 9.40606 27.0034 9.14909C27.0034 9.04242 26.9937 8.91394 26.9743 8.76364C26.9598 8.61333 26.938 8.45576 26.9089 8.29091C26.8846 8.12121 26.8556 7.95152 26.8216 7.78182C26.7877 7.60727 26.7537 7.44242 26.7198 7.28727C26.6859 7.13212 26.6519 6.99152 26.618 6.86545C26.5889 6.73939 26.5646 6.64 26.5453 6.56727L28.2543 6.00727C28.264 6.04121 28.2834 6.11879 28.3125 6.24C28.3416 6.36121 28.3756 6.51152 28.4143 6.69091C28.458 6.8703 28.5016 7.06909 28.5453 7.28727C28.5889 7.50545 28.6277 7.72606 28.6616 7.94909C28.7004 8.16727 28.7319 8.38303 28.7562 8.59636C28.7804 8.80485 28.7925 8.98909 28.7925 9.14909C28.7925 9.64364 28.7101 10.0776 28.5453 10.4509C28.3853 10.8194 28.1743 11.1273 27.9125 11.3745C27.6507 11.617 27.355 11.7988 27.0253 11.92C26.6956 12.0412 26.3634 12.1042 26.0289 12.1091C25.1271 12.1091 24.4143 11.8715 23.8907 11.3964C23.624 11.6436 23.3283 11.823 23.0034 11.9345C22.6834 12.0412 22.3537 12.0945 22.0143 12.0945ZM23.658 3.86909L22.4216 5.12L21.1853 3.88364L22.4216 2.63273L23.658 3.86909ZM26.778 3.84L25.5562 5.07636L24.2834 3.85455L25.5343 2.60364L26.778 3.84ZM25.1707 1.78909L24.0071 2.95273L22.858 1.80364L24.0216 0.64L25.1707 1.78909ZM41.5314 10.4364C41.575 10.4364 41.6405 10.4339 41.7278 10.4291C41.8199 10.4194 41.912 10.3709 42.0041 10.2836C42.1011 10.1964 42.1835 10.0509 42.2514 9.84727C42.3241 9.64364 42.3605 9.34788 42.3605 8.96C42.3605 8.91636 42.3532 8.84606 42.3387 8.74909C42.329 8.65212 42.3047 8.54545 42.2659 8.42909C42.232 8.30788 42.1835 8.18667 42.1205 8.06545C42.0575 7.93939 41.975 7.82545 41.8732 7.72364C41.7714 7.62182 41.6502 7.53939 41.5096 7.47636C41.369 7.40848 41.2017 7.37455 41.0078 7.37455C40.9205 7.37455 40.8308 7.37939 40.7387 7.38909C40.6465 7.39879 40.552 7.42788 40.455 7.47636C40.3629 7.52 40.2708 7.5903 40.1787 7.68727C40.0865 7.77939 39.9968 7.90788 39.9096 8.07273C39.8271 8.23758 39.7471 8.44606 39.6696 8.69818C39.5968 8.9503 39.5314 9.25818 39.4732 9.62182C39.6623 9.72364 39.8562 9.82303 40.055 9.92C40.2538 10.017 40.4429 10.1042 40.6223 10.1818C40.8065 10.2594 40.9762 10.3224 41.1314 10.3709C41.2914 10.4145 41.4247 10.4364 41.5314 10.4364ZM40.9787 5.56364C41.4684 5.56364 41.8999 5.65576 42.2732 5.84C42.6465 6.01939 42.9593 6.26424 43.2114 6.57455C43.4684 6.88485 43.6623 7.24606 43.7932 7.65818C43.9241 8.0703 43.9896 8.50424 43.9896 8.96C43.9896 9.46424 43.9459 9.89576 43.8587 10.2545C43.7714 10.6085 43.655 10.9067 43.5096 11.1491C43.369 11.3915 43.209 11.5855 43.0296 11.7309C42.855 11.8764 42.6756 11.9855 42.4914 12.0582C42.312 12.1358 42.1375 12.1842 41.9678 12.2036C41.7981 12.2279 41.6526 12.24 41.5314 12.24C41.3278 12.24 41.095 12.2012 40.8332 12.1236C40.5762 12.0461 40.2999 11.9442 40.0041 11.8182C39.7132 11.6921 39.4053 11.5467 39.0805 11.3818C38.7605 11.217 38.4381 11.0497 38.1132 10.88C37.992 10.817 37.8781 10.7588 37.7714 10.7055C37.6696 10.6521 37.5678 10.6012 37.4659 10.5527C37.369 10.4994 37.2696 10.4485 37.1678 10.4C37.0659 10.3467 36.9568 10.2933 36.8405 10.24C36.8405 11.3358 36.8429 12.4291 36.8478 13.52C36.8526 14.6158 36.855 15.7091 36.855 16.8H35.1023L35.095 9.26545L36.7968 8.23273L37.975 8.82182C38.0575 8.4 38.1665 7.99273 38.3023 7.6C38.4381 7.20242 38.6199 6.85091 38.8478 6.54545C39.0756 6.24 39.3617 5.99758 39.7059 5.81818C40.0308 5.64848 40.4284 5.56364 40.8987 5.56364H40.9787ZM49.5128 12.1091C48.9795 12.1091 48.5213 12.0752 48.1383 12.0073C47.7552 11.9442 47.4328 11.8497 47.171 11.7236C46.9092 11.5927 46.6983 11.4279 46.5383 11.2291C46.3831 11.0303 46.2643 10.7976 46.1819 10.5309C46.0995 10.2642 46.0437 9.96364 46.0146 9.62909C45.9904 9.2897 45.9783 8.91636 45.9783 8.50909V1.62182H47.7892V8.50909C47.7892 8.89697 47.8013 9.20727 47.8255 9.44C47.8546 9.67273 47.9249 9.85455 48.0364 9.98545C48.1528 10.1115 48.3249 10.1964 48.5528 10.24C48.7855 10.2788 49.1055 10.2982 49.5128 10.2982V12.1091ZM59.2145 9.21455C59.1902 9.22909 59.1126 9.28242 58.9817 9.37455C58.8508 9.46182 58.6739 9.57576 58.4508 9.71636C58.4993 9.86182 58.5745 9.97576 58.6763 10.0582C58.7781 10.1358 58.8823 10.1939 58.989 10.2327C59.0957 10.2667 59.1951 10.2861 59.2872 10.2909C59.3842 10.2958 59.452 10.2982 59.4908 10.2982H60.8217V12.1091H59.4908C58.9139 12.1042 58.3951 11.9782 57.9345 11.7309C57.4787 11.4788 57.1223 11.103 56.8654 10.6036C56.492 10.7879 56.0896 10.9721 55.6581 11.1564C55.2266 11.3358 54.7757 11.4958 54.3054 11.6364C53.8351 11.777 53.3526 11.8909 52.8581 11.9782C52.3636 12.0655 51.869 12.1091 51.3745 12.1091H49.2072V10.2982H51.3745C51.8496 10.2982 52.3563 10.2497 52.8945 10.1527C53.4326 10.0558 53.9636 9.93212 54.4872 9.78182C55.0108 9.62667 55.5078 9.45455 55.9781 9.26545C56.4532 9.07636 56.8654 8.8897 57.2145 8.70545C56.9963 8.63758 56.7563 8.56485 56.4945 8.48727C56.2326 8.40485 55.966 8.32485 55.6945 8.24727C55.4229 8.16485 55.1539 8.08727 54.8872 8.01455C54.6205 7.93697 54.3708 7.86909 54.1381 7.81091C53.9054 7.75273 53.6969 7.70667 53.5126 7.67273C53.3284 7.63879 53.1829 7.62182 53.0763 7.62182C52.9648 7.62182 52.8654 7.63636 52.7781 7.66545C52.6957 7.6897 52.6205 7.73333 52.5526 7.79636C52.4848 7.85455 52.4217 7.93212 52.3636 8.02909C52.3054 8.12606 52.2448 8.24242 52.1817 8.37818L50.5163 7.87636C50.6084 7.58545 50.7199 7.31394 50.8508 7.06182C50.9866 6.80485 51.149 6.58182 51.3381 6.39273C51.532 6.20364 51.7551 6.05576 52.0072 5.94909C52.2593 5.83758 52.5478 5.78182 52.8726 5.78182C52.9987 5.78182 53.1781 5.80848 53.4108 5.86182C53.6436 5.91515 53.9078 5.98545 54.2036 6.07273C54.4993 6.16 54.8145 6.25939 55.149 6.37091C55.4884 6.48242 55.8278 6.59879 56.1672 6.72C56.5066 6.84121 56.8363 6.96 57.1563 7.07636C57.4763 7.19273 57.7648 7.29939 58.0217 7.39636C58.2787 7.48848 58.4945 7.56606 58.669 7.62909C58.8436 7.69212 58.9551 7.73091 59.0036 7.74545L59.2145 9.21455ZM53.069 14.6036L54.3781 13.28L55.7163 14.6182L54.3926 15.9418L53.069 14.6036ZM64.7222 6C64.7319 6.03394 64.7513 6.11394 64.7804 6.24C64.8144 6.36606 64.8507 6.52121 64.8895 6.70545C64.9283 6.88485 64.9671 7.08606 65.0059 7.30909C65.0495 7.53212 65.0883 7.75758 65.1222 7.98545C65.161 8.20848 65.1901 8.42667 65.2095 8.64C65.2338 8.85333 65.2459 9.04 65.2459 9.2C65.2459 9.69939 65.1635 10.1333 64.9986 10.5018C64.8338 10.8655 64.618 11.1661 64.3513 11.4036C64.0847 11.6412 63.7841 11.8182 63.4495 11.9345C63.1198 12.0509 62.7877 12.1091 62.4532 12.1091H60.5186V10.2982H62.5041C62.5622 10.2982 62.6447 10.2909 62.7513 10.2764C62.8629 10.257 62.9719 10.2109 63.0786 10.1382C63.1901 10.0655 63.2871 9.95636 63.3695 9.81091C63.4519 9.66061 63.4932 9.45697 63.4932 9.2C63.4932 9.09333 63.4835 8.96485 63.4641 8.81455C63.4495 8.65939 63.4277 8.49455 63.3986 8.32C63.3695 8.14545 63.3356 7.96848 63.2968 7.78909C63.2629 7.60485 63.2289 7.43273 63.195 7.27273C63.161 7.10788 63.1271 6.96 63.0932 6.82909C63.0592 6.69333 63.0325 6.58909 63.0132 6.51636L64.7222 6ZM61.995 3.07636L63.3041 1.75273L64.6422 3.09091L63.3186 4.41455L61.995 3.07636ZM68.7736 12.1091H66.9626V1.62182H68.7736V12.1091ZM82.0161 14.2982C82.4573 14.2982 82.8379 14.2691 83.1579 14.2109C83.4827 14.1576 83.7494 14.0606 83.9579 13.92C84.1664 13.7842 84.3215 13.6 84.4233 13.3673C84.53 13.1345 84.5857 12.8412 84.5906 12.4873C84.5227 12.4679 84.4136 12.4388 84.2633 12.4C84.1179 12.3612 83.9433 12.3152 83.7397 12.2618C83.5409 12.2085 83.3227 12.1503 83.0851 12.0873C82.8524 12.0242 82.6148 11.9612 82.3724 11.8982C82.13 11.8303 81.89 11.7673 81.6524 11.7091C81.4197 11.6461 81.2039 11.5903 81.0051 11.5418C80.8791 11.2218 80.7845 10.9115 80.7215 10.6109C80.6633 10.3055 80.6342 10.0073 80.6342 9.71636C80.6342 9.16364 80.7361 8.64242 80.9397 8.15273C81.1433 7.65818 81.4342 7.22909 81.8124 6.86545C82.1906 6.49697 82.6512 6.20606 83.1942 5.99273C83.7421 5.77939 84.3579 5.67273 85.0415 5.67273C85.2839 5.67273 85.5239 5.69212 85.7615 5.73091C86.0039 5.7697 86.2779 5.8303 86.5833 5.91273L86.1251 7.65818C85.8973 7.5903 85.6985 7.54182 85.5288 7.51273C85.3591 7.47879 85.1845 7.46182 85.0051 7.46182C84.6415 7.46182 84.3021 7.51515 83.987 7.62182C83.6767 7.72364 83.4051 7.87394 83.1724 8.07273C82.9445 8.27152 82.7627 8.51394 82.627 8.8C82.4961 9.08606 82.4306 9.41091 82.4306 9.77455C82.4306 9.80364 82.4306 9.83515 82.4306 9.86909C82.4306 9.89818 82.433 9.92727 82.4379 9.95636L84.9906 10.6109C85.4561 10.7273 85.793 10.9261 86.0015 11.2073C86.21 11.4836 86.3142 11.8279 86.3142 12.24C86.3142 12.9139 86.2367 13.4933 86.0815 13.9782C85.9264 14.4679 85.6767 14.8703 85.3324 15.1855C84.993 15.5055 84.5494 15.7406 84.0015 15.8909C83.4585 16.0461 82.7967 16.1236 82.0161 16.1236H80.4815C80.0839 16.1236 79.7033 16.0776 79.3397 15.9855C78.9761 15.8933 78.6342 15.76 78.3142 15.5855C77.9942 15.4158 77.7009 15.2073 77.4342 14.96C77.1676 14.7176 76.9324 14.4412 76.7288 14.1309C76.2488 13.3552 76.0088 12.4461 76.0088 11.4036C76.0088 11.0836 76.0306 10.7661 76.0742 10.4509C76.1179 10.1358 76.1857 9.81333 76.2779 9.48364C76.3748 9.14909 76.4961 8.8 76.6415 8.43636C76.787 8.07273 76.9615 7.68 77.1651 7.25818L78.7797 8.03636C78.61 8.39515 78.4645 8.72485 78.3433 9.02545C78.227 9.32121 78.1276 9.60242 78.0451 9.86909C77.9676 10.1309 77.9094 10.3855 77.8706 10.6327C77.8367 10.8752 77.8197 11.12 77.8197 11.3673C77.8197 12.0703 77.9748 12.6667 78.2851 13.1564C78.5082 13.5248 78.8112 13.8061 79.1942 14C79.5821 14.1988 80.0112 14.2982 80.4815 14.2982H82.0161ZM92.2159 12.1091C91.6826 12.1091 91.2244 12.0752 90.8414 12.0073C90.4584 11.9442 90.1359 11.8497 89.8741 11.7236C89.6123 11.5927 89.4014 11.4279 89.2414 11.2291C89.0862 11.0303 88.9675 10.7976 88.885 10.5309C88.8026 10.2642 88.7468 9.96364 88.7178 9.62909C88.6935 9.2897 88.6814 8.91636 88.6814 8.50909V1.62182H90.4923V8.50909C90.4923 8.89697 90.5044 9.20727 90.5287 9.44C90.5578 9.67273 90.6281 9.85455 90.7396 9.98545C90.8559 10.1115 91.0281 10.1964 91.2559 10.24C91.4887 10.2788 91.8087 10.2982 92.2159 10.2982V12.1091ZM98.9867 4.16C99.3018 4.57697 99.6218 4.99879 99.9467 5.42545C100.082 5.6097 100.225 5.80121 100.376 6C100.531 6.19879 100.686 6.40242 100.841 6.61091C101.001 6.81455 101.156 7.01818 101.307 7.22182C101.457 7.42545 101.602 7.61939 101.743 7.80364C102.044 8.20606 102.24 8.64485 102.332 9.12C102.361 9.2897 102.376 9.45939 102.376 9.62909C102.376 9.93455 102.325 10.24 102.223 10.5455C102.126 10.8364 101.983 11.103 101.794 11.3455C101.61 11.5879 101.384 11.7964 101.118 11.9709C100.851 12.1455 100.545 12.2812 100.201 12.3782C99.857 12.4752 99.4788 12.5236 99.0667 12.5236C98.7176 12.5236 98.3564 12.4873 97.983 12.4145C97.6097 12.3467 97.2291 12.2158 96.8412 12.0218C96.7539 11.983 96.6691 11.9442 96.5867 11.9055C96.5139 11.8715 96.4388 11.8376 96.3612 11.8036C96.2836 11.7648 96.2182 11.7309 96.1649 11.7018C95.6994 11.8424 95.183 11.9442 94.6158 12.0073C94.0533 12.0752 93.4303 12.1091 92.7467 12.1091H91.9249V10.2982H92.7467C92.8824 10.2982 93.0012 10.3006 93.103 10.3055C93.2097 10.3055 93.3115 10.3055 93.4085 10.3055C93.5006 10.3055 93.5927 10.303 93.6849 10.2982C93.7818 10.2933 93.8885 10.2836 94.0049 10.2691C93.8788 10.1236 93.7649 9.98303 93.663 9.84727C93.5661 9.70667 93.4812 9.56121 93.4085 9.41091C93.3406 9.25576 93.2873 9.09333 93.2485 8.92364C93.2146 8.74909 93.1976 8.55758 93.1976 8.34909C93.1976 7.95151 93.2727 7.58545 93.423 7.25091C93.5782 6.91636 93.7891 6.6303 94.0558 6.39273C94.3273 6.15515 94.6424 5.97091 95.0012 5.84C95.3649 5.70424 95.7552 5.63636 96.1721 5.63636C96.6424 5.63636 97.0594 5.73091 97.423 5.92C97.7915 6.10424 98.0994 6.33939 98.3467 6.62545C98.5988 6.90667 98.7879 7.21212 98.9139 7.54182C99.0449 7.87152 99.1103 8.17939 99.1103 8.46545C99.1103 8.69818 99.0861 8.91152 99.0376 9.10545C98.9939 9.29939 98.9309 9.48364 98.8485 9.65818C98.7661 9.82788 98.6643 9.9903 98.543 10.1455C98.4218 10.3006 98.2861 10.4533 98.1358 10.6036C98.2861 10.6521 98.4412 10.6982 98.6012 10.7418C98.7612 10.7806 98.9164 10.8 99.0667 10.8C99.217 10.8 99.3746 10.7903 99.5394 10.7709C99.7043 10.7467 99.8594 10.703 100.005 10.64C100.155 10.5721 100.286 10.48 100.398 10.3636C100.514 10.2473 100.601 10.0945 100.659 9.90545C100.679 9.83758 100.688 9.76727 100.688 9.69455C100.688 9.56364 100.65 9.39636 100.572 9.19273C100.495 8.98909 100.352 8.7297 100.143 8.41455C99.9394 8.09939 99.6849 7.75273 99.3794 7.37455C99.0739 6.99152 98.7394 6.57455 98.3758 6.12364L97.6194 5.18545L98.9867 4.16ZM94.9139 8.34909C94.9139 8.52848 94.9406 8.68848 94.9939 8.82909C95.0521 8.96485 95.137 9.09091 95.2485 9.20727C95.3649 9.32364 95.5055 9.43758 95.6703 9.54909C95.84 9.65576 96.0364 9.7697 96.2594 9.89091C96.4097 9.81818 96.5552 9.73576 96.6958 9.64364C96.8364 9.55152 96.9576 9.4497 97.0594 9.33818C97.1661 9.22182 97.2509 9.09333 97.3139 8.95273C97.377 8.81212 97.4085 8.65697 97.4085 8.48727C97.4085 8.28364 97.3649 8.10424 97.2776 7.94909C97.1903 7.79394 97.0836 7.66545 96.9576 7.56364C96.8315 7.46182 96.6958 7.38667 96.5503 7.33818C96.4097 7.2897 96.2836 7.26545 96.1721 7.26545C96.0073 7.26545 95.8473 7.29455 95.6921 7.35273C95.5418 7.41091 95.4085 7.49091 95.2921 7.59273C95.1758 7.6897 95.0836 7.80364 95.0158 7.93455C94.9479 8.06545 94.9139 8.20364 94.9139 8.34909ZM111.782 12.1091C111.317 12.1091 110.888 12.0436 110.495 11.9127C110.107 11.777 109.773 11.5879 109.491 11.3455C109.21 11.0982 108.99 10.8048 108.83 10.4655C108.674 10.1261 108.597 9.7503 108.597 9.33818C108.597 8.93091 108.648 8.56727 108.75 8.24727C108.851 7.92242 108.987 7.62182 109.157 7.34545C109.331 7.06424 109.533 6.79758 109.761 6.54545C109.993 6.28848 110.238 6.02424 110.495 5.75273L110.037 5.23636L111.375 4.02182C111.428 4.08485 111.491 4.15515 111.564 4.23273C111.637 4.3103 111.71 4.3903 111.782 4.47273C111.86 4.55515 111.935 4.63515 112.008 4.71273C112.081 4.7903 112.146 4.86061 112.204 4.92364C112.553 5.29697 112.893 5.66061 113.222 6.01455C113.557 6.36364 113.853 6.71515 114.11 7.06909C114.371 7.41818 114.582 7.7697 114.742 8.12364C114.893 8.47273 114.968 8.83152 114.968 9.2V9.23636C114.963 9.66303 114.878 10.0461 114.713 10.3855C114.548 10.72 114.308 11.0303 113.993 11.3164C113.702 11.5636 113.37 11.7576 112.997 11.8982C112.628 12.0388 112.224 12.1091 111.782 12.1091ZM111.695 6.86545C111.501 7.08364 111.317 7.2897 111.142 7.48364C110.973 7.67758 110.825 7.87151 110.699 8.06545C110.578 8.25939 110.485 8.45818 110.422 8.66182C110.364 8.83152 110.335 9.01576 110.335 9.21455C110.335 9.25333 110.338 9.29455 110.342 9.33818C110.357 9.51758 110.41 9.67273 110.502 9.80364C110.594 9.9297 110.708 10.0364 110.844 10.1236C110.98 10.2061 111.13 10.2667 111.295 10.3055C111.46 10.3442 111.622 10.3636 111.782 10.3636C111.967 10.3636 112.144 10.337 112.313 10.2836C112.483 10.2303 112.631 10.1552 112.757 10.0582C112.888 9.96121 112.992 9.84242 113.07 9.70182C113.147 9.56121 113.186 9.40606 113.186 9.23636C113.186 9.02788 113.145 8.82424 113.062 8.62545C112.98 8.42667 112.868 8.2303 112.728 8.03636C112.592 7.84242 112.434 7.64848 112.255 7.45455C112.076 7.26061 111.889 7.06424 111.695 6.86545ZM119.615 11.6655C119.585 12.3345 119.462 12.9358 119.244 13.4691C119.025 14.0073 118.725 14.463 118.342 14.8364C117.959 15.2145 117.496 15.5055 116.953 15.7091C116.41 15.9127 115.796 16.0145 115.113 16.0145H114.211V14.2036H115.113C115.578 14.2036 115.981 14.1552 116.32 14.0582C116.659 13.9612 116.938 13.8061 117.156 13.5927C117.375 13.3794 117.537 13.1006 117.644 12.7564C117.75 12.417 117.804 12.0024 117.804 11.5127V7.08364H119.615V11.6655ZM117.782 4.16L116.545 5.41091L115.309 4.17455L116.545 2.92364L117.782 4.16ZM120.902 4.13091L119.68 5.36727L118.407 4.14545L119.658 2.89455L120.902 4.13091ZM119.295 2.08L118.131 3.24364L116.982 2.09455L118.145 0.930909L119.295 2.08ZM122.608 14.2036C122.996 14.2036 123.34 14.1891 123.641 14.16C123.946 14.1358 124.215 14.097 124.448 14.0436C124.685 13.9952 124.891 13.9297 125.066 13.8473C125.245 13.7697 125.401 13.6752 125.531 13.5636C125.735 13.3988 125.888 13.2073 125.99 12.9891C126.096 12.7709 126.159 12.4776 126.179 12.1091H125.059C124.816 12.1091 124.569 12.0897 124.317 12.0509C124.065 12.0121 123.822 11.9467 123.59 11.8545C123.357 11.7576 123.136 11.6339 122.928 11.4836C122.724 11.3333 122.545 11.1491 122.39 10.9309C122.239 10.7079 122.118 10.4461 122.026 10.1455C121.939 9.84485 121.895 9.50061 121.895 9.11273C121.895 8.77818 121.924 8.48242 121.982 8.22545C122.041 7.96364 122.113 7.73333 122.201 7.53455C122.293 7.33576 122.394 7.16364 122.506 7.01818C122.618 6.86788 122.724 6.73697 122.826 6.62545C123.117 6.33455 123.447 6.11152 123.815 5.95636C124.184 5.79636 124.581 5.71636 125.008 5.71636C125.536 5.71636 125.987 5.80848 126.361 5.99273C126.739 6.17212 127.047 6.42182 127.284 6.74182C127.527 7.06182 127.704 7.44242 127.815 7.88364C127.927 8.32 127.982 8.79515 127.982 9.30909V11.8909C127.982 12.6133 127.873 13.2194 127.655 13.7091C127.437 14.2036 127.105 14.6279 126.659 14.9818C126.436 15.1564 126.193 15.3067 125.931 15.4327C125.67 15.5636 125.376 15.6727 125.051 15.76C124.727 15.8473 124.363 15.9103 123.961 15.9491C123.563 15.9927 123.112 16.0145 122.608 16.0145V14.2036ZM125.008 7.52727C124.596 7.52727 124.268 7.65576 124.026 7.91273C123.784 8.1697 123.662 8.5697 123.662 9.11273C123.662 9.32606 123.704 9.50788 123.786 9.65818C123.873 9.80848 123.982 9.93212 124.113 10.0291C124.249 10.1212 124.399 10.1891 124.564 10.2327C124.729 10.2764 124.894 10.2982 125.059 10.2982H126.179V9.30909C126.179 9.03273 126.157 8.79758 126.113 8.60364C126.07 8.40485 126.011 8.24 125.939 8.10909C125.871 7.97818 125.791 7.87394 125.699 7.79636C125.611 7.71879 125.524 7.66061 125.437 7.62182C125.354 7.58303 125.274 7.55879 125.197 7.54909C125.119 7.53455 125.056 7.52727 125.008 7.52727ZM135.514 12.1091H135.238C135.039 12.1091 134.85 12.097 134.671 12.0727C134.496 12.0485 134.324 11.9806 134.154 11.8691C134.096 12.4945 133.953 13.0618 133.725 13.5709C133.497 14.08 133.192 14.5139 132.809 14.8727C132.431 15.2364 131.977 15.5176 131.449 15.7164C130.92 15.9152 130.326 16.0145 129.667 16.0145H128.758V14.2036H129.667C130.132 14.2036 130.535 14.1552 130.874 14.0582C131.214 13.9612 131.492 13.8061 131.711 13.5927C131.929 13.3794 132.091 13.1006 132.198 12.7564C132.304 12.417 132.358 12.0024 132.358 11.5127V7.08364H134.169V9.25818C134.169 9.48121 134.215 9.66061 134.307 9.79636C134.404 9.93212 134.513 10.0388 134.634 10.1164C134.76 10.1891 134.881 10.2376 134.998 10.2618C135.114 10.2861 135.194 10.2982 135.238 10.2982H135.514V12.1091ZM140.625 6C140.635 6.03394 140.654 6.11394 140.684 6.24C140.717 6.36606 140.754 6.52121 140.793 6.70545C140.831 6.88485 140.87 7.08606 140.909 7.30909C140.953 7.53212 140.991 7.75758 141.025 7.98545C141.064 8.20848 141.093 8.42667 141.113 8.64C141.137 8.85333 141.149 9.04 141.149 9.2C141.149 9.69939 141.067 10.1333 140.902 10.5018C140.737 10.8655 140.521 11.1661 140.254 11.4036C139.988 11.6412 139.687 11.8182 139.353 11.9345C139.023 12.0509 138.691 12.1091 138.356 12.1091H135.222V10.2982H138.407C138.465 10.2982 138.548 10.2909 138.654 10.2764C138.766 10.257 138.875 10.2109 138.982 10.1382C139.093 10.0655 139.19 9.95636 139.273 9.81091C139.355 9.66061 139.396 9.45697 139.396 9.2C139.396 9.09333 139.387 8.96485 139.367 8.81455C139.353 8.65939 139.331 8.49455 139.302 8.32C139.273 8.14545 139.239 7.96848 139.2 7.78909C139.166 7.60485 139.132 7.43273 139.098 7.27273C139.064 7.10788 139.03 6.96 138.996 6.82909C138.962 6.69333 138.936 6.58909 138.916 6.51636L140.625 6ZM135.593 14.5018L136.829 13.2655L138.065 14.5164L136.829 15.7527L135.593 14.5018ZM138.625 14.5164L139.876 13.28L141.113 14.5309L139.876 15.7673L138.625 14.5164ZM137.178 16.5527L138.327 15.4036L139.491 16.5673L138.342 17.7164L137.178 16.5527Z" fill="#777777"/>
</svg>
